<?xml version="1.0" standalone="no"?>
<!DOCTYPE svg PUBLIC "-//W3C//DTD SVG 20010904//EN"
 "http://www.w3.org/TR/2001/REC-SVG-20010904/DTD/svg10.dtd">
<svg version="1.0" xmlns="http://www.w3.org/2000/svg"
 width="1200.000000pt" height="302.000000pt" viewBox="0 0 1200.000000 302.000000"
 preserveAspectRatio="xMidYMid meet">
<g transform="translate(0.000000,302.000000) scale(0.100000,-0.100000)"
fill="#000000" stroke="none">
<path d="M5356 2853 c-3 -3 -6 -20 -6 -37 0 -16 -5 -66 -12 -110 -9 -67 -8
-105 6 -221 41 -336 77 -679 96 -910 6 -77 15 -181 20 -232 6 -50 10 -118 10
-150 0 -107 11 -163 30 -163 15 0 21 15 31 73 21 121 -24 732 -91 1237 -5 41
-17 140 -25 220 -27 253 -39 313 -59 293z"/>
<path d="M5046 2728 c-4 -13 -15 -63 -26 -112 l-19 -89 24 -176 c13 -97 29
-212 35 -256 6 -44 17 -129 26 -190 9 -60 20 -141 25 -179 5 -38 15 -94 23
-125 27 -105 41 -206 41 -302 0 -81 -3 -100 -19 -117 -23 -26 -99 -52 -152
-53 -56 0 -195 -19 -223 -30 -49 -20 -41 9 21 72 82 83 129 171 135 253 6 87
-14 116 -119 166 -140 68 -218 53 -404 -75 -114 -78 -301 -227 -389 -308 -33
-31 -74 -64 -91 -73 -29 -16 -33 -16 -70 2 -21 10 -61 35 -87 56 -27 21 -56
38 -65 38 -8 0 -47 -24 -86 -53 -114 -85 -135 -95 -297 -136 -289 -73 -413
-95 -659 -116 -466 -41 -879 3 -1176 126 -102 43 -119 69 -138 224 -8 66 -20
219 -26 340 -21 427 -46 679 -90 920 -6 33 -15 85 -18 115 -6 46 -10 55 -27
55 -38 0 -55 -140 -30 -242 44 -175 62 -379 96 -1093 15 -323 40 -423 122
-483 34 -26 177 -85 267 -110 205 -59 514 -84 825 -68 350 18 579 58 809 142
127 47 153 61 243 135 36 30 70 54 76 54 5 0 51 -21 101 -46 215 -110 297
-122 704 -105 365 15 614 46 692 86 40 20 87 79 100 122 31 111 35 266 10 433
-18 122 -50 335 -61 410 -6 41 -15 100 -20 130 -5 30 -12 105 -15 165 -6 108
-5 112 26 185 55 126 55 122 4 195 -24 36 -44 69 -44 75 0 20 -24 60 -35 60
-7 0 -16 -10 -19 -22z m-327 -1319 c77 -35 111 -64 111 -95 0 -79 -338 -202
-643 -234 -100 -10 -137 -4 -137 24 0 15 176 156 306 245 161 109 230 120 363
60z"/>
<path d="M7767 2702 c-27 -6 -95 -116 -103 -168 -8 -56 6 -79 80 -128 46 -30
54 -40 47 -54 -14 -27 -109 -112 -180 -162 -35 -25 -76 -55 -90 -67 -24 -20
-24 -22 -8 -29 20 -7 80 9 142 39 47 23 106 83 143 147 31 54 37 58 67 52 20
-3 25 1 34 34 10 34 8 43 -10 68 -16 21 -20 37 -16 65 7 41 -14 141 -37 175
-16 25 -40 34 -69 28z m17 -113 c38 -18 71 -98 46 -114 -10 -6 -51 16 -87 49
-34 30 -29 71 9 75 4 1 18 -4 32 -10z"/>
<path d="M4154 2649 c-6 -11 -7 -41 -1 -114 2 -26 -2 -30 -26 -33 -41 -5 -67
22 -67 70 0 57 -20 44 -39 -24 -9 -31 -25 -66 -35 -77 -36 -40 -106 -18 -106
32 0 12 -4 28 -9 36 -16 26 -41 -42 -41 -112 0 -50 4 -68 20 -85 40 -42 96
-36 144 17 17 19 27 21 76 15 66 -7 67 -6 104 86 26 63 37 164 21 190 -8 13
-32 13 -41 -1z"/>
<path d="M1605 2530 c-25 -48 -19 -78 26 -128 23 -26 55 -74 73 -107 30 -58
31 -64 31 -186 0 -90 -4 -134 -14 -153 -11 -20 -12 -29 -3 -38 17 -17 35 3 50
59 8 26 18 61 23 77 26 83 -2 280 -56 385 -29 59 -81 121 -101 121 -7 0 -20
-13 -29 -30z"/>
<path d="M9618 2461 c-26 -20 -98 -65 -160 -101 -195 -109 -246 -146 -278
-197 -30 -46 -40 -93 -20 -93 6 0 34 19 63 43 29 24 107 74 173 112 225 131
231 135 283 228 11 21 21 40 21 42 0 15 -41 -2 -82 -34z"/>
<path d="M8798 2431 c-35 -28 -88 -132 -88 -174 0 -43 26 -77 84 -108 25 -13
48 -30 51 -37 8 -20 -97 -119 -202 -190 -128 -87 -126 -114 4 -70 79 27 141
80 195 163 32 49 44 60 66 60 22 0 29 7 40 39 11 36 11 41 -8 61 -16 17 -20
35 -20 86 0 77 -23 153 -53 174 -28 20 -39 19 -69 -4z m43 -101 c41 -22 66
-110 31 -110 -23 0 -89 45 -102 71 -21 38 24 63 71 39z"/>
<path d="M7368 2351 c-4 -10 -151 -106 -223 -146 -200 -109 -256 -155 -284
-230 -20 -55 -2 -64 45 -23 54 48 108 83 264 171 75 41 143 84 152 94 21 24
78 121 78 133 0 12 -27 13 -32 1z"/>
<path d="M10528 2043 c-18 -21 -44 -56 -58 -77 l-24 -39 45 -39 c56 -49 129
-98 145 -98 20 0 78 62 98 104 27 57 15 88 -56 141 -76 57 -104 58 -150 8z"/>
<path d="M4002 1955 c-16 -13 -42 -49 -58 -79 l-29 -55 25 -27 c37 -39 136
-104 159 -104 26 0 54 28 81 79 30 59 26 85 -20 131 -32 32 -106 80 -124 80
-2 0 -18 -11 -34 -25z"/>
<path d="M7787 1778 c-56 -91 -77 -131 -83 -152 -5 -22 -2 -26 23 -31 132 -30
195 -64 281 -153 62 -64 172 -215 172 -236 0 -25 -37 -46 -116 -66 -176 -43
-409 -63 -457 -39 -12 6 -34 25 -49 42 -14 18 -30 28 -35 24 -4 -5 -10 -58
-11 -117 -4 -105 -3 -110 21 -134 51 -51 183 -45 437 21 227 58 251 79 258
223 5 101 -17 191 -75 304 -38 74 -64 108 -138 181 -57 56 -114 102 -153 123
l-61 32 -14 -22z"/>
<path d="M552 1773 c-4 -10 -24 -48 -46 -86 -44 -78 -40 -91 25 -100 71 -9
167 -65 239 -136 75 -76 180 -220 180 -248 0 -10 -12 -26 -27 -35 -55 -31
-323 -78 -451 -78 -83 0 -119 15 -147 62 -25 42 -34 25 -44 -78 -13 -147 6
-179 115 -190 73 -8 165 6 344 52 178 45 206 58 236 109 21 36 24 54 24 136 0
105 -11 150 -64 261 -65 137 -163 243 -297 321 -53 31 -77 34 -87 10z"/>
<path d="M9497 1553 c-4 -3 -7 -53 -7 -110 0 -117 -12 -159 -63 -211 -41 -43
-111 -74 -146 -66 -28 7 -85 46 -113 77 -9 10 -25 17 -35 15 -15 -3 -18 -15
-21 -73 -2 -58 2 -77 21 -110 12 -22 35 -46 51 -54 25 -11 27 -17 22 -45 -14
-69 -142 -218 -278 -322 -89 -69 -230 -139 -322 -159 -62 -14 -101 -16 -194
-11 -186 12 -207 12 -209 1 -3 -10 20 -19 87 -35 19 -5 107 -27 195 -50 88
-23 176 -45 197 -47 63 -8 183 64 317 191 116 111 185 215 236 355 l30 86 57
0 c41 0 64 6 85 21 35 25 72 98 81 159 4 25 12 46 17 46 6 0 16 -28 23 -63 31
-144 65 -226 114 -277 45 -46 67 -55 203 -87 111 -26 136 -28 330 -28 179 0
223 3 300 21 134 32 262 82 451 176 320 160 438 178 692 101 l84 -26 25 24
c37 34 95 126 91 146 -3 14 -21 18 -123 24 -117 6 -261 34 -410 79 -38 11 -85
25 -103 30 -34 11 -146 53 -307 116 -111 43 -173 63 -203 63 -74 0 -198 -122
-204 -202 -3 -31 -1 -33 27 -32 17 1 77 9 134 18 60 10 123 14 150 11 49 -7
224 -59 253 -75 10 -6 27 -10 37 -10 11 0 23 -5 26 -10 9 -15 -13 -40 -35 -40
-18 0 -108 -35 -205 -79 -242 -112 -374 -141 -635 -143 -237 -1 -418 32 -507
93 -82 57 -123 135 -142 274 -33 241 -34 245 -51 245 -9 0 -20 -3 -23 -7z"/>
<path d="M6396 1521 c-3 -5 -7 -56 -8 -112 l-3 -104 64 -104 c78 -129 94 -166
86 -200 -16 -64 -165 -234 -280 -319 -120 -89 -239 -134 -398 -152 -87 -10
-89 -10 -152 20 -146 70 -225 187 -225 336 0 67 -12 88 -30 53 -13 -24 -6
-122 13 -179 22 -65 64 -132 118 -187 66 -67 223 -162 320 -193 71 -23 73 -23
123 -5 100 35 247 145 376 282 59 61 86 102 127 183 61 124 75 172 75 260 0
80 -19 134 -107 295 -36 66 -65 123 -65 128 0 10 -28 9 -34 -2z"/>
<path d="M7236 1488 c-2 -7 -12 -51 -20 -97 l-16 -83 76 -137 c87 -155 97
-196 66 -257 -75 -144 -297 -324 -522 -421 -85 -36 -211 -56 -282 -43 -143 27
-171 31 -180 22 -5 -5 0 -15 14 -24 31 -19 433 -118 482 -118 32 0 59 13 139
67 218 145 377 355 413 547 28 143 15 215 -66 376 -32 63 -62 128 -66 144 -10
32 -31 46 -38 24z"/>
<path d="M804 685 c-28 -24 -74 -53 -317 -196 -90 -54 -114 -73 -143 -117 -57
-85 -26 -111 51 -44 24 20 118 80 210 132 165 94 167 96 211 164 24 38 44 73
44 78 0 16 -27 8 -56 -17z"/>
<path d="M9546 520 c-19 -17 -45 -51 -57 -76 -18 -38 -20 -49 -9 -67 24 -45
70 -71 138 -79 77 -9 95 -1 122 52 34 66 28 81 -47 137 -92 68 -104 71 -147
33z"/>
</g>
</svg>
