<?xml version="1.0" standalone="no"?>
<!DOCTYPE svg PUBLIC "-//W3C//DTD SVG 20010904//EN"
 "http://www.w3.org/TR/2001/REC-SVG-20010904/DTD/svg10.dtd">
<svg version="1.0" xmlns="http://www.w3.org/2000/svg"
 width="2400.000000pt" height="568.000000pt" viewBox="0 0 2400.000000 568.000000"
 preserveAspectRatio="xMidYMid meet">
<g transform="translate(0.000000,568.000000) scale(0.100000,-0.100000)"
fill="#000000" stroke="none">
<path d="M13817 5338 c-13 -22 -29 -125 -43 -283 -3 -38 -10 -89 -15 -113 -7
-31 -5 -70 5 -135 18 -110 30 -209 66 -542 6 -49 14 -126 20 -170 5 -44 14
-123 20 -175 11 -99 21 -187 46 -405 8 -71 19 -202 25 -290 5 -88 16 -203 24
-256 8 -53 15 -126 15 -162 0 -36 7 -125 15 -199 8 -73 19 -223 25 -333 18
-361 33 -447 74 -432 60 23 77 237 57 707 -7 151 -16 306 -22 345 -5 38 -14
148 -19 245 -6 96 -15 200 -20 230 -6 30 -15 120 -20 200 -6 80 -16 190 -24
245 -8 55 -18 137 -21 182 -4 46 -11 98 -16 115 -5 18 -14 85 -20 148 -6 63
-14 134 -20 157 -5 23 -14 98 -19 165 -6 68 -18 164 -25 213 -8 50 -15 117
-15 150 0 33 -7 87 -15 120 -8 33 -15 101 -16 150 -2 135 -26 182 -62 123z"/>
<path d="M5950 5301 c0 -14 -151 -129 -210 -159 -37 -19 -66 -36 -81 -49 -8
-6 -45 -27 -84 -48 -38 -20 -88 -47 -110 -60 -22 -13 -53 -31 -70 -39 -16 -9
-39 -21 -50 -28 -11 -7 -45 -28 -75 -47 -122 -75 -161 -106 -205 -163 -25 -33
-49 -67 -52 -76 -3 -9 -12 -24 -20 -33 -22 -27 -28 -112 -9 -128 18 -15 8 -22
120 78 54 48 149 114 221 155 17 9 48 28 70 41 22 13 47 27 55 31 8 4 22 13
30 19 8 7 45 29 82 49 37 19 86 47 108 61 23 14 52 30 65 35 28 11 123 75 145
99 26 28 120 173 120 186 0 7 7 18 15 25 33 27 19 60 -25 60 -22 0 -40 -4 -40
-9z"/>
<path d="M13231 5087 c-6 -8 -14 -29 -18 -48 -3 -18 -12 -45 -20 -59 -7 -14
-13 -39 -13 -56 0 -17 -8 -55 -17 -85 -24 -73 -24 -280 -1 -409 10 -52 22
-135 27 -185 6 -49 15 -117 20 -150 5 -33 14 -100 20 -150 19 -157 31 -258 42
-335 5 -41 15 -111 20 -155 6 -44 17 -109 25 -145 7 -36 16 -99 19 -140 5 -67
28 -190 57 -305 10 -42 19 -85 44 -222 37 -199 35 -486 -2 -536 -29 -37 -166
-89 -305 -114 -25 -5 -108 28 -234 93 -69 36 -86 51 -207 199 -145 178 -176
209 -232 234 -60 26 -70 26 -112 0 -117 -72 -217 -211 -315 -438 -83 -191
-273 -281 -549 -260 -269 20 -450 115 -450 237 0 28 39 173 55 202 31 57 81
244 92 337 13 124 -116 300 -285 387 -17 9 -32 19 -34 23 -13 31 -168 94 -257
105 -96 13 -663 -6 -708 -23 -14 -5 -99 -16 -187 -24 -89 -8 -182 -18 -206
-24 -25 -5 -88 -13 -140 -16 -52 -4 -126 -13 -165 -20 -38 -8 -104 -16 -145
-20 -41 -4 -106 -12 -145 -20 -38 -7 -108 -16 -155 -19 -47 -4 -132 -13 -190
-21 -154 -21 -369 -45 -500 -56 -63 -5 -154 -13 -201 -19 -47 -5 -169 -14
-270 -20 -101 -6 -260 -17 -354 -26 -472 -43 -1522 -45 -1678 -3 -22 6 -78 17
-126 24 -333 54 -432 137 -314 262 63 66 324 273 373 296 8 4 35 20 60 36 25
17 74 44 110 61 36 17 72 35 80 41 8 5 29 15 45 24 17 8 37 19 45 24 8 5 62
33 120 61 58 28 112 55 120 59 8 4 35 17 60 28 25 12 61 29 80 38 44 21 133
53 184 66 21 5 48 16 60 24 11 8 27 15 35 15 48 0 221 145 221 186 0 6 7 17
16 24 19 17 54 88 54 112 0 52 -76 40 -235 -38 -49 -24 -94 -44 -100 -44 -14
0 -615 -297 -715 -353 -25 -14 -63 -35 -85 -46 -22 -11 -71 -41 -110 -66 -38
-25 -78 -48 -87 -51 -10 -3 -18 -9 -18 -13 0 -4 -21 -21 -47 -38 -63 -41 -185
-160 -254 -248 -60 -75 -60 -76 -131 -217 -44 -87 -59 -124 -93 -223 -8 -22
-25 -67 -39 -99 -28 -68 -25 -81 36 -150 29 -33 139 -96 168 -96 6 0 21 -6 33
-14 12 -8 47 -17 77 -21 30 -3 91 -14 135 -23 112 -24 1154 -23 1495 1 124 9
302 19 395 22 94 4 217 12 275 20 58 8 186 17 285 20 99 4 218 12 265 20 47 7
147 16 223 20 76 3 174 12 218 20 43 8 125 17 182 20 56 4 131 12 167 20 36 7
124 16 195 20 72 4 160 13 196 20 36 8 108 17 160 21 52 3 117 12 144 19 28 8
86 17 130 20 44 4 114 13 155 20 41 7 118 16 170 20 52 4 138 13 190 21 123
18 259 18 307 0 21 -8 51 -17 66 -20 115 -26 418 -314 405 -385 -4 -20 -109
-38 -313 -52 -82 -5 -186 -16 -230 -24 -44 -8 -118 -17 -165 -20 -47 -4 -112
-13 -145 -20 -33 -7 -91 -16 -130 -20 -38 -4 -92 -12 -120 -20 -27 -7 -95 -16
-150 -20 -55 -4 -132 -13 -171 -20 -38 -7 -108 -16 -155 -20 -46 -4 -91 -11
-100 -16 -9 -5 -70 -15 -136 -23 -65 -8 -139 -19 -163 -24 -25 -6 -83 -13
-130 -17 -47 -3 -121 -12 -165 -20 -44 -8 -116 -17 -160 -21 -44 -3 -107 -12
-140 -19 -33 -7 -107 -16 -165 -20 -58 -4 -123 -11 -145 -15 -22 -5 -114 -16
-205 -25 -90 -8 -180 -19 -200 -24 -19 -5 -78 -12 -130 -16 -52 -4 -138 -13
-190 -20 -52 -8 -144 -17 -205 -20 -60 -4 -144 -13 -185 -20 -41 -8 -120 -17
-175 -20 -55 -3 -156 -12 -225 -20 -410 -47 -1453 -50 -1750 -4 -35 6 -116 17
-180 25 -63 8 -137 18 -165 24 -69 12 -162 12 -210 -1 -72 -20 -287 28 -380
85 -73 45 -85 101 -47 210 25 69 20 104 -14 112 -32 8 -52 -10 -60 -55 -26
-162 -157 -311 -295 -337 -19 -4 -51 -15 -71 -25 -21 -11 -53 -19 -72 -19 -36
0 -156 54 -156 70 0 5 -9 12 -20 15 -22 7 -113 116 -148 177 -40 71 -102 300
-102 378 0 19 -6 71 -14 115 -8 44 -17 122 -21 173 -6 78 -11 98 -32 123 -59
70 -72 35 -88 -241 -11 -195 -16 -234 -35 -276 -33 -72 -114 -145 -216 -195
l-88 -42 -63 17 c-81 21 -106 37 -193 119 -81 78 -80 78 -115 32 -43 -57 -44
-246 -1 -294 8 -9 17 -28 21 -42 9 -36 80 -106 121 -119 25 -9 34 -17 34 -33
-1 -36 -72 -166 -137 -252 -84 -108 -326 -348 -364 -360 -11 -4 -19 -10 -19
-15 0 -4 -24 -23 -52 -41 -29 -18 -56 -37 -59 -42 -3 -4 -20 -16 -37 -25 -17
-9 -66 -38 -109 -63 -43 -26 -103 -56 -133 -69 -30 -12 -75 -30 -100 -40 -118
-48 -180 -61 -312 -67 -154 -7 -414 11 -508 34 -88 22 -120 14 -120 -31 0 -38
4 -40 100 -52 30 -4 66 -12 80 -19 14 -7 48 -16 75 -21 27 -4 64 -13 82 -20
18 -8 47 -14 65 -14 18 -1 51 -8 73 -16 39 -15 101 -32 200 -54 28 -6 73 -18
100 -26 121 -35 254 -36 308 -2 12 8 35 18 51 22 34 8 54 22 216 149 200 157
372 334 461 472 14 22 42 65 61 95 20 30 50 89 67 130 18 41 38 89 46 105 7
17 20 55 28 85 9 30 20 69 25 85 l9 30 104 0 c192 1 289 93 328 313 21 117 64
148 76 54 5 -43 17 -103 44 -232 53 -252 223 -454 409 -485 57 -9 138 31 192
95 21 25 79 87 129 137 99 102 124 112 174 73 14 -11 28 -20 31 -20 4 0 19 -8
34 -19 197 -135 368 -213 494 -225 36 -4 81 -13 100 -20 18 -8 67 -17 108 -20
41 -4 109 -13 150 -21 71 -13 686 -38 975 -39 182 -1 677 23 790 39 55 7 141
16 190 20 50 4 122 13 160 20 39 8 108 16 155 20 47 4 126 13 175 20 50 8 135
17 190 20 55 4 127 13 160 20 33 7 98 16 145 20 47 3 119 12 160 20 41 8 118
17 170 20 52 4 131 13 175 20 44 8 116 17 160 20 44 4 105 13 135 20 30 7 96
16 145 20 50 3 124 12 165 20 41 8 113 17 160 20 47 4 112 13 145 20 33 8 92
17 130 20 39 4 99 13 135 20 36 7 103 16 150 20 47 3 117 12 155 20 39 7 99
17 135 20 36 4 90 13 121 21 31 8 74 14 95 14 22 1 75 7 119 16 44 8 134 19
200 24 66 5 152 16 190 24 101 21 484 51 496 39 5 -5 18 -43 30 -84 41 -147
128 -250 269 -315 41 -20 83 -40 93 -45 49 -26 293 -49 348 -33 104 30 272
169 317 262 21 43 52 50 116 24 28 -12 63 -24 79 -28 15 -3 30 -10 33 -15 2
-5 24 -13 47 -19 54 -14 133 -45 225 -87 40 -18 75 -33 78 -33 8 0 122 -58
169 -86 109 -64 141 -49 175 83 19 76 38 89 103 74 69 -17 210 -2 283 31 93
41 214 173 214 233 0 9 6 28 14 43 19 38 59 373 53 447 -14 168 -38 365 -47
389 -5 14 -14 70 -20 124 -5 53 -16 133 -24 177 -9 44 -15 96 -16 115 0 19 -9
85 -19 145 -43 242 -51 293 -70 460 -6 50 -15 114 -21 144 -5 29 -10 121 -12
205 -3 155 7 205 63 305 72 131 83 248 31 321 -18 25 -48 66 -66 92 -33 46
-58 104 -70 159 -3 14 -17 31 -31 37 -32 15 -30 15 -44 -1z m-661 -2862 c54
-52 90 -126 100 -200 14 -116 -7 -118 -215 -24 -11 5 -57 22 -103 39 -188 68
-186 112 8 213 64 33 160 21 210 -28z"/>
<path d="M17363 5056 c-13 -16 -22 -48 -26 -88 -3 -35 -13 -80 -21 -100 -22
-52 -20 -143 4 -197 11 -24 20 -53 20 -65 0 -11 7 -46 15 -76 9 -30 20 -95 25
-145 5 -49 14 -110 20 -135 6 -25 17 -106 25 -180 8 -74 19 -169 24 -210 6
-41 15 -174 21 -295 6 -121 15 -281 20 -355 5 -74 9 -211 10 -305 1 -93 5
-219 10 -280 5 -60 16 -220 24 -353 9 -134 20 -260 26 -280 6 -21 15 -67 20
-103 26 -178 172 -344 335 -383 17 -4 44 -13 60 -21 79 -37 127 -55 205 -78
183 -53 331 -86 460 -102 58 -7 128 -18 155 -24 50 -11 253 -26 548 -40 86 -4
217 -4 290 0 72 4 233 13 357 19 124 6 268 17 320 25 52 7 133 17 180 20 47 3
110 12 140 19 30 8 82 17 114 21 33 4 71 11 85 17 14 5 62 16 106 23 98 17
200 42 240 59 17 8 46 17 65 20 33 7 111 34 175 61 91 38 147 57 191 64 27 4
58 12 69 18 11 5 47 23 80 39 33 16 67 34 75 41 48 37 134 129 189 200 84 110
99 114 180 55 72 -51 163 -119 179 -133 67 -57 232 -149 268 -149 11 0 29 -7
41 -15 11 -8 45 -17 74 -21 58 -6 79 2 246 100 112 67 263 224 263 275 0 8 6
22 14 30 16 18 44 119 57 200 14 94 -20 378 -54 446 -8 17 -27 57 -43 90 -15
33 -30 62 -34 65 -3 3 -20 28 -38 55 -17 28 -35 55 -40 60 -4 6 -23 29 -41 53
-39 48 -71 55 -95 20 -13 -18 -16 -56 -16 -204 l0 -182 39 -50 c22 -27 50 -58
63 -68 77 -63 168 -195 168 -243 -1 -31 -47 -102 -78 -117 -12 -6 -30 -18 -39
-26 -10 -9 -45 -28 -78 -43 -33 -15 -91 -43 -130 -63 -68 -36 -73 -37 -175
-35 -68 0 -121 7 -150 17 -25 9 -52 16 -60 16 -22 0 -178 48 -235 73 -52 22
-89 45 -139 85 -33 27 -71 23 -98 -8 -9 -11 -19 -20 -23 -20 -4 0 -28 -17 -54
-38 -94 -76 -167 -117 -228 -128 -21 -4 -46 -11 -56 -16 -10 -5 -46 -14 -80
-19 -34 -5 -71 -13 -82 -18 -11 -5 -50 -23 -86 -40 -36 -17 -74 -31 -84 -31
-11 0 -37 -6 -60 -14 -48 -17 -203 -53 -265 -61 -44 -6 -172 -31 -315 -61 -38
-8 -115 -19 -170 -24 -55 -6 -125 -14 -155 -19 -31 -5 -128 -12 -215 -15 -88
-4 -227 -14 -309 -23 -165 -17 -583 -14 -751 6 -49 6 -130 15 -180 20 -169 17
-397 60 -515 96 -25 7 -63 16 -85 20 -40 7 -140 36 -205 60 -19 7 -75 25 -125
41 -144 45 -218 96 -265 184 -39 72 -83 495 -95 906 -3 110 -10 227 -15 260
-6 32 -15 156 -20 274 -6 118 -15 242 -20 275 -5 33 -14 134 -20 225 -9 151
-20 243 -49 418 -23 133 -32 189 -42 242 -5 30 -14 89 -20 130 -12 83 -36 211
-47 250 -10 35 -45 38 -69 6z"/>
<path d="M23000 4683 c-25 -8 -63 -23 -86 -34 -23 -10 -44 -19 -49 -19 -4 0
-18 -9 -32 -20 -14 -11 -34 -20 -44 -20 -10 0 -40 -9 -66 -21 -27 -12 -68 -30
-93 -41 -25 -11 -62 -28 -82 -39 -20 -10 -43 -19 -49 -19 -7 0 -31 -9 -53 -19
-49 -23 -89 -40 -176 -76 -36 -15 -87 -37 -115 -50 -50 -23 -101 -46 -192 -86
-76 -33 -102 -45 -196 -88 -49 -23 -90 -41 -93 -41 -5 0 -50 -20 -204 -92 -47
-22 -105 -49 -130 -60 -25 -10 -52 -23 -60 -29 -8 -5 -26 -14 -40 -19 -14 -6
-38 -17 -55 -24 -16 -8 -61 -29 -100 -46 -38 -18 -115 -54 -170 -81 -55 -26
-112 -51 -128 -55 -15 -3 -29 -10 -32 -14 -5 -8 -69 -40 -170 -85 -33 -14 -67
-30 -75 -36 -8 -5 -24 -13 -35 -18 -44 -19 -590 -286 -635 -311 -8 -4 -80 -40
-160 -79 -123 -61 -319 -162 -605 -312 -33 -17 -65 -35 -71 -40 -6 -5 -37 -23
-70 -40 -83 -45 -235 -146 -258 -172 -10 -12 -69 -76 -132 -143 -221 -235
-243 -276 -158 -282 33 -2 47 3 80 29 36 29 93 69 133 94 9 5 41 26 71 45 30
19 67 42 82 50 68 37 144 83 158 95 8 7 40 25 70 41 30 15 62 33 70 40 9 7 60
36 115 64 54 28 103 54 109 59 6 4 52 30 101 56 50 26 113 60 140 75 28 15 79
42 115 60 36 17 85 43 110 56 25 13 79 40 120 60 41 20 98 47 125 62 28 14 57
29 65 33 8 4 42 19 75 34 33 14 67 30 75 35 8 6 26 15 40 21 53 22 116 51 130
60 8 5 26 14 40 19 14 6 32 15 40 20 8 6 22 13 30 16 26 11 181 84 307 145 67
32 124 59 127 59 2 0 51 22 108 49 56 27 137 64 178 84 41 19 109 50 150 70
41 19 107 49 145 67 39 18 104 48 145 67 41 19 95 44 120 55 25 11 76 35 114
54 37 19 72 34 77 34 4 0 52 21 106 46 54 26 118 56 143 66 44 20 153 70 235
109 22 11 44 19 48 19 37 0 296 144 387 216 168 132 210 175 210 217 0 28 -20
56 -33 46 -1 -1 -22 -8 -47 -16z"/>
<path d="M12316 4495 c-41 -22 -87 -71 -121 -130 -16 -28 -34 -57 -40 -65 -51
-66 -67 -191 -33 -252 22 -38 131 -128 174 -142 50 -17 79 -53 64 -81 -17 -32
-168 -178 -229 -221 -120 -85 -274 -190 -296 -202 -28 -15 -43 -58 -26 -75 23
-23 199 24 313 84 75 39 231 214 277 311 30 63 40 70 80 55 43 -16 57 -5 88
67 30 72 26 105 -19 145 l-33 29 -1 134 c-2 136 -27 242 -68 284 -8 7 -16 17
-18 21 -4 11 -65 53 -75 53 -4 0 -21 -7 -37 -15z m20 -220 c46 -19 73 -54 102
-128 30 -80 7 -109 -58 -73 -14 8 -40 22 -57 31 -141 74 -129 230 13 170z"/>
<path d="M3765 4228 c-55 -5 -161 -7 -235 -5 l-135 5 -63 -66 c-35 -36 -68
-75 -73 -86 -5 -12 -25 -46 -44 -76 -39 -63 -41 -72 -19 -94 22 -23 46 -20 89
10 67 45 380 62 380 21 0 -16 -98 -67 -130 -67 -6 0 -49 -19 -95 -42 -74 -36
-104 -55 -157 -99 -7 -5 -13 -21 -13 -34 0 -41 41 -35 175 25 76 34 178 60
236 60 72 0 86 6 108 48 40 74 79 136 148 236 55 80 74 136 53 161 -14 17 -65
18 -225 3z"/>
<path d="M2777 3958 c-15 -18 -47 -64 -73 -103 -83 -127 -83 -127 -176 -47
-87 74 -153 122 -205 152 l-42 23 -24 -24 c-13 -13 -36 -46 -51 -73 -15 -26
-35 -55 -43 -65 -40 -45 -72 -95 -78 -121 -14 -64 43 -156 125 -201 19 -11 49
-28 65 -39 63 -42 115 -62 145 -55 39 9 105 84 142 163 37 77 55 79 130 19 29
-24 75 -58 101 -76 27 -18 64 -47 83 -63 85 -75 169 -26 243 142 49 111 41
167 -31 216 -24 16 -87 64 -140 106 -110 89 -131 94 -171 46z"/>
<path d="M3534 3229 c-11 -6 -29 -24 -40 -41 -10 -17 -27 -42 -36 -57 -48 -73
-107 -181 -107 -198 -2 -35 49 -88 153 -158 16 -11 39 -27 51 -35 137 -94 143
-95 216 -24 57 56 139 213 139 267 0 38 -48 89 -119 127 -74 39 -99 55 -138
86 -46 38 -87 49 -119 33z"/>
<path d="M16495 3110 c-14 -15 -19 -47 -25 -172 -9 -195 -4 -216 90 -333 77
-95 98 -130 159 -255 18 -36 36 -72 40 -81 5 -8 21 -47 36 -85 15 -38 35 -87
45 -109 16 -37 25 -66 76 -240 32 -107 31 -262 0 -332 -73 -159 -429 -370
-741 -438 -33 -7 -73 -18 -90 -25 -40 -17 -364 -26 -430 -12 -138 29 -248 74
-319 131 -21 17 -42 31 -46 31 -21 0 -180 192 -180 218 0 4 -7 21 -16 37 -23
44 -56 260 -48 314 12 85 42 212 53 225 18 22 32 113 21 141 -13 34 -47 33
-62 -2 -7 -16 -17 -35 -23 -43 -16 -21 -44 -103 -59 -175 -7 -33 -19 -80 -26
-105 -8 -31 -13 -128 -13 -305 -2 -310 13 -379 120 -580 59 -111 226 -261 325
-294 21 -7 40 -16 43 -21 3 -4 24 -11 47 -15 22 -4 57 -14 77 -23 49 -21 398
-20 451 1 19 8 57 18 85 22 27 4 58 13 69 21 11 8 29 14 40 14 11 0 38 9 60
19 23 11 52 25 66 30 14 6 32 15 40 20 8 5 42 22 75 37 33 15 78 42 100 60 22
17 50 34 63 38 12 4 22 11 22 15 0 5 26 28 58 53 69 55 178 164 197 198 52 93
115 240 115 268 0 11 9 48 20 83 36 111 36 588 0 709 -6 19 -15 69 -21 110 -6
41 -14 80 -19 85 -4 6 -15 35 -23 65 -31 112 -62 182 -138 320 -23 41 -49 89
-58 105 -60 110 -200 295 -225 295 -7 0 -21 -9 -31 -20z"/>
<path d="M15860 2272 c-23 -4 -44 -23 -92 -85 -117 -148 -140 -195 -119 -244
10 -24 139 -137 192 -168 10 -5 39 -23 66 -39 121 -74 191 -23 296 217 27 60
2 92 -198 250 -83 66 -103 75 -145 69z"/>
<path d="M23130 1428 c-22 -24 -50 -59 -61 -78 -104 -186 -104 -186 -55 -233
108 -105 259 -197 324 -197 56 0 133 80 185 192 49 103 31 143 -103 242 -182
133 -222 143 -290 74z"/>
<path d="M22379 1204 c-19 -14 -56 -57 -82 -97 -93 -139 -92 -139 -257 16 -72
68 -114 97 -140 97 -22 0 -80 -38 -80 -52 0 -11 -27 -49 -102 -147 -95 -122
-80 -158 111 -276 9 -5 43 -28 76 -50 113 -76 179 -47 254 110 44 91 55 88
191 -41 114 -108 174 -128 239 -79 53 38 65 55 112 151 72 147 63 169 -105
288 -148 104 -172 113 -217 80z"/>
<path d="M3334 999 c-16 -17 -45 -42 -64 -54 -19 -13 -64 -44 -100 -69 -36
-25 -69 -46 -74 -46 -5 0 -33 -16 -62 -35 -30 -20 -68 -43 -86 -51 -18 -8 -51
-26 -73 -39 -22 -13 -51 -29 -64 -35 -12 -5 -47 -26 -76 -45 -28 -19 -55 -35
-59 -35 -46 0 -229 -162 -269 -239 -57 -111 -38 -217 27 -148 32 32 136 121
155 131 9 5 41 25 71 45 68 45 88 57 120 73 14 6 36 19 50 28 14 10 50 30 80
47 30 17 71 40 90 52 19 11 53 30 75 41 43 22 58 31 120 71 82 54 137 126 205
268 35 75 -8 101 -66 40z"/>
</g>
</svg>
