<?xml version="1.0" standalone="no"?>
<!DOCTYPE svg PUBLIC "-//W3C//DTD SVG 20010904//EN"
 "http://www.w3.org/TR/2001/REC-SVG-20010904/DTD/svg10.dtd">
<svg version="1.0" xmlns="http://www.w3.org/2000/svg"
 width="546.000000pt" height="340.000000pt" viewBox="0 0 546.000000 340.000000"
 preserveAspectRatio="xMidYMid meet">
<g transform="translate(0.000000,340.000000) scale(0.100000,-0.100000)"
fill="#000000" stroke="none">
<path d="M1433 3312 l-133 -3 -33 -34 c-18 -19 -46 -57 -61 -85 -24 -44 -25
-51 -11 -56 9 -4 28 -1 43 6 28 13 232 28 232 16 0 -3 -46 -28 -102 -55 -90
-43 -171 -101 -142 -101 6 0 50 14 99 30 49 17 108 30 132 30 43 0 44 0 97 83
57 86 93 154 85 161 -10 8 -82 11 -206 8z"/>
<path d="M1029 3116 c-42 -28 -128 -79 -190 -114 -176 -97 -236 -137 -264
-181 -25 -36 -50 -111 -38 -111 3 0 31 20 63 44 32 24 134 87 227 141 92 53
181 109 196 124 26 23 93 139 85 146 -2 1 -37 -21 -79 -49z"/>
<path d="M4126 2940 c-27 -137 -33 -231 -20 -342 67 -573 98 -877 135 -1328
12 -146 25 -269 30 -274 5 -5 13 3 19 20 40 105 12 616 -71 1299 -66 541 -85
665 -93 625z"/>
<path d="M312 2803 c-5 -10 -17 -51 -26 -91 -13 -57 -14 -82 -6 -110 49 -169
85 -513 105 -997 21 -522 32 -617 81 -701 28 -49 111 -122 152 -134 38 -10
116 4 158 31 19 11 68 61 110 110 53 62 83 89 99 89 12 0 54 -25 95 -55 105
-78 153 -99 227 -100 51 0 66 4 86 23 32 30 78 149 113 287 l27 109 29 -92
c37 -120 99 -204 178 -243 63 -32 196 -64 320 -79 203 -24 534 -4 654 40 28
10 80 26 116 36 36 9 107 37 159 61 52 23 101 43 110 43 9 0 42 -9 74 -20 69
-24 125 -25 220 -4 78 18 115 39 163 93 l32 36 48 -19 c164 -62 210 -70 251
-41 14 10 34 52 57 123 l36 108 -15 83 c-9 45 -20 94 -26 108 -19 50 -34 8
-39 -110 -6 -133 -3 -131 -129 -90 -112 37 -130 59 -112 138 17 77 8 79 -19 3
-75 -212 -126 -254 -298 -246 -133 6 -158 29 -127 111 11 28 -6 20 -78 -38
-93 -75 -167 -108 -352 -155 -185 -47 -379 -66 -564 -56 -123 7 -307 40 -331
60 -8 7 -41 27 -72 45 -70 39 -130 105 -167 185 -39 83 -48 129 -66 313 -15
155 -32 319 -60 578 -8 72 -19 191 -25 265 -10 125 -24 230 -36 273 -13 42
-47 -25 -63 -122 -8 -51 -6 -94 14 -237 14 -96 31 -254 40 -352 8 -97 20 -222
26 -277 6 -55 11 -201 12 -325 2 -216 1 -227 -20 -267 -25 -45 -63 -78 -132
-113 -55 -27 -82 -25 -235 25 l-113 37 -77 -41 c-102 -55 -183 -81 -250 -81
-48 0 -60 4 -91 31 -20 18 -42 44 -50 60 -21 40 -42 237 -60 554 -19 346 -48
672 -74 830 -23 136 -59 317 -65 323 -3 2 -9 -5 -14 -15z"/>
<path d="M4955 2329 c-439 -229 -549 -294 -588 -347 -68 -93 -81 -147 -26
-103 48 37 487 280 719 398 86 43 110 66 151 146 14 26 16 37 7 36 -7 0 -125
-59 -263 -130z"/>
<path d="M855 1698 c-11 -6 -26 -19 -33 -27 -23 -28 -72 -116 -72 -128 0 -32
144 -143 186 -143 41 0 114 98 114 155 0 37 -24 69 -83 108 -63 43 -86 50
-112 35z"/>
<path d="M4936 1514 c-3 -11 -10 -58 -16 -105 -14 -102 -10 -113 80 -259 81
-131 94 -164 81 -203 -24 -67 -153 -215 -266 -306 -132 -106 -283 -169 -455
-191 -46 -7 -87 -13 -91 -16 -10 -6 -95 25 -144 52 -75 42 -132 101 -167 171
-27 55 -33 80 -36 154 -5 94 -22 114 -22 26 0 -124 56 -252 151 -347 117 -116
358 -240 439 -225 88 16 256 133 410 286 95 95 104 108 165 232 72 145 90 215
83 317 -6 78 -30 136 -121 295 -79 138 -83 144 -91 119z"/>
<path d="M3690 715 c-25 -18 -108 -68 -185 -110 -262 -146 -318 -193 -332
-283 l-6 -36 49 37 c45 34 165 108 352 216 39 23 81 52 93 64 21 22 83 136 77
142 -2 2 -23 -11 -48 -30z"/>
</g>
</svg>
