<svg version="1.0" xmlns="http://www.w3.org/2000/svg" width="600.000000pt" height="353.000000pt" viewBox="0 0 600.000000 353.000000" preserveAspectRatio="xMidYMid meet" style="width: 2807.58px; height: auto;"> <g transform="translate(0.000000,353.000000) scale(0.100000,-0.100000)" fill="#000000" stroke="none"> <path d="M2894 3514 c-97 -35 -174 -140 -174 -240 0 -106 50 -189 146 -245 l56 -31 34 33 34 33 0 -121 0 -120 -82 -6 c-46 -4 -109 -7 -140 -7 -32 0 -58 -4 -58 -10 0 -6 100 -10 279 -10 154 0 286 -3 295 -6 10 -4 16 -1 16 8 0 16 -98 28 -222 28 l-58 0 0 124 c0 68 3 131 6 140 5 13 26 16 129 16 68 0 135 -4 149 -10 23 -8 26 -7 32 16 5 19 1 32 -15 47 -18 19 -35 22 -119 25 -53 2 -103 9 -110 15 -9 7 -16 5 -26 -9 -8 -10 -22 -30 -33 -43 l-19 -23 -31 35 c-31 36 -31 36 -50 15 -18 -20 -17 -21 22 -53 l40 -34 -24 -25 -24 -26 -49 27 c-70 38 -113 90 -128 153 -36 149 76 290 231 290 66 0 114 -18 166 -62 l38 -32 -40 42 c-68 73 -177 99 -271 66z m409 -381 c3 -5 -34 -7 -81 -5 -160 5 -178 8 -50 10 70 1 129 -1 131 -5z" class=""></path> <path d="M3220 3275 l-24 -26 26 -26 27 -27 20 25 c26 30 26 31 -2 57 l-23 22 -24 -25z"></path> <path d="M2300 3059 c-74 -12 -122 -34 -288 -128 -87 -50 -168 -91 -180 -91 -11 0 -33 5 -48 10 -38 15 -44 2 -11 -26 56 -48 136 -50 212 -5 19 11 80 55 135 96 150 114 229 144 304 115 17 -6 26 -6 26 0 0 23 -87 40 -150 29z"></path> <path d="M3614 3061 c-37 -9 -54 -19 -54 -31 0 -6 11 -5 26 0 75 29 140 4 293 -109 150 -112 161 -118 214 -132 34 -8 54 -8 81 1 43 14 86 47 86 65 0 12 -6 12 -35 -1 -19 -7 -42 -14 -51 -14 -10 0 -89 41 -176 91 -207 118 -303 150 -384 130z" class=""></path> <path d="M2562 3031 c-97 -28 -211 -89 -387 -207 -261 -175 -373 -242 -443 -265 -90 -29 -103 -43 -32 -35 135 17 293 87 558 247 199 121 275 160 366 188 157 48 234 18 282 -114 7 -18 8 -17 12 8 6 44 -46 127 -102 161 -61 38 -161 45 -254 17z"></path> <path d="M3232 3037 c-73 -27 -142 -115 -142 -182 0 -35 16 -31 24 6 3 17 15 44 27 60 78 110 251 71 579 -131 269 -165 453 -248 588 -266 55 -7 76 9 24 19 -77 16 -165 63 -400 219 -268 177 -396 248 -497 273 -70 18 -157 18 -203 2z" class=""></path> <path d="M1414 2854 c-45 -15 -59 -28 -78 -68 -20 -43 -20 -66 -1 -66 8 0 15 9 15 20 0 73 92 135 144 97 13 -10 15 -18 8 -37 -12 -31 -5 -50 17 -50 42 0 53 42 21 83 -24 30 -75 39 -126 21z"></path> <path d="M4493 2855 c-50 -21 -60 -97 -14 -103 30 -5 42 15 28 46 -9 20 -8 27 8 39 44 32 116 -10 137 -79 13 -45 44 -55 34 -10 -21 86 -117 139 -193 107z" class=""></path> <path d="M3345 2818 c-2 -7 -6 -30 -10 -50 -3 -21 -17 -50 -30 -65 -20 -24 -31 -28 -75 -28 -47 0 -55 3 -83 36 -18 19 -37 44 -44 55 -11 18 -12 18 -12 -3 -1 -36 53 -89 104 -102 98 -25 195 34 195 118 0 26 -5 41 -16 45 -22 8 -24 8 -29 -6z" class=""></path> <path d="M2627 2813 c-26 -26 13 -112 63 -138 41 -21 119 -21 164 0 34 16 66 58 66 85 0 21 -16 9 -27 -20 -17 -44 -68 -72 -123 -67 -55 6 -86 39 -95 102 -6 33 -12 45 -24 45 -10 0 -21 -3 -24 -7z"></path> <path d="M3448 2802 c-28 -5 -21 -22 10 -23 15 -1 73 -4 130 -8 83 -5 99 -4 85 6 -9 7 -30 15 -47 18 -44 6 -158 11 -178 7z"></path> <path d="M2360 2787 c-33 -10 -33 -11 -10 -15 40 -7 230 9 230 19 0 13 -177 10 -220 -4z"></path> <path d="M1540 2725 c-184 -19 -354 -36 -377 -38 -37 -4 -43 -2 -43 14 0 25 -30 25 -37 0 -7 -27 -40 -30 -136 -13 -78 14 -88 13 -163 -6 -44 -11 -98 -28 -119 -37 -37 -16 -38 -18 -18 -25 12 -5 58 -14 103 -20 90 -12 139 -6 229 30 61 24 97 26 105 5 8 -22 36 -18 36 5 0 14 7 20 23 20 65 0 830 81 845 89 29 18 -92 11 -448 -24z"></path> <path d="M4016 2751 c6 -6 186 -28 436 -53 381 -38 427 -44 431 -60 6 -22 33 -24 41 -3 8 21 33 19 107 -9 87 -32 142 -38 229 -26 139 19 141 26 24 65 -92 31 -146 35 -272 20 -68 -7 -74 -7 -88 14 -18 25 -46 28 -42 4 2 -14 -3 -17 -27 -15 -16 1 -169 16 -340 32 -392 39 -514 46 -499 31z" class=""></path> <path d="M1330 2647 c0 -54 119 -134 186 -125 32 5 25 9 -46 28 -46 13 -110 68 -110 96 0 8 -7 14 -15 14 -8 0 -15 -6 -15 -13z"></path> <path d="M4637 2628 c-23 -43 -76 -78 -126 -85 -48 -7 -55 -23 -11 -23 63 0 137 45 166 102 17 33 17 38 1 38 -7 0 -20 -15 -30 -32z"></path> <path d="M1566 2554 c-9 -8 -16 -22 -16 -29 0 -14 26 -45 38 -45 17 0 52 33 52 49 0 38 -45 54 -74 25z"></path> <path d="M4382 2558 c-29 -29 7 -86 46 -74 28 9 35 35 17 62 -17 26 -44 31 -63 12z"></path> <path d="M3182 2523 c-34 -14 -399 -150 -810 -303 -738 -274 -747 -277 -764 -311 -26 -54 -53 -138 -46 -145 4 -3 130 43 280 104 338 137 705 281 1078 422 157 60 292 111 301 114 16 7 69 107 69 131 0 21 -34 17 -108 -12z"></path> <path d="M1087 2523 c-2 -10 -16 -58 -31 -107 l-26 -88 34 -87 c41 -102 78 -267 109 -481 l23 -154 54 -33 c30 -18 59 -32 64 -33 5 0 6 19 3 43 -3 23 -13 121 -22 217 -25 277 -76 498 -158 683 -27 59 -41 70 -50 40z"></path> <path d="M3673 2528 c-6 -7 -28 -53 -48 -102 -36 -87 -36 -90 -21 -125 8 -20 24 -85 35 -146 19 -103 111 -631 129 -740 8 -47 9 -50 37 -48 50 3 105 25 105 42 0 19 -76 472 -96 574 -9 43 -13 81 -10 85 4 3 19 -6 34 -20 34 -32 70 -51 81 -43 17 10 -18 93 -172 415 -59 122 -61 125 -74 108z" class=""></path> <path d="M4017 2533 c-13 -21 -77 -197 -77 -211 0 -8 6 -23 14 -31 8 -9 27 -109 46 -241 18 -124 61 -387 95 -585 35 -198 66 -384 70 -412 5 -37 11 -53 22 -53 15 0 112 38 125 50 4 3 -1 55 -12 115 -81 438 -170 931 -170 941 0 4 27 -19 61 -51 115 -110 101 -47 -69 308 -80 166 -94 189 -105 170z"></path> <path d="M5024 2528 c-47 -12 -120 -82 -139 -133 -29 -75 -7 -126 78 -180 l28 -18 -73 -74 c-72 -74 -73 -75 -33 -58 46 18 105 57 131 86 22 24 26 24 62 -6 l30 -25 21 29 c31 44 37 87 15 100 -52 30 -56 37 -45 79 13 48 17 139 8 168 -10 29 -45 43 -83 32z m22 -152 c3 -19 2 -41 -3 -50 -7 -13 -14 -11 -51 12 -49 31 -53 55 -15 76 37 19 60 5 69 -38z"></path> <path d="M5302 2448 c-28 -113 -34 -169 -19 -191 7 -12 25 -56 40 -97 14 -41 69 -163 121 -272 53 -108 96 -203 96 -210 0 -8 -13 -27 -30 -43 -16 -16 -30 -32 -30 -35 0 -8 80 -53 85 -49 13 14 46 140 51 196 10 102 -8 164 -96 339 -44 87 -78 159 -76 161 1 2 24 -4 50 -13 26 -9 50 -14 53 -11 10 11 -206 267 -227 267 -4 0 -12 -19 -18 -42z"></path> <path d="M4520 2461 c-14 -28 -40 -146 -40 -187 0 -18 16 -60 39 -100 21 -38 73 -129 115 -203 42 -74 76 -142 76 -152 0 -27 -109 -119 -254 -216 -72 -49 -132 -88 -134 -89 -5 -2 31 -159 39 -168 11 -13 224 151 300 231 97 103 119 164 119 334 0 103 -19 163 -80 258 -22 34 -40 63 -40 66 0 2 18 -4 40 -12 77 -31 65 -5 -67 145 -47 53 -89 101 -93 106 -5 4 -13 -2 -20 -13z" class=""></path> <path d="M3420 2008 c-55 -89 -110 -338 -110 -495 1 -331 135 -478 412 -453 75 7 279 64 317 89 11 7 10 24 -4 105 -15 82 -20 96 -34 91 -119 -49 -153 -58 -236 -62 -216 -13 -332 65 -366 245 -15 84 -6 240 22 352 31 126 37 160 28 160 -5 0 -18 -15 -29 -32z" class=""></path> <path d="M4990 1790 l0 -110 108 -108 c154 -154 241 -214 497 -340 88 -44 188 -99 223 -122 59 -40 112 -100 112 -127 0 -24 -141 -116 -495 -324 -387 -226 -612 -329 -719 -329 -53 0 -104 32 -129 80 -15 29 -18 51 -14 126 4 73 14 117 53 232 l47 142 96 51 c110 58 483 280 521 310 22 17 23 21 9 29 -8 5 -42 29 -74 52 l-60 44 -150 -86 c-134 -78 -358 -191 -577 -294 -94 -44 -317 -136 -329 -136 -5 0 -28 -9 -52 -20 -23 -10 -94 -38 -157 -60 -170 -61 -320 -122 -320 -130 0 -10 32 -6 270 31 352 56 593 107 682 144 45 19 83 33 85 32 1 -2 -15 -46 -36 -98 -66 -161 -85 -254 -86 -409 0 -126 2 -138 25 -180 30 -53 93 -90 155 -90 118 0 371 120 800 378 455 275 498 320 512 543 12 189 -41 261 -277 376 -80 39 -156 74 -170 78 -52 15 -195 111 -307 206 l-32 27 40 7 c21 4 39 11 39 16 0 21 -238 169 -272 169 -16 0 -18 -11 -18 -110z" stroke-width="1"></path> <path d="M750 1766 l0 -114 108 -110 c133 -136 214 -193 417 -293 251 -124 296 -150 352 -205 81 -77 78 -85 -72 -188 -69 -48 -196 -126 -282 -175 -87 -48 -203 -114 -257 -145 -227 -131 -509 -260 -746 -341 -71 -25 -158 -58 -192 -75 l-63 -30 130 6 c227 9 398 24 457 39 157 41 433 188 814 433 237 153 248 162 291 250 38 76 38 76 38 201 0 111 -3 131 -22 167 -32 60 -97 112 -204 165 -52 26 -147 72 -212 104 -110 54 -245 143 -310 204 l-29 26 33 5 c48 7 46 25 -5 62 -72 52 -208 128 -228 128 -16 0 -18 -11 -18 -114z"></path> <path d="M2734 1555 l-52 -95 110 -65 c61 -36 112 -64 113 -63 12 14 107 190 104 192 -10 10 -210 126 -217 126 -4 0 -30 -43 -58 -95z"></path> <path d="M2324 1545 c-25 -39 -15 -125 25 -212 38 -81 33 -103 -19 -103 -51 0 -70 27 -81 115 -11 85 -23 142 -41 189 l-12 29 -18 -23 c-22 -28 -23 -63 -1 -162 15 -73 15 -81 0 -113 -35 -73 -109 -87 -140 -25 -15 29 -16 52 -12 140 4 58 2 111 -3 118 -12 17 -35 7 -60 -27 -33 -45 -37 -77 -13 -98 18 -15 21 -29 21 -101 0 -131 33 -192 106 -192 51 0 97 34 116 85 15 43 22 44 38 5 15 -37 50 -60 93 -60 39 0 58 17 86 80 29 64 26 130 -10 220 -16 41 -32 94 -36 118 -7 48 -16 52 -39 17z"></path> <path d="M1244 1148 c3 -13 13 -99 22 -193 10 -93 18 -171 19 -173 1 -1 29 13 62 33 l60 35 -17 131 c-10 71 -19 131 -21 133 -8 8 -113 56 -121 56 -5 0 -6 -10 -4 -22z"></path> <path d="M5234 1126 c-39 -17 -68 -58 -84 -115 -13 -51 -9 -59 22 -37 29 20 82 21 102 0 39 -38 9 -103 -113 -248 -97 -116 -102 -124 -62 -100 119 70 253 248 274 364 8 41 -6 107 -25 127 -21 20 -79 25 -114 9z"></path> <path d="M906 1099 c-32 -25 -52 -62 -61 -112 -6 -30 -4 -37 8 -37 9 0 18 4 21 9 9 14 58 20 82 9 64 -30 31 -108 -118 -281 -38 -44 -66 -82 -64 -85 17 -16 161 118 219 202 53 79 77 144 77 212 0 45 -4 59 -25 79 -32 33 -100 35 -139 4z"></path> <path d="M3902 1015 c-74 -23 -70 -17 -60 -81 5 -32 10 -60 12 -61 1 -2 31 7 65 18 61 21 63 22 57 52 -3 16 -6 42 -6 58 0 32 -6 34 -68 14z"></path> <path d="M2954 946 c-160 -51 -346 -236 -493 -488 -31 -53 -59 -97 -63 -98 -15 -1 -95 69 -121 106 -20 29 -31 59 -36 102 -4 34 -11 65 -15 69 -14 14 -42 -15 -108 -113 -106 -159 -177 -201 -326 -192 -61 3 -89 11 -131 33 -49 27 -151 125 -151 146 0 5 -5 9 -11 9 -15 0 -139 -73 -139 -83 0 -4 15 -38 33 -75 20 -43 55 -91 97 -133 86 -88 147 -112 280 -113 85 -1 102 2 158 28 71 33 151 112 192 189 24 44 40 60 40 37 0 -26 48 -107 91 -155 l49 -53 -15 -42 c-36 -101 -2 -137 45 -47 17 32 30 46 40 43 8 -3 49 -17 90 -32 63 -23 97 -27 215 -32 288 -10 752 51 959 125 151 54 222 105 269 190 26 48 60 163 70 236 6 41 1 43 -61 31 -31 -6 -31 -7 -29 -64 3 -72 -11 -89 -108 -135 -103 -49 -373 -128 -363 -106 2 3 23 46 47 94 59 116 65 179 27 263 -36 79 -150 190 -242 235 -61 30 -79 34 -159 36 -54 2 -106 -3 -131 -11z m214 -242 c81 -39 198 -146 221 -202 12 -29 12 -35 -5 -53 -39 -43 -237 -122 -389 -154 -163 -36 -404 -29 -498 13 l-37 17 56 75 c112 148 253 275 351 317 102 42 195 38 301 -13z" class="" stroke-width="1"></path> <path d="M4283 697 c-62 -12 -61 -6 -38 -162 9 -55 19 -170 25 -255 5 -86 12 -163 16 -173 31 -81 95 177 93 378 -1 151 -10 219 -29 221 -8 1 -39 -3 -67 -9z"></path> </g> </svg>