<?xml version="1.0" standalone="no"?>
<!DOCTYPE svg PUBLIC "-//W3C//DTD SVG 20010904//EN"
 "http://www.w3.org/TR/2001/REC-SVG-20010904/DTD/svg10.dtd">
<svg version="1.0" xmlns="http://www.w3.org/2000/svg"
 width="600.000000pt" height="183.000000pt" viewBox="0 0 600.000000 183.000000"
 preserveAspectRatio="xMidYMid meet">
<g transform="translate(0.000000,183.000000) scale(0.100000,-0.100000)"
fill="#000000" stroke="none">
<path d="M4365 1771 c-48 -29 -67 -57 -72 -104 -5 -41 -3 -46 31 -73 20 -16
36 -32 36 -36 0 -12 -136 -106 -265 -184 -149 -89 -140 -82 -133 -89 9 -9 179
60 246 99 34 21 92 65 127 98 41 38 70 58 80 54 20 -7 19 -22 -6 -92 -28 -79
-31 -174 -5 -203 38 -42 77 -17 102 65 8 26 12 49 10 51 -2 2 -14 -10 -26 -26
-25 -36 -45 -39 -60 -12 -17 32 -11 91 15 166 29 80 31 113 10 121 -12 5 -14
19 -9 73 10 104 -15 133 -81 92z m35 -97 l0 -35 -30 18 c-43 25 -40 53 7 53
20 0 23 -5 23 -36z"/>
<path d="M5070 1686 c-151 -56 -309 -115 -351 -131 -67 -25 -78 -32 -89 -62
-6 -19 -10 -36 -8 -38 2 -3 122 43 267 100 144 58 266 105 271 105 5 0 0 -25
-10 -55 -29 -85 -34 -136 -16 -179 14 -33 19 -37 47 -34 25 2 36 11 50 38 9
19 20 49 24 65 l6 30 -30 -32 c-18 -20 -36 -31 -45 -27 -31 12 -31 106 -1 180
10 24 24 35 74 53 58 21 98 57 89 80 -1 5 -127 -37 -278 -93z"/>
<path d="M3704 1766 c-3 -8 0 -32 6 -55 15 -55 7 -65 -46 -57 -37 5 -45 2 -59
-16 -14 -21 -22 -98 -9 -98 3 0 15 11 25 25 17 21 24 23 46 14 19 -7 35 -6 54
1 35 15 80 -10 72 -39 -6 -25 17 -39 29 -17 6 11 23 16 55 16 102 0 163 40
163 107 0 66 -46 113 -110 113 -24 0 -68 -46 -94 -98 l-22 -43 -26 20 c-14 11
-35 47 -48 81 -24 64 -27 68 -36 46z m281 -100 c18 -13 18 -14 -3 -25 -13 -7
-46 -15 -74 -18 -54 -7 -56 -3 -20 40 18 20 71 23 97 3z"/>
<path d="M5749 1742 c-31 -28 -42 -47 -46 -79 -5 -40 -3 -45 31 -77 l37 -33
-46 -40 c-25 -21 -116 -81 -201 -133 -86 -52 -151 -96 -145 -98 22 -7 206 72
276 119 40 27 91 69 115 95 38 42 44 45 58 31 14 -14 13 -24 -8 -94 -40 -132
-28 -213 30 -213 24 0 33 7 48 38 11 20 22 51 26 67 l7 30 -32 -35 -32 -34
-19 24 c-17 21 -19 34 -14 77 3 29 15 75 26 103 24 60 25 93 6 109 -11 10 -13
28 -9 81 4 49 2 74 -7 85 -21 26 -58 17 -101 -23z m60 -54 c9 -24 4 -48 -9
-48 -4 0 -18 8 -31 19 -20 16 -21 21 -10 35 19 23 40 20 50 -6z"/>
<path d="M2475 1656 c-612 -204 -1175 -419 -1213 -464 -23 -28 -37 -60 -29
-68 2 -2 76 24 163 60 207 83 464 176 973 351 405 139 414 143 432 176 23 43
23 49 2 48 -10 0 -157 -47 -328 -103z"/>
<path d="M650 1689 c-25 -41 -65 -167 -56 -177 4 -3 18 7 31 23 l23 30 11 -28
c16 -40 48 -204 66 -337 8 -63 18 -130 21 -147 3 -18 2 -33 -1 -33 -10 0 -120
77 -133 93 -10 12 -9 16 8 20 11 3 20 9 20 14 0 12 -164 113 -185 113 -3 0 -5
-35 -5 -77 l0 -77 88 -85 c71 -69 174 -144 223 -163 10 -4 50 -371 41 -379
-11 -10 -327 -176 -537 -282 -262 -132 -260 -130 -100 -121 102 5 144 11 195
31 73 27 211 100 343 179 138 84 122 83 153 17 54 -114 181 -209 330 -247 319
-81 756 -23 1103 146 98 48 125 58 132 47 5 -8 9 -19 9 -25 0 -6 12 -28 26
-49 21 -32 24 -42 15 -62 -14 -30 -14 -63 -1 -63 5 0 17 14 26 31 17 33 16 33
94 3 102 -40 546 -9 721 51 157 53 195 109 224 325 3 25 -2 113 -10 195 -14
129 -83 622 -102 724 l-6 34 31 -21 c41 -30 52 -28 42 6 -14 47 -132 302 -140
302 -4 0 -19 -27 -34 -61 -19 -45 -23 -65 -16 -79 5 -10 17 -62 25 -117 9 -54
34 -207 55 -339 83 -509 107 -746 80 -779 -25 -30 -208 -95 -267 -95 l-22 0
26 46 c60 107 51 168 -40 259 -170 169 -362 105 -552 -184 l-59 -90 -23 20
c-12 12 -27 43 -34 70 -7 27 -16 49 -19 49 -4 0 -53 -24 -111 -54 -123 -65
-306 -127 -479 -163 -112 -24 -148 -27 -335 -27 -174 -1 -223 2 -285 18 -140
35 -246 100 -311 189 -16 22 -29 43 -29 48 0 4 30 28 66 54 85 61 117 123 118
229 0 124 -35 166 -201 243 -40 19 -73 36 -73 40 0 3 -9 85 -21 182 -38 327
-78 509 -118 545 -19 18 -21 17 -41 -15z m273 -911 c69 -37 137 -97 137 -121
0 -22 -170 -133 -180 -117 -4 7 -11 44 -14 84 -4 39 -9 97 -13 129 -3 31 -2
57 2 57 4 0 35 -15 68 -32z m2072 -295 c60 -20 179 -130 173 -159 -4 -24 -109
-77 -198 -101 -86 -24 -309 -25 -359 -3 l-33 15 55 71 c79 101 146 153 232
180 54 17 73 17 130 -3z"/>
<path d="M1056 1640 c-86 -189 -82 -380 8 -380 34 0 71 48 86 110 7 28 10 53
7 56 -2 3 -15 -11 -27 -30 -15 -25 -29 -36 -46 -36 -52 0 -56 93 -9 254 14 49
24 93 22 99 -1 5 -20 -27 -41 -73z"/>
<path d="M3015 1524 c-29 -29 -49 -78 -75 -189 l-27 -110 -13 57 c-16 69 -67
165 -101 190 -46 34 -69 28 -102 -25 l-29 -48 23 -26 c30 -31 59 -43 80 -32
11 6 21 3 32 -9 21 -23 75 -162 83 -212 4 -22 10 -40 14 -40 14 0 39 66 55
141 32 152 58 219 87 219 5 0 20 -12 33 -26 28 -31 42 -25 51 20 13 74 -64
137 -111 90z"/>
<path d="M3636 1409 c-20 -53 -24 -75 -16 -84 6 -8 17 -58 25 -112 8 -54 34
-220 59 -370 53 -317 86 -562 86 -637 0 -70 10 -118 23 -113 6 2 17 26 24 53
23 89 26 202 9 344 -15 125 -99 643 -113 700 -6 25 -6 24 31 -7 20 -18 41 -33
46 -33 6 0 -1 28 -14 63 -23 63 -123 267 -130 267 -2 0 -16 -32 -30 -71z"/>
<path d="M4682 1330 c-24 -80 -24 -108 1 -152 14 -24 39 -70 57 -103 18 -33
50 -90 72 -128 23 -41 37 -75 34 -85 -12 -35 -219 -179 -361 -249 -225 -112
-370 -107 -432 17 -31 59 -31 184 -3 294 20 75 20 107 -1 76 -21 -33 -60 -176
-68 -252 -30 -267 84 -394 311 -347 152 31 489 246 563 357 15 23 28 65 35
109 14 90 -1 150 -59 240 -21 33 -44 70 -50 82 -11 19 -10 20 15 11 52 -20 41
2 -59 115 l-44 49 -11 -34z"/>
<path d="M2040 1252 c-26 -26 -56 -100 -45 -111 3 -2 16 1 30 7 40 18 63 14
81 -13 15 -23 15 -27 -5 -68 -12 -24 -55 -84 -95 -133 -41 -49 -73 -91 -70
-93 2 -2 28 15 59 38 151 114 240 315 169 385 -26 27 -91 21 -124 -12z"/>
<path d="M5067 1223 c-3 -5 -10 -34 -16 -65 -8 -46 -7 -63 4 -85 8 -15 15 -32
15 -37 0 -6 32 -79 72 -164 l72 -155 -39 -34 c-145 -126 -560 -342 -930 -484
-132 -50 -244 -96 -249 -100 -17 -15 29 -10 277 31 238 40 244 42 356 95 116
56 311 167 414 237 31 21 57 36 57 33 0 -3 -9 -36 -19 -74 -39 -139 -36 -256
7 -304 27 -31 82 -39 143 -21 76 22 241 107 429 219 289 174 317 203 327 340
5 62 2 80 -16 119 -25 51 -69 82 -231 159 -110 53 -249 150 -222 155 35 8 33
21 -10 50 -42 28 -122 72 -133 72 -3 0 -5 -33 -5 -73 l0 -73 73 -70 c89 -88
130 -116 294 -198 136 -70 213 -125 213 -156 0 -20 -69 -67 -305 -205 -211
-124 -362 -195 -428 -202 -47 -5 -57 -2 -83 20 -27 24 -29 30 -28 94 2 86 24
150 79 233 52 78 79 164 73 231 -3 31 -24 88 -57 155 -28 59 -50 109 -48 111
2 2 16 -1 31 -6 40 -16 33 1 -34 78 -65 75 -76 85 -83 74z"/>
<path d="M3147 1143 c-65 -127 -94 -294 -64 -365 18 -42 52 -57 87 -38 24 13
54 74 64 130 l6 35 -31 -37 c-86 -105 -118 30 -54 230 15 46 24 86 21 89 -2 3
-16 -17 -29 -44z"/>
<path d="M2520 1053 c-7 -16 -23 -51 -36 -80 l-23 -51 82 -56 c46 -31 87 -56
92 -56 16 0 75 114 75 143 0 21 -14 35 -76 76 -42 28 -81 51 -88 51 -7 0 -19
-12 -26 -27z"/>
<path d="M4307 979 c-19 -11 -47 -60 -47 -83 0 -12 5 -12 29 -3 23 8 33 8 45
-2 31 -26 21 -47 -98 -199 -19 -24 -19 -25 0 -14 32 17 120 116 143 160 49 97
4 185 -72 141z"/>
<path d="M1315 927 c-8 -13 -18 -37 -21 -55 -6 -29 -1 -37 64 -104 39 -39 83
-97 99 -127 25 -50 28 -66 27 -146 0 -64 -5 -99 -17 -122 -22 -42 -22 -60 0
-42 37 31 57 100 61 220 5 140 -9 198 -69 288 -36 54 -98 111 -121 111 -4 0
-14 -10 -23 -23z"/>
<path d="M387 853 c-65 -127 -94 -294 -64 -365 29 -68 94 -60 127 15 23 52 38
133 19 102 -38 -64 -79 -82 -100 -43 -17 32 -5 148 26 246 15 46 24 86 21 89
-2 3 -16 -17 -29 -44z"/>
<path d="M5462 760 c-20 -9 -52 -63 -52 -89 0 -5 12 -5 30 2 25 9 33 9 46 -5
23 -23 12 -56 -38 -118 -24 -29 -52 -64 -62 -78 -20 -25 -20 -25 1 -13 40 21
111 101 137 153 33 66 34 121 4 142 -25 18 -33 19 -66 6z"/>
<path d="M2062 688 c-20 -20 -13 -89 13 -147 26 -55 22 -81 -11 -81 -23 0 -54
38 -54 66 0 41 -31 164 -41 164 -21 0 -27 -48 -14 -110 15 -71 9 -99 -27 -124
-33 -23 -45 -20 -64 15 -12 24 -14 47 -10 98 8 85 -2 104 -38 68 -29 -29 -33
-58 -11 -77 11 -9 15 -32 15 -82 0 -60 3 -72 25 -93 13 -14 34 -25 45 -25 22
0 73 43 82 70 4 12 10 9 27 -12 42 -52 91 -44 117 17 20 50 17 90 -14 183 -22
64 -31 79 -40 70z"/>
</g>
</svg>
