<?xml version="1.0" standalone="no"?>
<!DOCTYPE svg PUBLIC "-//W3C//DTD SVG 20010904//EN"
 "http://www.w3.org/TR/2001/REC-SVG-20010904/DTD/svg10.dtd">
<svg version="1.0" xmlns="http://www.w3.org/2000/svg"
 width="2400.000000pt" height="476.000000pt" viewBox="0 0 2400.000000 476.000000"
 preserveAspectRatio="xMidYMid meet">
<g transform="translate(0.000000,476.000000) scale(0.100000,-0.100000)"
fill="#000000" stroke="none">
<path d="M2478 4652 c-16 -9 -28 -20 -28 -24 0 -6 -21 -21 -135 -94 -16 -10
-41 -24 -55 -31 -14 -7 -32 -17 -40 -22 -8 -6 -73 -43 -143 -83 -132 -75 -146
-84 -215 -131 -62 -43 -125 -142 -126 -196 -1 -69 21 -75 78 -20 56 53 101 89
114 89 5 0 17 9 27 20 10 11 24 20 31 20 7 0 19 6 26 13 27 25 95 67 109 67 8
0 21 6 27 12 12 12 115 72 172 100 89 45 173 130 194 196 4 11 13 26 21 32 8
7 15 25 15 41 0 35 -28 39 -72 11z"/>
<path d="M23020 3938 c-6 -24 -16 -54 -22 -68 -22 -49 -37 -182 -28 -245 5
-33 14 -94 19 -135 6 -41 15 -109 21 -150 5 -41 14 -115 19 -165 16 -144 31
-254 47 -345 9 -47 20 -136 25 -199 5 -63 13 -130 19 -150 19 -74 50 -290 60
-421 5 -74 14 -151 20 -170 5 -19 13 -80 16 -135 3 -55 12 -129 20 -165 34
-151 -84 -248 -206 -169 -25 16 -56 34 -70 41 -52 26 -126 83 -165 125 -43 48
-124 187 -125 214 0 9 -9 45 -20 79 -11 34 -20 90 -20 124 0 33 -9 135 -20
226 -11 91 -20 190 -20 221 0 31 -7 95 -15 142 -8 48 -20 153 -25 234 -6 81
-15 164 -20 183 -6 19 -12 91 -16 160 -3 69 -12 175 -20 235 -8 61 -18 153
-22 205 l-7 95 -31 3 c-39 4 -46 -6 -74 -97 -25 -81 -25 -314 0 -391 6 -19 15
-84 21 -145 5 -60 14 -126 20 -145 5 -19 14 -117 19 -216 5 -100 16 -217 24
-260 8 -44 17 -164 20 -269 4 -104 11 -219 16 -254 38 -230 -10 -423 -126
-503 -60 -42 -138 -78 -168 -78 -40 0 -181 144 -196 200 -15 56 -50 112 -67
108 -28 -6 -52 -106 -53 -218 0 -58 -4 -111 -9 -119 -24 -37 -246 41 -292 103
-20 26 -21 33 -10 75 7 25 15 56 18 68 4 18 0 23 -21 29 -28 7 -56 -9 -56 -32
0 -8 -9 -40 -20 -71 -11 -32 -20 -66 -20 -77 0 -32 -50 -101 -91 -124 -57 -33
-244 -59 -316 -44 -78 16 -86 25 -78 88 9 76 -23 81 -92 14 -63 -59 -372 -116
-490 -89 -95 21 -157 131 -167 294 -4 61 -11 137 -16 170 -5 33 -14 177 -20
320 -5 143 -14 298 -20 345 -5 47 -14 177 -20 290 -5 113 -14 221 -20 240 -6
19 -15 90 -20 158 -6 67 -15 133 -20 146 -5 13 -14 67 -19 121 -6 53 -15 104
-20 114 -5 9 -12 50 -16 91 -10 126 -13 136 -41 149 -34 15 -51 1 -60 -48 -3
-20 -12 -56 -20 -80 -19 -61 -18 -143 5 -215 24 -79 39 -151 52 -256 5 -47 16
-131 25 -186 8 -56 19 -177 24 -270 6 -93 15 -212 20 -264 6 -52 15 -256 20
-452 6 -197 14 -388 20 -425 5 -38 14 -108 19 -157 6 -49 17 -110 25 -135 8
-25 17 -57 20 -71 13 -58 131 -165 232 -209 55 -25 90 -26 167 -6 32 8 68 15
80 15 12 1 40 8 62 17 32 13 92 18 300 23 299 7 314 10 406 101 60 59 81 61
159 18 139 -77 257 -91 310 -37 39 39 65 97 74 164 13 89 36 96 83 23 95 -146
154 -194 232 -187 72 7 153 81 176 160 3 12 13 37 20 53 16 34 40 128 59 228
8 37 17 71 21 75 13 13 53 -47 60 -89 22 -128 170 -316 275 -347 19 -6 53 -18
75 -26 26 -10 76 -15 144 -16 l105 0 43 46 c24 26 43 56 43 67 0 12 9 60 19
107 17 73 40 212 43 260 3 39 -25 427 -38 525 -8 61 -16 153 -19 205 -3 52
-14 158 -25 235 -19 135 -29 226 -50 440 -6 55 -14 141 -19 190 -5 50 -17 126
-26 171 l-17 80 26 56 c14 30 26 64 26 74 0 11 6 28 13 39 25 37 49 114 42
135 -4 12 -33 53 -66 92 -33 39 -62 83 -66 97 -17 72 -76 84 -93 19z"/>
<path d="M17191 3912 c-8 -16 -15 -80 -33 -347 -2 -24 25 -257 38 -338 8 -48
19 -147 24 -219 6 -72 15 -150 20 -174 6 -24 15 -105 20 -181 6 -76 15 -156
20 -178 6 -22 15 -119 20 -215 6 -96 15 -200 20 -230 5 -30 14 -137 20 -238 5
-101 13 -188 16 -194 4 -6 10 -94 13 -195 6 -193 10 -207 53 -195 50 13 53 33
51 362 -1 168 -7 343 -12 390 -6 47 -15 144 -21 215 -6 72 -15 177 -20 235 -6
58 -15 159 -21 225 -6 66 -17 157 -25 201 -8 45 -19 133 -24 195 -6 63 -17
149 -25 193 -8 43 -15 102 -15 131 0 30 -7 87 -16 127 -9 40 -19 145 -22 234
-7 165 -12 183 -53 205 -14 7 -21 5 -28 -9z"/>
<path d="M23505 3920 c-3 -5 -10 -47 -14 -92 -5 -46 -15 -127 -22 -180 -10
-78 -10 -114 0 -180 6 -46 16 -119 21 -163 5 -44 14 -118 20 -165 32 -271 47
-408 60 -555 6 -60 17 -160 26 -221 8 -61 19 -190 24 -285 5 -96 16 -232 25
-304 8 -71 15 -166 16 -210 0 -95 23 -327 33 -343 15 -24 55 -14 61 16 3 15
13 57 21 95 18 73 15 268 -5 437 -6 47 -15 175 -20 285 -6 110 -15 225 -20
255 -6 30 -15 132 -20 225 -6 94 -14 183 -20 197 -6 15 -15 85 -21 155 -6 70
-15 144 -20 163 -5 19 -12 82 -16 140 -3 58 -12 132 -19 165 -8 33 -16 101
-19 150 -8 119 -35 340 -47 388 -9 35 -31 49 -44 27z"/>
<path d="M452 3895 c-38 -49 -50 -414 -18 -577 9 -47 21 -144 26 -215 6 -70
15 -144 20 -163 6 -19 15 -98 21 -175 5 -77 14 -156 19 -175 5 -19 14 -112 20
-207 5 -94 14 -182 19 -196 5 -13 14 -114 20 -223 6 -109 15 -233 20 -274 5
-41 12 -156 16 -255 8 -230 7 -225 50 -225 44 0 55 20 55 101 0 34 5 102 12
150 9 69 9 103 -1 155 -6 37 -16 173 -21 303 -5 130 -14 263 -20 296 -5 33
-14 125 -19 205 -6 80 -15 168 -20 195 -6 28 -15 104 -21 170 -6 66 -17 158
-25 205 -14 83 -26 184 -46 385 -5 55 -14 136 -20 180 -6 44 -15 136 -19 205
-11 167 -23 192 -68 135z"/>
<path d="M11135 3882 c-16 -8 -33 -20 -37 -27 -4 -7 -38 -32 -75 -56 -79 -51
-79 -52 -198 -119 -49 -28 -97 -55 -105 -61 -8 -5 -31 -17 -50 -25 -19 -9 -37
-19 -40 -23 -3 -4 -27 -20 -55 -36 -73 -42 -131 -92 -166 -143 -35 -51 -63
-127 -55 -148 9 -24 62 -17 84 11 28 35 111 103 147 121 17 7 62 34 100 58 39
25 93 56 120 70 28 14 66 35 85 48 19 12 56 33 83 47 57 31 125 95 144 136 8
17 25 48 38 70 42 68 32 103 -20 77z"/>
<path d="M2162 3742 c-45 -94 -47 -298 -7 -512 8 -41 19 -137 25 -214 6 -76
15 -157 20 -180 5 -22 11 -95 15 -161 3 -66 13 -167 20 -225 18 -131 39 -634
30 -715 -10 -82 -44 -153 -96 -198 -24 -21 -51 -44 -59 -51 -8 -7 -26 -17 -40
-21 -14 -4 -33 -15 -44 -24 -50 -44 -134 -17 -238 76 -79 71 -122 42 -121 -82
1 -98 90 -255 143 -255 17 0 11 -51 -12 -94 -53 -98 -232 -297 -354 -393 -57
-44 -203 -143 -228 -154 -12 -5 -28 -13 -36 -18 -32 -20 -101 -51 -113 -51 -7
0 -25 -7 -42 -16 -29 -16 -73 -24 -227 -44 -63 -9 -96 -7 -170 6 -51 9 -140
17 -198 18 l-105 1 -3 -26 c-3 -25 0 -27 49 -33 28 -4 61 -13 73 -21 11 -7 41
-16 66 -20 25 -3 65 -12 90 -20 25 -7 65 -16 90 -19 25 -3 59 -12 75 -20 17
-9 44 -16 61 -16 17 0 60 -9 94 -20 135 -43 252 -21 373 69 136 102 219 172
281 235 69 72 176 207 176 224 0 5 9 17 20 27 11 10 20 24 20 32 0 8 8 31 19
51 38 76 60 129 77 190 21 77 21 77 115 77 73 0 77 1 123 38 62 51 124 185
142 307 4 25 12 56 19 70 7 14 16 44 20 67 4 24 11 45 15 48 12 7 30 -28 30
-57 0 -13 7 -33 15 -44 8 -10 15 -26 15 -34 0 -8 11 -37 25 -65 13 -27 25 -55
25 -61 0 -17 113 -136 158 -168 51 -35 261 -56 374 -37 37 6 79 11 94 11 28 0
193 78 279 132 66 41 128 81 140 91 10 8 53 37 85 56 8 5 38 19 65 31 28 13
63 29 78 36 37 18 183 18 233 0 22 -7 59 -17 84 -21 25 -4 65 -16 89 -27 65
-29 123 -29 156 2 33 31 85 107 85 124 0 7 9 25 20 39 45 57 5 87 -135 101
-73 7 -221 42 -292 68 -146 53 -171 63 -209 80 -22 10 -45 18 -51 18 -6 0 -16
7 -23 15 -7 8 -19 15 -28 15 -8 0 -38 11 -66 24 -311 149 -503 150 -658 4 -97
-93 -186 -305 -164 -393 9 -36 30 -31 50 13 52 117 100 170 185 208 62 28 89
29 157 10 27 -8 71 -17 98 -21 27 -4 63 -12 80 -19 48 -20 127 -46 171 -57 71
-18 76 -61 11 -88 -24 -11 -68 -31 -98 -45 -30 -14 -59 -26 -64 -26 -5 0 -22
-7 -39 -16 -43 -23 -130 -53 -200 -69 -33 -8 -73 -18 -88 -24 -64 -24 -216 7
-242 49 -3 6 -33 24 -66 40 -103 52 -189 161 -242 305 -27 73 -51 243 -67 480
-5 77 -14 163 -20 190 -5 28 -15 117 -20 200 -6 82 -15 165 -20 185 -5 20 -14
110 -20 200 -6 90 -15 181 -20 201 -6 20 -14 114 -18 210 -10 195 -24 249 -64
249 -17 -1 -29 -12 -46 -48z"/>
<path d="M1485 3676 c-17 -18 -46 -42 -64 -52 -62 -35 -71 -41 -89 -57 -10
-10 -24 -17 -30 -17 -6 0 -17 -6 -25 -14 -8 -8 -29 -22 -48 -30 -19 -9 -41
-20 -49 -25 -8 -6 -49 -29 -90 -52 -103 -57 -210 -129 -237 -159 -106 -117
-110 -241 -5 -153 91 75 225 160 369 233 23 12 57 32 75 44 18 12 41 25 51 29
71 27 207 162 207 206 0 5 9 20 21 35 44 56 -36 67 -86 12z"/>
<path d="M16731 3663 c-7 -27 -17 -75 -23 -108 -5 -33 -16 -81 -24 -107 -18
-59 -18 -105 0 -154 7 -22 16 -82 20 -134 3 -53 13 -127 21 -165 8 -39 15 -95
15 -125 0 -31 6 -80 14 -110 8 -30 19 -111 25 -180 6 -69 15 -139 20 -157 5
-17 12 -67 16 -110 4 -43 11 -94 16 -113 5 -19 16 -79 24 -133 9 -55 19 -107
25 -116 5 -10 12 -42 15 -72 4 -30 13 -84 21 -120 21 -102 22 -308 1 -339 -21
-32 -81 -61 -179 -88 l-76 -22 -49 21 c-163 69 -174 78 -336 280 -60 75 -87
100 -126 119 l-50 23 -42 -29 c-74 -51 -239 -290 -239 -346 0 -33 -112 -144
-155 -154 -16 -4 -41 -14 -54 -23 -35 -23 -312 -21 -357 2 -16 8 -46 18 -67
22 -23 5 -53 23 -82 49 -44 42 -45 43 -45 107 0 44 6 75 19 100 11 20 23 54
26 75 4 22 13 49 21 61 7 12 18 52 24 89 6 37 13 71 16 76 3 5 0 32 -7 62 -26
119 -242 290 -424 338 -53 13 -445 2 -533 -16 -37 -8 -116 -17 -177 -21 -60
-3 -139 -12 -175 -20 -36 -7 -110 -16 -165 -20 -55 -3 -125 -13 -155 -20 -30
-7 -95 -16 -145 -20 -49 -4 -124 -13 -165 -20 -41 -7 -121 -16 -177 -20 -56
-3 -132 -12 -170 -20 -37 -7 -126 -16 -198 -20 -71 -4 -161 -11 -200 -16 -38
-6 -191 -16 -340 -24 -148 -8 -339 -20 -424 -26 -357 -25 -849 0 -1090 57
-121 28 -202 85 -187 132 7 22 78 97 120 127 15 11 44 33 64 49 71 55 232 160
272 176 14 5 32 14 40 19 8 6 44 24 80 41 36 17 72 35 80 40 8 5 40 21 70 35
30 14 90 44 133 66 43 21 86 39 95 39 9 1 35 9 57 20 22 11 48 19 57 20 51 1
173 92 204 152 9 18 23 36 30 41 7 4 16 24 20 44 8 43 -14 66 -55 57 -25 -5
-41 -12 -151 -62 -43 -20 -598 -296 -677 -337 -22 -11 -60 -35 -86 -52 -27
-18 -50 -33 -52 -33 -32 0 -275 -227 -275 -256 0 -6 -7 -18 -17 -25 -9 -8 -22
-27 -30 -44 -8 -16 -27 -55 -43 -85 -16 -30 -29 -63 -29 -73 -1 -9 -10 -34
-21 -54 -11 -21 -20 -43 -20 -50 0 -7 -9 -30 -20 -50 -31 -57 -26 -83 23 -130
112 -108 281 -138 772 -138 347 0 971 22 1120 40 66 7 190 17 275 20 85 4 176
11 201 15 26 5 125 14 220 20 96 6 203 17 239 25 36 8 130 19 210 24 157 10
394 36 475 51 28 6 111 17 185 25 74 8 155 19 180 25 80 17 361 31 421 21 90
-15 174 -64 259 -150 119 -120 141 -181 66 -181 -17 0 -49 -5 -71 -10 -22 -5
-115 -14 -206 -20 -91 -5 -197 -16 -235 -24 -38 -8 -105 -17 -149 -21 -44 -4
-102 -13 -130 -20 -27 -7 -97 -16 -154 -20 -58 -4 -118 -11 -135 -16 -17 -5
-74 -14 -126 -20 -52 -6 -122 -17 -155 -24 -33 -7 -98 -16 -145 -20 -47 -3
-119 -12 -160 -20 -41 -8 -113 -17 -160 -20 -47 -4 -112 -13 -145 -20 -33 -7
-107 -16 -165 -20 -58 -3 -141 -12 -185 -20 -44 -7 -118 -16 -165 -20 -47 -3
-119 -12 -160 -20 -41 -7 -129 -17 -195 -20 -66 -4 -149 -12 -185 -20 -36 -7
-108 -16 -160 -19 -52 -4 -160 -14 -240 -23 -215 -25 -1087 -25 -1245 -1 -201
31 -309 42 -420 44 -283 4 -438 82 -380 193 20 39 23 100 5 111 -30 19 -59
-18 -96 -125 -22 -65 -98 -139 -163 -159 -25 -8 -66 -22 -91 -31 -25 -9 -57
-14 -71 -11 -57 11 -219 144 -219 180 0 5 -6 17 -13 25 -37 43 -68 190 -91
425 -15 156 -31 196 -77 196 -25 0 -29 -20 -29 -158 0 -240 -46 -333 -200
-409 -85 -42 -160 -21 -253 71 -59 57 -87 60 -110 11 -49 -103 26 -309 125
-341 25 -7 19 -68 -11 -112 -10 -15 -31 -47 -47 -72 -35 -54 -250 -269 -325
-325 -128 -96 -344 -215 -390 -215 -8 0 -20 -5 -26 -11 -32 -32 -310 -51 -411
-28 -86 19 -246 23 -260 7 -25 -31 6 -58 68 -58 14 0 34 -6 45 -14 11 -7 44
-17 74 -21 30 -4 69 -14 87 -21 18 -8 45 -14 59 -14 14 0 51 -9 82 -20 32 -11
69 -20 83 -20 14 0 51 -9 83 -20 129 -45 250 -21 387 80 30 22 73 52 94 66 44
30 251 233 281 278 11 16 29 40 40 55 29 38 43 62 61 100 8 19 22 40 30 48 8
8 14 22 14 31 0 10 7 27 15 38 8 12 19 39 24 60 9 38 42 134 49 144 2 3 41 5
86 5 78 0 84 2 125 34 49 39 83 89 99 146 40 148 66 162 82 47 9 -65 42 -198
57 -227 6 -11 21 -42 34 -68 39 -79 102 -142 174 -176 111 -53 155 -36 290
110 125 135 123 134 233 62 79 -52 176 -104 277 -149 17 -7 59 -16 95 -19 36
-4 85 -13 110 -21 25 -8 101 -18 170 -24 69 -5 179 -15 245 -21 184 -17 763
-15 915 4 69 8 175 18 235 22 61 3 144 12 185 20 41 8 120 17 175 20 55 4 136
13 180 20 44 7 125 16 180 20 55 4 123 13 150 20 28 8 101 17 164 21 63 3 128
10 145 15 17 5 85 14 151 20 66 6 145 17 175 24 30 7 100 16 155 20 55 4 129
13 165 20 36 8 99 16 140 20 41 3 102 12 135 20 33 7 101 16 150 20 50 4 117
13 150 20 33 7 94 16 135 20 41 3 98 13 125 20 28 8 91 17 140 20 50 4 117 13
150 20 33 7 94 16 135 19 41 4 118 14 170 22 147 23 212 17 224 -21 46 -150
100 -224 196 -274 25 -13 56 -29 70 -37 14 -7 37 -14 51 -14 14 0 48 -7 75
-15 27 -8 72 -15 100 -15 70 0 112 19 220 102 36 28 94 100 94 118 0 33 67 24
190 -25 47 -18 96 -36 110 -40 40 -11 250 -110 323 -153 28 -17 29 -17 58 18
16 19 32 51 35 71 8 49 17 61 45 60 194 -12 276 8 351 86 45 46 88 135 88 183
0 19 9 68 20 109 24 89 26 232 6 311 -8 30 -17 93 -21 140 -3 47 -12 117 -20
155 -8 39 -19 116 -25 171 -5 56 -14 113 -19 126 -5 14 -14 75 -20 136 -7 62
-16 123 -21 136 -5 13 -12 64 -15 113 -4 48 -13 117 -21 151 -23 103 -21 218
5 277 12 28 26 59 31 70 5 11 20 46 34 79 14 32 26 76 26 97 0 37 -4 44 -88
164 -16 23 -31 58 -35 79 -13 84 -76 96 -96 19z m-513 -2153 c110 -67 142
-288 34 -229 -20 10 -44 19 -52 19 -8 0 -32 9 -53 20 -20 11 -42 20 -48 20 -5
0 -35 12 -65 26 -68 32 -77 75 -21 109 95 59 150 68 205 35z"/>
<path d="M6125 3520 c-110 -108 -165 -270 -114 -339 22 -29 40 -44 137 -104
23 -15 42 -34 42 -43 0 -22 -79 -101 -180 -178 -47 -36 -96 -74 -109 -85 -13
-12 -28 -21 -32 -21 -18 0 -96 -61 -109 -85 -22 -42 47 -65 95 -31 11 7 34 16
50 20 115 28 287 183 326 295 10 28 15 31 52 31 60 0 68 9 74 79 5 54 3 66
-16 92 -20 27 -23 45 -26 137 -5 205 -100 321 -190 232z m58 -159 c53 -35 96
-128 67 -146 -20 -12 -80 17 -125 60 -51 51 -52 53 -25 83 25 27 46 28 83 3z"/>
<path d="M1490 3439 c-14 -5 -29 -16 -35 -23 -12 -15 -114 -83 -197 -131 -35
-20 -70 -40 -78 -45 -8 -4 -64 -36 -125 -71 -236 -133 -315 -209 -315 -303 0
-54 22 -56 72 -7 24 23 48 41 54 41 6 0 19 9 29 20 10 11 23 20 28 20 6 0 19
7 29 17 10 9 27 21 37 27 36 20 243 141 279 163 21 12 46 26 58 32 85 39 170
135 193 217 17 60 16 61 -29 43z"/>
<path d="M7610 3313 c-25 -10 -110 -115 -110 -136 0 -4 -9 -20 -20 -35 -13
-18 -22 -51 -26 -100 l-7 -73 52 -50 c29 -27 60 -53 69 -57 38 -17 82 -48 82
-58 0 -36 -189 -197 -372 -317 -71 -46 -93 -107 -40 -107 24 0 157 44 174 57
7 6 31 19 53 29 62 29 215 200 215 241 0 23 39 45 68 38 61 -13 104 110 57
161 -27 29 -28 35 -26 104 3 73 -33 213 -65 255 -35 46 -68 61 -104 48z m55
-206 c57 -57 59 -138 3 -123 -66 17 -142 119 -111 149 19 20 76 6 108 -26z"/>
<path d="M16001 3221 c-22 -22 -47 -55 -57 -73 -9 -18 -22 -40 -29 -48 -15
-19 -35 -98 -35 -143 0 -59 66 -131 158 -173 50 -22 44 -56 -20 -118 -67 -65
-227 -184 -309 -232 -86 -49 -77 -118 14 -99 17 4 41 13 52 20 11 7 36 16 55
20 19 4 46 16 59 26 13 11 28 19 34 19 25 0 164 173 194 242 7 16 20 29 30 29
10 1 31 2 47 3 25 1 31 8 48 55 22 57 13 95 -30 127 -12 8 -14 23 -9 62 12
104 -29 255 -82 299 -40 34 -75 29 -120 -16z m61 -147 c57 -27 105 -136 69
-158 -29 -18 -151 81 -151 122 0 51 27 63 82 36z"/>
<path d="M18680 3233 c-18 -5 -85 -89 -101 -129 -7 -16 -18 -36 -25 -44 -45
-57 -36 -180 15 -222 58 -46 75 -58 86 -58 5 -1 25 -14 44 -30 l34 -29 -85
-83 c-102 -99 -137 -128 -153 -128 -7 0 -18 -7 -25 -15 -7 -8 -50 -39 -96 -70
-66 -43 -84 -60 -84 -79 0 -38 25 -52 63 -37 18 7 48 17 67 23 136 38 268 154
335 292 19 39 23 41 63 41 41 0 44 2 62 44 24 51 26 107 6 114 -28 11 -48 64
-38 100 18 64 -32 251 -78 292 -17 15 -68 25 -90 18z m61 -205 c47 -53 60
-128 20 -128 -27 0 -125 74 -135 102 -23 66 60 85 115 26z"/>
<path d="M3045 3059 c-38 -5 -107 -6 -151 -3 -103 8 -179 -39 -231 -141 -9
-16 -22 -37 -30 -47 -20 -22 -13 -82 9 -86 10 -2 32 6 48 18 53 38 275 55 275
21 0 -16 -9 -21 -90 -51 -33 -12 -67 -26 -75 -31 -8 -5 -26 -15 -40 -22 -46
-22 -90 -61 -90 -78 0 -32 54 -34 104 -5 25 14 52 26 61 26 9 0 33 9 55 20 27
14 59 20 103 20 72 0 82 9 151 131 10 19 22 36 25 39 6 5 42 59 74 112 50 82
3 100 -198 77z"/>
<path d="M8655 2837 c-12 -12 -36 -47 -55 -77 -58 -91 -78 -108 -97 -77 -4 7
-34 33 -65 57 -160 126 -169 127 -225 43 -20 -32 -52 -76 -70 -99 -59 -73 -38
-132 76 -211 141 -99 204 -86 272 58 27 57 37 59 87 22 20 -16 41 -31 47 -35
5 -5 35 -28 66 -52 88 -70 143 -71 184 -3 100 165 102 207 13 264 -35 22 -75
52 -90 65 -75 71 -110 82 -143 45z"/>
<path d="M21783 2834 c-16 -8 -43 -27 -59 -42 -29 -26 -94 -71 -124 -86 -8 -4
-33 -18 -55 -31 -22 -14 -58 -34 -80 -45 -22 -11 -53 -28 -70 -39 -31 -19 -95
-56 -130 -75 -99 -54 -185 -130 -204 -181 -2 -5 -13 -20 -25 -33 -23 -26 -29
-93 -9 -113 11 -11 56 14 93 52 27 29 105 88 130 99 14 5 57 30 95 55 39 25
84 52 100 60 17 8 48 26 70 40 22 13 67 38 100 55 65 33 130 88 140 119 3 11
12 22 20 25 8 3 15 11 15 19 0 7 11 28 25 47 45 61 27 102 -32 74z"/>
<path d="M4874 2761 c-104 -56 -214 -221 -214 -319 0 -68 28 -93 115 -103 78
-10 85 -13 85 -42 0 -15 -13 -30 -38 -45 -40 -25 -79 -83 -68 -101 11 -18 69
-12 96 9 14 11 33 20 42 20 9 0 20 5 24 11 3 6 25 19 48 30 22 10 48 23 56 28
8 5 73 37 143 72 170 83 255 166 233 225 -9 22 -86 12 -126 -16 -15 -11 -33
-20 -39 -20 -6 0 -31 -10 -56 -22 l-46 -22 -109 22 c-144 30 -220 63 -220 96
0 41 140 54 175 16 52 -57 158 38 129 115 -19 49 -169 79 -230 46z"/>
<path d="M1333 2409 c-18 -11 -33 -25 -33 -29 0 -5 -6 -15 -13 -22 -28 -27
-77 -129 -84 -174 -5 -31 19 -57 132 -142 40 -30 109 -62 134 -62 62 0 165
171 147 245 -7 29 -63 86 -147 151 -71 54 -95 60 -136 33z"/>
<path d="M9256 2273 c-10 -3 -31 -19 -45 -36 -27 -32 -36 -46 -68 -107 -11
-19 -25 -44 -33 -56 -23 -37 -5 -70 68 -123 37 -27 78 -58 92 -69 70 -53 87
-58 123 -38 32 19 77 63 77 76 0 4 9 17 20 30 11 13 20 29 20 36 0 7 9 31 21
53 28 55 -1 97 -106 155 -16 9 -52 32 -79 51 -48 35 -54 37 -90 28z"/>
<path d="M19272 2192 c-9 -3 -12 -47 -12 -162 l0 -159 58 -73 c69 -87 120
-171 162 -270 17 -40 37 -86 44 -103 15 -33 29 -73 68 -190 39 -118 38 -268
-2 -325 -45 -62 -93 -103 -195 -167 -20 -12 -48 -26 -135 -65 -25 -11 -57 -26
-72 -34 -14 -8 -34 -14 -45 -14 -10 -1 -36 -8 -58 -16 -106 -42 -326 -71 -407
-55 -35 7 -81 16 -103 20 -93 16 -239 106 -300 184 -100 128 -141 320 -95 450
11 31 20 67 20 81 0 13 7 29 15 36 26 22 16 104 -12 108 -32 5 -73 -39 -73
-78 0 -17 -7 -41 -15 -54 -9 -13 -18 -48 -21 -77 -4 -30 -12 -73 -20 -97 -10
-29 -14 -91 -13 -195 0 -191 3 -209 62 -367 83 -228 315 -378 585 -380 40 0
105 6 145 14 40 8 95 17 122 21 28 4 60 13 72 21 12 8 28 14 34 14 67 0 400
227 471 322 47 62 107 192 118 253 4 22 15 69 25 105 19 72 16 375 -5 455 -5
22 -14 71 -20 108 -6 38 -17 81 -25 97 -8 16 -15 39 -15 50 0 19 -34 104 -62
155 -6 11 -27 49 -45 85 -118 223 -198 320 -251 302z"/>
<path d="M6398 2114 c-25 -13 -79 -82 -133 -168 -10 -17 -23 -32 -27 -34 -4
-2 -8 -15 -8 -28 0 -27 43 -34 82 -13 37 20 88 1 140 -52 47 -49 55 -77 19
-80 -38 -4 -89 4 -131 21 -125 49 -175 34 -266 -82 -47 -60 -64 -79 -130 -150
-40 -42 -111 -93 -146 -103 -12 -4 -28 -12 -35 -17 -19 -15 -114 -38 -160 -38
-54 0 -66 13 -87 101 -16 66 -35 113 -82 202 -9 15 -46 59 -82 97 -71 74 -96
83 -156 60 -90 -34 -236 -336 -236 -488 0 -80 62 -202 102 -202 6 0 19 -6 27
-14 27 -23 156 -56 218 -56 126 0 117 -47 -42 -230 -79 -91 -266 -269 -322
-307 -150 -102 -250 -155 -368 -195 -75 -25 -266 -51 -320 -44 -100 15 -272
36 -287 36 -21 0 -33 -36 -19 -54 7 -8 31 -19 56 -25 24 -6 47 -15 50 -21 3
-5 20 -10 36 -10 16 0 55 -9 86 -20 32 -11 79 -20 106 -20 27 0 86 -9 131 -19
198 -47 355 -46 396 4 7 8 17 15 22 15 5 0 22 9 36 21 15 11 45 34 67 50 139
105 383 376 431 479 62 131 70 155 95 270 12 57 13 58 91 69 120 17 270 127
402 294 26 32 51 64 56 70 5 7 21 26 35 43 36 46 76 60 134 46 25 -6 64 -14
86 -18 22 -4 51 -12 65 -19 14 -7 45 -16 70 -20 25 -4 54 -13 66 -20 12 -8 38
-17 58 -20 20 -4 53 -16 73 -26 21 -11 52 -19 70 -19 37 0 37 1 104 146 27 59
25 133 -7 202 -25 54 -54 119 -68 152 -4 8 -17 33 -31 55 -13 22 -28 49 -34
60 -46 96 -165 157 -233 119z m-1203 -591 c41 -20 52 -49 39 -102 -14 -56 -67
-57 -117 -1 -43 46 -45 65 -15 97 26 27 45 29 93 6z"/>
<path d="M18765 1522 c-11 -9 -38 -40 -60 -67 -116 -145 -117 -181 -5 -255 13
-8 35 -24 49 -35 72 -55 125 -78 162 -70 49 11 159 163 159 220 0 39 -227 226
-273 225 -7 -1 -21 -8 -32 -18z"/>
<path d="M3507 910 c-19 -16 -46 -48 -62 -72 -15 -24 -36 -55 -47 -70 -46 -68
-12 -115 161 -223 9 -5 27 -18 40 -27 54 -40 130 -1 155 80 4 12 11 22 16 22
10 0 40 91 40 124 0 28 -53 79 -159 149 -81 55 -99 57 -144 17z"/>
</g>
</svg>
