<?xml version="1.0" standalone="no"?>
<!DOCTYPE svg PUBLIC "-//W3C//DTD SVG 20010904//EN"
 "http://www.w3.org/TR/2001/REC-SVG-20010904/DTD/svg10.dtd">
<svg version="1.0" xmlns="http://www.w3.org/2000/svg"
 width="600.000000pt" height="600.000000pt" viewBox="0 0 600.000000 600.000000"
 preserveAspectRatio="xMidYMid meet">
<g transform="translate(0.000000,600.000000) scale(0.100000,-0.100000)"
fill="#000000" stroke="none">
<path d="M4490 4550 c-46 -8 -301 -91 -355 -115 -33 -15 -144 -58 -160 -61 -5
-2 -59 -23 -120 -49 -60 -25 -139 -57 -175 -71 -36 -14 -72 -29 -81 -33 -8 -5
-47 -21 -85 -36 -38 -15 -87 -35 -109 -45 -22 -10 -80 -34 -130 -55 -49 -20
-99 -41 -110 -45 -11 -5 -54 -23 -95 -40 -95 -39 -107 -45 -150 -63 -19 -8
-116 -49 -215 -91 -99 -42 -198 -85 -220 -95 -22 -10 -51 -24 -65 -30 -14 -6
-115 -49 -225 -96 -218 -93 -210 -90 -308 -134 -37 -17 -70 -31 -73 -31 -3 0
-29 -11 -57 -23 -80 -36 -174 -78 -382 -167 -104 -45 -203 -88 -220 -95 -109
-50 -166 -75 -171 -75 -27 0 -324 -150 -360 -182 -112 -98 -74 -197 102 -265
65 -26 243 -84 379 -124 17 -4 53 -15 80 -24 95 -28 201 -52 313 -71 108 -18
116 -18 197 -1 47 10 119 33 160 52 75 34 114 59 515 330 118 79 278 187 355
238 77 51 150 99 162 107 67 46 504 337 593 396 111 74 205 124 230 124 33 0
60 -30 60 -67 0 -34 -13 -50 -192 -231 -106 -107 -308 -301 -448 -431 -140
-130 -318 -297 -395 -371 -299 -287 -325 -320 -325 -411 0 -51 4 -62 39 -107
52 -65 96 -100 281 -224 85 -58 211 -142 279 -189 68 -46 189 -128 270 -181
80 -54 206 -139 280 -190 278 -194 345 -227 472 -235 54 -4 99 -1 121 6 48 16
122 96 154 168 25 57 61 180 69 237 2 16 11 63 19 105 21 108 52 280 71 391 9
52 24 142 35 200 10 58 26 152 35 210 15 98 33 202 70 410 8 47 17 103 19 125
6 45 27 174 56 341 11 61 20 123 20 139 0 15 7 67 15 114 31 188 71 484 96
723 15 149 0 244 -47 292 -19 19 -51 40 -72 45 -42 12 -135 12 -202 1z"/>
</g>
</svg>
