<?xml version="1.0" standalone="no"?>
<!DOCTYPE svg PUBLIC "-//W3C//DTD SVG 20010904//EN"
 "http://www.w3.org/TR/2001/REC-SVG-20010904/DTD/svg10.dtd">
<svg version="1.0" xmlns="http://www.w3.org/2000/svg"
 width="600.000000pt" height="600.000000pt" viewBox="0 0 600.000000 600.000000"
 preserveAspectRatio="xMidYMid meet">
<g transform="translate(0.000000,600.000000) scale(0.100000,-0.100000)"
fill="#000000" stroke="none">
<path d="M1613 5052 c-326 -1 -593 -5 -593 -8 0 -3 16 -24 35 -47 19 -22 35
-44 35 -49 0 -8 98 -140 166 -223 18 -22 65 -85 106 -141 40 -56 107 -146 148
-200 41 -54 88 -119 103 -144 16 -25 34 -49 41 -55 13 -11 105 -130 171 -223
23 -31 68 -92 100 -135 123 -162 155 -204 203 -272 27 -38 58 -81 70 -95 47
-56 172 -221 172 -228 0 -7 76 -107 136 -181 34 -40 99 -133 114 -161 10 -18
1 -32 -82 -118 -51 -54 -142 -151 -203 -216 -60 -65 -179 -191 -262 -280 -84
-88 -258 -273 -386 -411 -128 -137 -265 -283 -303 -323 -165 -176 -184 -196
-186 -203 -2 -4 -42 -48 -91 -99 -48 -50 -87 -96 -87 -101 0 -5 71 -9 161 -9
l161 0 36 38 c20 20 88 94 151 162 62 69 142 153 177 188 35 34 64 65 64 69 0
7 63 75 225 243 56 58 161 170 235 250 207 224 255 275 398 420 72 75 132 141
132 148 0 44 78 -21 135 -114 11 -18 56 -78 100 -134 44 -56 100 -130 125
-164 76 -105 131 -181 213 -286 42 -55 77 -103 77 -106 0 -3 27 -40 61 -82 33
-41 68 -87 77 -101 8 -14 26 -37 38 -51 12 -14 62 -80 111 -146 174 -240 211
-289 231 -312 l21 -22 585 0 c652 0 625 -3 561 67 -19 21 -35 41 -35 45 0 4
-33 49 -72 100 -116 148 -162 209 -173 226 -5 9 -50 69 -100 135 -49 65 -100
136 -113 158 -13 21 -28 39 -33 39 -5 0 -9 5 -9 10 0 11 -61 91 -133 177 -21
25 -53 68 -72 96 -39 58 -91 129 -150 205 -22 28 -58 77 -80 108 -22 31 -50
67 -62 81 -13 13 -23 26 -23 28 0 2 -35 49 -77 104 -43 56 -92 122 -110 148
-18 27 -38 55 -45 63 -8 9 -29 38 -48 65 -19 28 -46 64 -61 80 -15 17 -68 89
-119 160 -51 72 -97 132 -102 133 -30 12 3 59 165 228 238 250 381 404 386
416 2 5 31 37 65 71 34 34 138 145 231 247 94 101 231 248 305 325 213 220
360 382 360 394 0 8 -48 11 -159 11 l-159 0 -124 -127 c-106 -109 -353 -372
-574 -612 -32 -36 -76 -80 -96 -100 -21 -19 -38 -38 -38 -43 0 -13 -26 -38
-39 -38 -6 0 -11 -4 -11 -10 0 -11 -39 -54 -295 -322 -98 -103 -184 -188 -190
-188 -6 0 -36 33 -65 73 -30 39 -74 98 -100 129 -25 31 -70 91 -100 134 -30
43 -71 97 -90 120 -48 58 -131 170 -155 210 -11 18 -32 47 -47 64 -15 17 -44
54 -64 83 -21 29 -55 71 -75 95 -20 23 -44 57 -53 75 -8 18 -25 42 -37 53 -12
10 -33 36 -46 58 -14 21 -45 63 -69 93 -25 30 -69 89 -99 131 -30 42 -64 88
-77 102 l-23 25 -592 -3z m506 -284 c9 -14 58 -81 109 -147 50 -67 92 -125 92
-130 0 -5 4 -11 10 -13 5 -1 38 -42 72 -89 107 -146 181 -244 195 -254 6 -5
19 -23 27 -40 15 -28 68 -100 171 -230 28 -35 75 -98 105 -140 56 -78 166
-222 216 -284 16 -18 33 -44 40 -56 6 -13 49 -71 95 -130 46 -59 89 -114 94
-123 6 -9 15 -21 22 -27 6 -5 20 -24 30 -41 21 -36 130 -181 160 -213 11 -12
26 -34 34 -49 8 -15 18 -30 23 -33 5 -4 30 -36 55 -72 67 -94 192 -257 224
-291 15 -16 27 -34 27 -39 0 -6 17 -31 38 -56 21 -25 49 -62 62 -81 13 -19 41
-55 62 -79 21 -24 38 -50 38 -57 0 -8 4 -14 8 -14 4 0 28 -28 52 -62 40 -58
97 -132 208 -274 23 -29 42 -56 42 -60 0 -5 49 -74 60 -84 4 -3 32 -40 64 -82
32 -43 61 -80 66 -83 4 -3 6 -14 3 -25 -5 -19 -14 -20 -271 -20 l-265 0 -49
51 c-26 28 -67 78 -90 112 -40 59 -94 132 -201 270 -26 34 -61 83 -79 110 -17
26 -35 47 -39 47 -5 0 -9 5 -9 11 0 6 -12 26 -27 43 -16 18 -50 63 -78 100
-179 243 -248 335 -307 411 -38 47 -68 90 -68 95 0 5 -9 15 -20 22 -11 7 -20
18 -20 24 0 6 -17 31 -38 55 -21 24 -49 60 -62 79 -14 19 -46 62 -72 94 -27
33 -48 66 -48 72 0 7 -8 19 -18 26 -10 7 -38 42 -64 78 -25 36 -68 93 -94 127
-27 33 -77 101 -111 150 -34 49 -72 98 -84 109 -11 10 -27 31 -35 46 -8 15
-35 50 -59 78 -25 28 -45 54 -45 59 0 4 -36 55 -81 112 -44 57 -99 130 -122
162 -48 66 -163 218 -245 326 -32 41 -63 86 -71 100 -13 24 -94 129 -174 225
-34 41 -63 82 -74 106 -3 8 -21 32 -40 53 -18 20 -33 42 -33 47 0 7 98 9 287
8 l286 -3 16 -27z"/>
</g>
</svg>
