<?xml version="1.0" standalone="no"?>
<!DOCTYPE svg PUBLIC "-//W3C//DTD SVG 20010904//EN"
 "http://www.w3.org/TR/2001/REC-SVG-20010904/DTD/svg10.dtd">
<svg version="1.0" xmlns="http://www.w3.org/2000/svg"
 width="2400.000000pt" height="1008.000000pt" viewBox="0 0 2400.000000 1008.000000"
 preserveAspectRatio="xMidYMid meet">
<g transform="translate(0.000000,1008.000000) scale(0.100000,-0.100000)"
fill="#000000" stroke="none">
<path d="M19461 9968 c-70 -37 -126 -104 -260 -313 -57 -89 -104 -191 -96
-213 8 -26 74 -95 140 -147 28 -21 57 -45 65 -52 75 -66 278 -201 328 -219
144 -51 252 43 371 325 26 62 33 198 12 241 -53 111 -206 261 -349 344 -99 57
-151 65 -211 34z"/>
<path d="M22846 9793 c-140 -23 -318 -230 -476 -550 -46 -94 -44 -195 4 -245
40 -41 110 -84 152 -93 16 -4 46 -13 67 -21 23 -8 76 -14 135 -14 121 0 132
-6 109 -54 -9 -20 -22 -36 -28 -36 -14 0 -166 -105 -201 -139 -32 -31 -43 -75
-29 -114 13 -35 43 -35 108 -3 26 14 93 46 148 72 55 25 138 64 185 86 142 67
233 109 280 130 46 21 253 124 345 172 143 75 229 185 223 284 -3 44 -5 47
-34 50 -38 4 -129 -18 -204 -48 -30 -12 -75 -29 -100 -37 -25 -8 -67 -24 -95
-36 -80 -34 -248 -25 -440 22 -112 27 -332 105 -364 128 -84 63 26 163 178
163 84 0 104 -9 211 -97 76 -63 102 -67 127 -19 17 32 37 58 116 155 51 63 49
89 -10 141 -27 23 -57 46 -68 50 -11 5 -43 17 -70 28 -51 21 -209 35 -269 25z"/>
<path d="M3161 8951 c-12 -12 -21 -31 -21 -43 0 -13 -9 -43 -20 -67 -11 -24
-20 -58 -20 -76 0 -18 -7 -52 -16 -76 -8 -24 -19 -75 -24 -114 -5 -38 -13 -93
-18 -120 -9 -55 16 -212 42 -263 7 -15 17 -47 20 -72 4 -25 13 -74 21 -110 32
-143 55 -269 61 -340 4 -41 11 -86 16 -99 5 -14 13 -72 19 -130 5 -58 14 -128
19 -155 6 -26 17 -125 25 -220 9 -94 18 -178 20 -187 3 -9 12 -112 20 -230 8
-118 19 -250 24 -294 6 -44 15 -195 21 -335 5 -140 14 -331 20 -425 5 -93 14
-332 20 -530 6 -198 15 -414 20 -480 5 -66 14 -256 19 -422 5 -166 12 -306 15
-311 3 -4 10 -69 16 -143 6 -74 17 -161 24 -194 8 -33 17 -85 21 -115 4 -30
16 -90 27 -133 17 -68 27 -96 62 -177 3 -8 14 -27 24 -41 9 -14 29 -43 43 -65
53 -79 199 -207 287 -250 60 -29 196 -64 250 -64 49 0 183 34 213 53 13 9 56
25 94 37 200 62 360 134 464 209 169 121 210 139 268 118 27 -9 66 -19 88 -23
22 -4 52 -13 67 -20 15 -8 42 -14 61 -14 18 0 67 -9 108 -19 41 -11 99 -22
129 -26 30 -4 62 -11 71 -16 9 -5 50 -13 90 -19 41 -6 101 -18 134 -28 93 -26
357 -24 405 3 65 36 135 83 166 112 72 65 258 320 270 371 4 15 15 43 26 62
10 19 18 43 18 53 0 10 6 30 14 45 16 30 46 193 46 246 0 45 -28 153 -48 186
-62 103 -100 145 -203 230 -30 25 -56 48 -59 52 -6 8 -209 142 -343 225 -109
69 -129 91 -134 150 -6 54 22 131 77 220 16 26 34 58 39 70 49 109 386 333
503 333 200 0 347 122 455 380 51 121 72 186 79 246 8 59 27 100 54 114 29 16
40 -15 40 -117 0 -48 5 -106 11 -128 6 -22 15 -65 21 -95 15 -84 91 -380 107
-415 19 -45 51 -131 51 -139 0 -26 90 -187 139 -249 100 -126 199 -197 326
-236 80 -25 190 -63 285 -98 59 -22 90 -32 245 -80 28 -8 75 -22 105 -29 30
-8 78 -20 105 -28 59 -17 173 -41 310 -66 55 -10 125 -23 155 -28 150 -28 256
-43 369 -52 68 -6 127 -13 132 -16 10 -6 338 -27 669 -44 239 -12 575 -12 765
0 83 5 247 14 365 20 118 6 260 15 315 21 55 5 186 16 290 24 105 8 206 19
225 25 19 5 53 10 76 10 23 0 93 9 155 19 63 11 141 22 174 26 33 3 85 12 115
20 30 7 80 16 110 20 52 6 188 34 275 56 22 6 72 16 112 24 40 8 80 18 90 23
10 5 36 13 58 17 22 3 78 18 125 32 47 14 114 33 150 44 83 23 280 89 300 99
16 8 213 85 305 120 28 10 78 21 112 25 68 7 108 26 194 93 75 59 340 328 429
436 81 98 254 326 270 355 31 60 143 90 245 66 39 -9 99 -22 135 -30 36 -7
106 -25 155 -39 50 -14 115 -31 145 -37 30 -6 66 -17 80 -24 14 -7 43 -17 64
-21 22 -4 51 -13 65 -20 14 -8 34 -14 44 -14 10 0 39 -9 65 -20 26 -11 65 -24
87 -29 22 -5 99 -30 170 -56 72 -25 137 -49 146 -52 40 -12 105 71 173 222 15
33 33 74 41 90 77 169 75 308 -7 491 -10 22 -18 43 -18 47 0 9 -67 152 -124
267 -142 282 -265 455 -371 522 -43 27 -168 68 -207 68 -64 0 -196 -118 -271
-242 -18 -29 -64 -96 -103 -148 -102 -139 -126 -183 -115 -213 13 -34 48 -40
96 -17 197 94 253 80 437 -115 108 -113 104 -162 -14 -152 -37 3 -77 11 -90
18 -13 7 -61 21 -108 30 -113 24 -205 47 -259 65 -102 34 -223 -38 -370 -221
-31 -39 -64 -79 -74 -90 -10 -11 -48 -58 -84 -105 -245 -313 -508 -485 -803
-525 -25 -4 -65 -12 -90 -20 -25 -7 -63 -16 -85 -20 -41 -7 -72 -19 -161 -61
-28 -13 -62 -24 -75 -24 -13 0 -44 -6 -69 -14 -83 -27 -164 -47 -235 -60 -38
-7 -86 -18 -105 -24 -58 -18 -210 -51 -289 -62 -40 -6 -77 -12 -80 -15 -4 -2
-39 -9 -77 -15 -38 -6 -96 -17 -129 -24 -33 -8 -94 -17 -135 -21 -41 -3 -97
-12 -125 -20 -27 -7 -90 -16 -140 -20 -49 -4 -117 -13 -150 -20 -33 -7 -103
-16 -155 -20 -52 -3 -149 -13 -215 -20 -66 -8 -190 -19 -275 -25 -85 -6 -191
-16 -235 -23 -136 -21 -1522 -17 -1645 5 -52 9 -135 20 -185 23 -49 4 -109 11
-133 16 -24 5 -89 14 -145 20 -56 5 -124 16 -151 24 -27 8 -78 17 -115 21 -36
3 -82 12 -101 19 -20 7 -62 16 -95 20 -33 4 -75 14 -93 21 -18 7 -57 16 -85
20 -29 4 -60 11 -69 15 -10 5 -48 16 -85 24 -37 8 -102 24 -143 36 -41 11
-107 29 -146 39 -39 10 -80 22 -90 28 -11 5 -66 24 -124 40 -58 17 -123 38
-145 46 -22 8 -61 15 -86 16 -99 0 -275 157 -313 277 -4 12 -13 27 -21 33 -8
7 -15 19 -15 28 0 9 -9 34 -19 56 -25 53 -55 128 -76 191 -16 49 -27 88 -60
210 -9 33 -25 92 -36 130 -10 39 -19 82 -19 97 0 15 -5 39 -11 55 -6 15 -15
72 -20 125 -5 54 -14 110 -20 125 -5 14 -14 67 -19 117 -37 374 -53 436 -117
436 -48 0 -51 -13 -62 -281 -14 -321 -28 -483 -45 -539 -8 -25 -18 -61 -22
-80 -3 -19 -17 -50 -30 -70 -13 -19 -35 -51 -48 -70 -24 -36 -115 -124 -155
-150 -13 -8 -37 -25 -54 -37 -17 -13 -36 -23 -42 -23 -6 0 -16 -5 -22 -11 -12
-12 -121 -59 -138 -59 -39 -2 -193 -98 -227 -141 -14 -19 -71 -79 -126 -135
-154 -153 -337 -452 -356 -582 -3 -24 -11 -51 -16 -60 -5 -9 -13 -33 -18 -52
-13 -53 -41 -47 -71 15 -134 275 -209 351 -346 348 -186 -2 -489 -264 -744
-643 -45 -67 -161 -267 -161 -278 0 -3 -9 -24 -19 -46 -48 -102 -80 -197 -102
-311 -6 -27 -15 -68 -20 -90 -55 -215 -48 -281 45 -418 25 -38 48 -78 52 -90
8 -35 -42 -76 -107 -87 -30 -5 -74 -16 -98 -24 -49 -18 -107 -21 -116 -6 -8
13 -148 80 -167 80 -8 0 -23 7 -34 15 -10 8 -26 15 -35 15 -18 0 -159 106
-159 119 0 5 -17 30 -39 57 -68 87 -110 219 -126 404 -4 41 -13 98 -20 125 -8
28 -17 104 -20 170 -4 66 -11 156 -16 200 -5 44 -16 232 -24 419 -9 186 -17
342 -20 346 -2 4 -9 119 -15 256 -6 137 -17 317 -25 399 -8 83 -17 220 -20
305 -3 85 -12 209 -20 275 -8 66 -17 181 -20 255 -3 74 -12 185 -20 245 -8 61
-17 157 -20 215 -3 58 -12 139 -20 180 -8 41 -17 111 -20 155 -4 44 -11 99
-16 123 -5 24 -14 89 -20 145 -5 56 -16 125 -24 152 -7 28 -16 77 -20 110 -3
33 -11 78 -17 100 -6 22 -16 76 -24 120 -7 44 -17 100 -23 125 -5 25 -15 77
-21 115 -23 154 -38 242 -69 395 -8 42 -39 52 -70 21z m2275 -4324 c59 -34
105 -118 169 -315 30 -91 18 -349 -19 -421 -75 -146 -272 -270 -410 -259 -234
19 -466 221 -466 405 0 134 135 299 391 476 162 112 273 150 335 114z m511
-476 c54 -43 118 -89 142 -101 41 -21 75 -41 276 -170 261 -167 388 -342 312
-431 -84 -98 -401 -141 -600 -80 -18 5 -79 22 -137 37 -58 15 -116 33 -130 40
-14 7 -50 18 -80 24 -174 35 -192 51 -138 133 56 85 89 165 113 267 7 30 19
80 28 110 9 30 24 91 33 135 31 145 43 148 181 36z"/>
<path d="M6841 8954 c-98 -43 -307 -306 -357 -452 l-19 -52 25 -47 c58 -110
351 -369 465 -413 137 -52 265 48 397 311 47 94 62 221 35 299 -12 34 -198
206 -291 269 -22 14 -51 34 -65 43 -81 55 -133 66 -190 42z"/>
<path d="M19811 8383 c-15 -13 -28 -49 -47 -128 -14 -60 -30 -123 -36 -140 -6
-16 -16 -59 -23 -95 -6 -36 -17 -81 -23 -100 -21 -68 -45 -245 -38 -281 3 -20
19 -53 34 -73 250 -328 355 -478 411 -586 76 -146 211 -420 241 -490 18 -41
36 -79 40 -85 4 -5 13 -26 18 -45 6 -19 24 -73 41 -120 69 -189 20 -297 -198
-442 -197 -132 -361 -200 -515 -213 -43 -4 -92 -13 -110 -20 -17 -7 -56 -16
-86 -19 -30 -4 -84 -13 -120 -21 -177 -40 -213 -47 -310 -66 -58 -11 -147 -24
-198 -28 -98 -10 -133 -27 -148 -74 -3 -10 -19 -38 -35 -62 -16 -24 -35 -59
-41 -77 -6 -18 -16 -40 -23 -48 -20 -26 -55 -99 -65 -138 -5 -20 -15 -56 -21
-79 -34 -112 81 -199 411 -310 58 -19 110 -38 115 -43 6 -4 24 -11 42 -15 18
-3 69 -22 115 -41 45 -19 89 -34 98 -34 8 0 31 -8 50 -19 19 -10 50 -22 68
-26 18 -4 45 -13 60 -21 15 -8 32 -14 39 -14 7 0 52 -16 100 -36 48 -20 104
-40 123 -46 19 -5 49 -15 65 -23 17 -7 64 -25 105 -40 41 -15 90 -33 108 -41
18 -8 38 -14 44 -14 6 0 29 -9 52 -19 23 -10 97 -40 166 -66 69 -27 143 -56
165 -65 120 -51 151 -65 166 -77 8 -7 20 -13 25 -13 14 0 67 -59 84 -93 22
-45 -8 -124 -65 -172 -54 -44 -114 -88 -135 -98 -8 -4 -35 -21 -60 -37 -25
-16 -58 -36 -75 -45 -16 -8 -61 -33 -100 -55 -38 -22 -106 -58 -150 -81 -44
-22 -116 -60 -160 -83 -111 -60 -341 -176 -349 -176 -4 0 -49 -20 -99 -44
-214 -102 -274 -128 -467 -201 -69 -26 -138 -53 -155 -60 -16 -7 -64 -25 -105
-40 -41 -15 -82 -31 -91 -35 -27 -14 -142 -58 -179 -69 -49 -14 -151 -50 -175
-61 -11 -5 -36 -14 -55 -19 -19 -6 -93 -31 -165 -56 -71 -25 -173 -60 -225
-77 -93 -30 -113 -37 -215 -72 -27 -10 -75 -24 -105 -31 -30 -7 -73 -20 -95
-28 -77 -28 -110 -39 -160 -52 -27 -8 -72 -21 -100 -30 -111 -36 -142 -44
-180 -51 -22 -4 -52 -13 -67 -20 -15 -8 -37 -14 -50 -14 -13 -1 -41 -8 -63
-16 -22 -9 -65 -21 -95 -28 -30 -7 -71 -18 -90 -24 -127 -40 -170 -52 -210
-58 -25 -3 -72 -14 -105 -24 -87 -26 -151 -41 -226 -55 -36 -7 -72 -16 -80
-21 -7 -4 -41 -14 -74 -21 -69 -14 -175 -38 -255 -59 -56 -14 -151 -34 -275
-58 -89 -18 -238 -51 -290 -64 -22 -6 -65 -13 -95 -17 -30 -3 -93 -15 -140
-25 -131 -28 -197 -40 -300 -55 -52 -7 -106 -18 -120 -23 -14 -5 -65 -15 -114
-21 -50 -7 -93 -14 -96 -16 -4 -2 -64 -11 -134 -20 -71 -8 -136 -19 -145 -24
-9 -5 -54 -12 -101 -15 -47 -4 -110 -13 -140 -21 -30 -7 -93 -16 -140 -20 -47
-4 -112 -13 -145 -20 -33 -7 -107 -16 -165 -20 -58 -4 -132 -13 -165 -20 -33
-7 -105 -16 -160 -20 -55 -3 -140 -13 -190 -20 -49 -8 -155 -19 -235 -25 -80
-6 -174 -14 -210 -19 -36 -5 -119 -12 -185 -16 -66 -3 -181 -12 -255 -20 -74
-8 -196 -17 -270 -20 -74 -3 -227 -12 -340 -20 -113 -8 -412 -19 -665 -25
-253 -6 -570 -15 -705 -21 -135 -6 -301 -8 -370 -4 -69 4 -190 8 -270 10 -626
15 -1012 28 -1170 40 -102 8 -261 17 -355 20 -93 4 -213 12 -265 20 -52 7
-151 16 -220 20 -69 3 -177 12 -240 20 -63 7 -155 16 -205 20 -49 4 -107 11
-127 16 -21 5 -112 16 -203 24 -92 8 -170 17 -174 19 -4 3 -59 10 -122 16 -63
6 -139 17 -169 25 -30 7 -91 16 -135 20 -44 3 -105 12 -135 20 -30 7 -91 16
-135 20 -44 3 -100 12 -125 20 -25 7 -85 19 -133 25 -48 6 -99 15 -113 20 -14
6 -40 10 -58 10 -17 0 -59 7 -91 16 -33 8 -98 22 -145 29 -47 8 -128 24 -180
35 -52 12 -126 28 -165 36 -38 8 -90 19 -115 25 -25 6 -77 17 -117 25 -40 7
-80 17 -90 22 -10 5 -40 13 -68 16 -27 4 -70 14 -95 22 -52 16 -139 39 -225
58 -98 22 -212 53 -226 61 -7 5 -37 14 -68 21 -31 7 -87 22 -126 34 -38 12
-95 28 -125 36 -81 21 -190 54 -230 69 -42 16 -122 42 -170 56 -19 5 -51 16
-70 24 -19 7 -78 27 -130 44 -158 50 -191 62 -280 96 -47 19 -104 39 -127 45
-23 6 -45 14 -47 19 -3 5 -18 12 -33 15 -32 8 -119 40 -178 66 -22 10 -69 29
-105 43 -36 14 -79 33 -95 41 -17 9 -37 16 -46 16 -9 0 -22 7 -29 15 -7 8 -19
15 -27 15 -13 0 -96 32 -178 70 -100 45 -187 85 -265 122 -47 22 -125 59 -175
83 -49 23 -110 51 -135 63 -209 95 -402 197 -526 277 -32 21 -82 53 -109 71
-72 46 -226 124 -245 124 -28 0 -53 -36 -46 -64 6 -24 98 -129 216 -246 30
-30 82 -86 115 -124 33 -38 67 -76 75 -85 8 -9 55 -66 104 -126 50 -61 96
-117 103 -125 7 -8 45 -55 84 -105 39 -49 74 -92 78 -95 4 -3 34 -39 68 -80
179 -219 472 -473 638 -554 187 -91 209 -99 455 -189 30 -11 71 -25 90 -33 19
-7 51 -16 70 -20 19 -4 48 -12 65 -20 37 -15 113 -41 180 -58 28 -8 64 -19 80
-25 68 -24 133 -43 185 -56 30 -7 73 -20 95 -28 67 -24 117 -40 175 -53 30 -7
78 -20 105 -29 28 -9 73 -23 100 -30 28 -8 73 -21 100 -30 28 -9 80 -22 117
-30 37 -8 75 -18 85 -23 10 -5 38 -13 63 -17 25 -4 56 -13 70 -20 14 -7 45
-15 69 -19 24 -4 78 -16 120 -27 42 -12 99 -27 126 -35 28 -7 104 -25 170 -39
66 -14 134 -30 150 -36 17 -6 63 -17 104 -25 41 -7 88 -18 105 -23 17 -5 53
-12 79 -16 26 -3 62 -12 80 -19 18 -8 60 -17 95 -20 34 -4 79 -13 100 -20 21
-8 67 -17 102 -21 36 -4 83 -13 105 -20 22 -7 72 -16 110 -20 39 -3 90 -13
115 -20 25 -7 70 -16 100 -19 30 -4 93 -13 140 -21 165 -28 346 -54 420 -60
41 -4 107 -13 145 -20 39 -8 115 -17 170 -20 55 -3 141 -12 190 -20 50 -8 151
-17 225 -20 74 -4 153 -11 175 -16 22 -5 162 -16 310 -24 149 -8 324 -19 390
-24 66 -6 269 -15 450 -21 182 -6 418 -15 525 -20 250 -12 1258 -12 1545 0
758 31 961 41 1050 49 55 5 174 13 265 16 91 4 219 13 285 20 66 8 170 17 230
20 61 4 160 13 220 20 61 8 160 17 220 20 61 4 148 13 195 20 47 8 121 17 165
20 44 3 121 13 170 21 50 8 133 18 185 24 163 15 342 39 410 54 36 8 99 18
140 21 41 4 100 12 130 20 30 7 84 16 120 20 36 4 92 13 125 20 33 7 96 16
140 20 44 4 94 13 112 20 17 7 58 16 90 20 32 4 83 13 113 20 30 7 84 16 120
20 36 4 73 12 83 17 11 5 64 16 118 24 55 7 107 18 117 23 9 4 44 12 76 16 33
4 71 11 85 17 25 9 61 17 246 53 44 9 103 22 130 30 68 19 176 44 258 60 37 8
73 17 80 22 11 7 96 28 232 56 33 7 69 18 80 24 11 6 40 13 65 17 41 6 127 30
205 57 17 6 55 16 85 23 30 7 64 17 75 23 11 6 40 14 65 18 25 4 56 13 70 20
14 7 43 16 65 19 38 7 130 35 205 62 19 7 76 24 125 39 50 14 101 32 115 39
14 8 41 17 60 20 19 4 51 13 70 21 37 14 106 37 180 59 25 8 77 26 115 41 39
14 90 32 115 39 25 8 59 21 75 30 17 9 38 16 48 16 11 0 31 6 45 14 15 7 52
22 82 33 30 11 89 33 130 47 41 15 88 34 103 42 16 8 34 14 40 14 7 0 35 12
62 25 28 14 57 25 65 25 9 0 24 6 35 13 11 7 47 23 80 36 91 36 264 110 319
137 88 43 90 41 87 -134 -2 -136 17 -263 54 -348 8 -18 17 -49 21 -69 7 -39
77 -182 134 -275 102 -166 374 -443 526 -535 223 -135 380 -228 428 -254 33
-17 64 -35 70 -40 6 -5 25 -13 41 -17 17 -4 35 -10 40 -14 19 -15 146 -60 341
-123 65 -21 156 -22 225 -1 60 18 166 60 189 75 8 5 26 15 40 21 49 24 226
133 272 167 26 20 72 54 103 76 311 220 887 773 963 925 7 14 25 48 41 75 175
318 275 527 317 665 7 25 20 65 28 90 55 177 74 512 34 620 -9 25 -19 59 -23
75 -7 36 -42 129 -61 167 -8 14 -14 32 -14 40 -1 19 -92 194 -185 353 -44 75
-88 150 -98 168 -10 18 -28 50 -41 72 -13 22 -45 83 -70 135 -86 174 -92 184
-126 194 -40 12 -50 1 -61 -61 -4 -26 -13 -75 -19 -108 -5 -33 -10 -89 -10
-125 0 -36 -8 -127 -17 -203 l-17 -137 24 -71 c19 -59 72 -172 131 -279 8 -14
44 -70 80 -125 37 -55 75 -115 85 -133 38 -67 50 -88 75 -127 51 -79 131 -258
149 -334 18 -72 -144 -359 -289 -512 -9 -10 -32 -37 -51 -60 -130 -164 -481
-487 -645 -596 -152 -101 -217 -140 -312 -190 -59 -31 -119 -62 -133 -70 -14
-7 -32 -13 -41 -13 -8 0 -24 -7 -35 -15 -10 -8 -25 -15 -33 -15 -8 0 -37 -11
-65 -24 -28 -13 -69 -28 -91 -34 -22 -6 -71 -20 -110 -32 -38 -12 -104 -28
-146 -35 -42 -7 -94 -18 -115 -24 -22 -6 -91 -15 -154 -20 -63 -5 -155 -17
-205 -26 -170 -32 -276 -5 -508 128 -195 112 -445 344 -487 452 -4 11 -21 43
-37 70 -80 137 -133 387 -133 633 0 48 2 53 28 64 15 6 45 19 68 30 22 10 44
18 47 18 4 0 38 15 75 33 37 19 81 37 97 41 17 4 37 13 45 20 8 8 60 37 115
66 54 29 121 66 148 82 26 15 52 28 56 28 5 0 19 8 32 19 13 10 49 32 80 48
31 16 82 47 115 68 32 21 82 52 109 70 502 320 692 491 808 730 30 62 72 173
102 275 8 25 21 65 29 90 53 158 57 211 25 326 -45 164 -87 206 -314 319 -82
40 -184 94 -225 119 -100 59 -157 87 -397 196 -80 36 -97 65 -45 75 160 35
314 165 433 369 109 186 179 324 179 353 0 13 7 40 15 59 39 93 41 548 4 724
-5 25 -16 97 -24 160 -8 63 -18 129 -23 146 -5 17 -13 60 -16 95 -4 35 -14 84
-22 109 -17 56 -43 159 -56 225 -5 27 -14 58 -20 69 -6 11 -17 41 -24 66 -18
63 -50 153 -62 176 -10 18 -39 81 -62 134 -6 14 -21 43 -34 65 -13 22 -40 72
-60 110 -20 39 -40 77 -46 85 -5 8 -32 56 -60 105 -140 246 -218 354 -256 355
-7 0 -21 -8 -33 -17z"/>
<path d="M12024 8168 c-17 -12 -39 -35 -50 -52 -31 -51 -74 -140 -74 -154 0
-8 -7 -26 -15 -40 -38 -68 -92 -270 -115 -427 -6 -44 -16 -111 -22 -150 -17
-120 -4 -839 17 -898 20 -55 53 -82 89 -73 55 14 54 -3 53 498 0 450 0 465 21
526 12 34 22 74 22 88 0 28 30 76 70 111 29 26 82 29 120 8 49 -28 130 -7 130
34 0 6 19 49 41 98 40 84 41 90 35 160 -14 174 -218 345 -322 271z"/>
<path d="M23024 8039 c-15 -25 -43 -198 -43 -269 0 -75 -29 -317 -58 -483 -14
-80 -14 -99 1 -195 30 -201 47 -347 57 -472 5 -69 15 -163 23 -210 8 -47 18
-125 21 -175 4 -49 11 -108 16 -130 5 -22 13 -94 19 -160 5 -66 17 -167 25
-225 19 -136 44 -349 60 -525 7 -77 19 -185 25 -240 6 -55 20 -176 30 -270 11
-93 22 -215 25 -270 4 -55 13 -149 20 -210 8 -60 17 -155 20 -210 3 -55 12
-145 20 -200 7 -55 16 -172 20 -260 3 -88 12 -205 20 -260 7 -55 16 -154 20
-220 3 -66 10 -154 15 -195 6 -41 17 -184 25 -318 8 -134 17 -248 20 -252 3
-5 10 -98 15 -206 7 -171 11 -201 28 -223 28 -38 44 -32 71 24 46 94 65 224
82 546 12 227 10 284 -11 449 -5 41 -9 123 -10 182 0 59 -6 185 -14 280 -8 95
-18 238 -21 318 -3 80 -12 197 -20 260 -8 63 -17 176 -20 250 -4 74 -13 178
-20 230 -7 52 -16 149 -20 215 -3 66 -10 145 -15 175 -5 30 -14 118 -20 195
-6 77 -17 178 -25 225 -7 47 -17 128 -20 180 -4 52 -13 129 -21 170 -8 41 -14
91 -14 111 0 20 -9 88 -19 150 -11 63 -22 159 -26 214 -3 55 -12 132 -20 170
-7 39 -16 104 -20 145 -3 41 -12 111 -20 155 -7 44 -16 123 -20 175 -4 52 -13
127 -20 165 -8 39 -17 106 -20 150 -4 44 -11 105 -16 135 -5 30 -16 125 -24
210 -16 166 -29 289 -46 410 -6 41 -14 119 -18 172 -9 108 -32 156 -57 117z"/>
<path d="M6263 7638 c-58 -53 -133 -113 -191 -153 -83 -58 -187 -125 -217
-140 -16 -8 -48 -26 -70 -39 -22 -13 -69 -39 -105 -57 -36 -18 -72 -39 -80
-45 -8 -7 -42 -26 -75 -44 -33 -17 -78 -42 -100 -55 -22 -13 -47 -27 -55 -31
-28 -14 -278 -158 -325 -188 -303 -193 -353 -243 -461 -453 -43 -85 -47 -98
-48 -170 -1 -105 11 -106 111 -10 129 125 267 224 493 356 69 40 147 86 174
102 60 37 150 87 231 130 33 17 65 35 72 41 7 5 30 19 53 31 336 180 484 304
561 469 10 22 30 58 97 173 65 112 24 164 -65 83z"/>
<path d="M10895 7663 c-81 -20 -111 -116 -102 -328 6 -122 25 -227 46 -248 6
-6 40 -16 78 -23 180 -33 320 -118 396 -238 54 -86 57 -90 67 -116 6 -14 14
-32 19 -41 5 -8 21 -47 36 -85 15 -38 36 -88 46 -111 11 -23 19 -48 19 -56 0
-7 7 -36 15 -63 42 -144 159 -118 142 31 -9 76 -44 257 -55 285 -5 14 -13 61
-17 104 -12 130 -114 362 -218 498 -130 170 -325 358 -371 358 -5 0 -17 6 -25
14 -20 17 -50 25 -76 19z"/>
<path d="M17195 4408 c-31 -24 -94 -79 -129 -113 -11 -11 -28 -24 -37 -30 -9
-5 -61 -40 -115 -76 -55 -36 -112 -74 -129 -83 -102 -56 -143 -80 -165 -94
-14 -9 -54 -31 -90 -50 -36 -18 -83 -44 -105 -57 -22 -13 -47 -27 -55 -31 -12
-6 -342 -195 -418 -239 -266 -157 -371 -258 -466 -450 -108 -218 -73 -326 62
-188 75 77 314 263 338 263 3 0 32 18 65 40 33 22 64 40 68 40 5 0 19 8 32 18
13 10 44 29 69 42 25 14 52 30 60 36 8 6 44 27 80 46 36 19 76 41 90 50 39 25
111 66 155 89 22 11 56 30 76 42 39 24 149 89 205 122 177 105 217 139 285
245 69 106 74 115 86 140 7 14 17 32 23 40 5 8 15 26 20 40 6 14 24 49 41 79
48 85 22 131 -46 79z"/>
<path d="M8510 3781 c-125 -40 -167 -108 -157 -251 l7 -88 -46 -91 c-119 -239
-51 -434 169 -485 57 -13 34 -53 -68 -118 -305 -195 -718 -413 -1250 -658
-213 -98 -227 -107 -223 -143 4 -42 44 -58 91 -36 44 22 122 48 188 65 31 7
69 21 85 29 16 8 38 15 49 15 11 0 38 9 60 20 22 11 51 19 63 20 13 0 38 7 55
15 18 8 52 21 77 29 83 26 114 39 195 77 44 21 91 43 105 49 14 5 32 14 40 20
19 12 191 110 227 129 116 61 322 228 428 347 81 90 58 87 291 35 109 -25 152
-26 182 -5 25 17 112 144 112 163 0 7 9 24 19 39 44 60 50 216 11 267 -8 10
-45 77 -78 140 -27 51 -225 239 -323 306 -136 94 -243 132 -309 110z m111
-391 c53 -29 84 -247 42 -299 l-19 -23 -55 17 c-209 67 -245 125 -140 230 78
79 126 99 172 75z m252 -82 c86 -45 217 -222 217 -293 0 -33 -40 -39 -115 -19
-33 8 -87 20 -119 24 -88 13 -93 22 -71 117 10 43 20 96 23 118 7 62 23 76 65
53z"/>
<path d="M21454 3138 c-174 -150 -307 -237 -639 -419 -66 -36 -171 -95 -234
-130 -62 -35 -141 -80 -176 -99 -34 -19 -69 -40 -76 -46 -8 -6 -21 -13 -29
-16 -8 -3 -52 -30 -97 -59 -45 -30 -108 -70 -139 -88 -112 -69 -239 -220 -303
-361 -25 -56 -56 -193 -48 -214 11 -29 56 -18 95 21 68 69 160 150 209 184
106 72 221 147 277 180 32 19 75 44 95 56 67 39 86 50 131 75 25 14 61 35 80
47 19 11 49 28 65 36 17 9 48 27 70 41 22 13 54 32 70 40 17 8 47 25 67 37 20
12 79 46 130 76 242 142 328 215 388 335 11 23 31 59 45 81 13 22 31 54 39 70
9 17 30 55 46 85 32 58 37 113 10 118 -8 1 -43 -21 -76 -50z"/>
<path d="M23423 1777 c-10 -16 -105 -96 -163 -136 -83 -59 -252 -171 -257
-171 -2 0 -51 -27 -108 -60 -58 -33 -115 -65 -127 -70 -13 -6 -30 -14 -38 -20
-29 -18 -271 -155 -298 -168 -15 -7 -34 -17 -42 -22 -8 -5 -40 -24 -70 -41
-254 -148 -443 -287 -489 -359 -8 -14 -30 -43 -47 -65 -34 -43 -84 -136 -84
-157 0 -7 -7 -26 -15 -42 -22 -42 -31 -132 -15 -151 20 -25 48 -9 140 79 110
105 272 223 420 307 19 11 51 30 71 42 95 57 290 167 296 167 3 0 14 6 22 14
9 8 43 29 76 47 33 18 76 42 96 53 20 12 70 40 110 63 296 169 344 210 457
399 33 55 67 116 76 135 9 19 20 41 25 49 32 52 49 98 38 109 -15 15 -64 14
-74 -2z"/>
<path d="M18408 1363 c-33 -37 -117 -153 -203 -283 -102 -154 -93 -151 -195
-70 -41 32 -84 66 -95 74 -11 8 -33 26 -50 39 -29 23 -180 129 -220 155 -11 6
-31 17 -45 22 -14 6 -37 17 -52 25 -74 42 -133 1 -278 -195 -99 -135 -125
-197 -125 -302 0 -105 17 -128 150 -205 44 -26 99 -61 122 -77 23 -17 61 -42
84 -56 23 -14 68 -42 98 -62 110 -72 181 -72 257 0 65 62 157 213 204 337 5
14 14 25 19 25 15 0 93 -55 142 -100 88 -82 223 -194 276 -230 212 -145 318
-79 526 326 72 140 47 217 -103 319 -41 27 -129 91 -195 140 -187 140 -194
145 -246 145 -37 0 -50 -5 -71 -27z"/>
</g>
</svg>
