<?xml version="1.0" standalone="no"?>
<!DOCTYPE svg PUBLIC "-//W3C//DTD SVG 20010904//EN"
 "http://www.w3.org/TR/2001/REC-SVG-20010904/DTD/svg10.dtd">
<svg version="1.0" xmlns="http://www.w3.org/2000/svg"
 width="600.000000pt" height="600.000000pt" viewBox="0 0 600.000000 600.000000"
 preserveAspectRatio="xMidYMid meet">
<g transform="translate(0.000000,600.000000) scale(0.100000,-0.100000)"
fill="#000000" stroke="none">
<path d="M2370 5364 c-19 -1 -150 -8 -290 -14 -140 -7 -280 -18 -310 -25 -30
-8 -75 -17 -100 -20 -106 -15 -275 -81 -405 -158 -266 -158 -453 -407 -549
-727 -9 -30 -18 -68 -20 -83 -3 -15 -12 -60 -20 -100 -28 -135 -41 -535 -41
-1237 0 -702 13 -1102 41 -1237 8 -40 17 -85 20 -100 16 -103 83 -273 157
-398 156 -265 431 -471 732 -548 264 -69 493 -82 1415 -82 922 0 1151 13 1415
82 406 105 747 437 860 838 74 261 90 514 90 1445 0 932 -16 1188 -90 1445
-69 240 -216 457 -420 621 -130 104 -372 216 -515 238 -14 2 -61 11 -105 20
-142 27 -455 39 -1150 41 -374 2 -696 1 -715 -1z m1365 -413 c363 -8 377 -10
575 -62 41 -11 84 -24 95 -29 83 -36 107 -48 160 -84 187 -125 306 -319 346
-561 4 -27 13 -66 19 -85 21 -63 34 -1062 22 -1673 -11 -581 -10 -575 -78
-817 -59 -215 -257 -424 -469 -497 -116 -40 -140 -47 -185 -54 -25 -4 -72 -13
-105 -20 -49 -11 -259 -14 -1105 -14 -974 0 -1052 1 -1145 19 -55 10 -120 24
-144 32 -25 8 -52 14 -60 14 -23 0 -118 40 -181 77 -167 96 -306 270 -354 443
-68 243 -67 236 -78 818 -12 603 1 1608 21 1672 6 19 16 60 21 90 31 176 100
322 209 443 48 54 165 139 226 166 28 12 58 26 67 31 10 5 34 14 55 19 244 63
256 64 523 71 374 9 1163 10 1565 1z"/>
<path d="M4188 4525 c-76 -21 -157 -100 -178 -174 -13 -49 -13 -125 2 -174 17
-58 98 -142 155 -161 64 -22 158 -20 210 3 54 25 130 105 143 150 35 122 16
208 -63 287 -77 77 -163 99 -269 69z"/>
<path d="M2940 4207 c-3 -2 -36 -7 -75 -11 -138 -12 -315 -63 -405 -117 -8 -5
-26 -15 -40 -21 -155 -75 -408 -325 -474 -470 -9 -18 -20 -40 -24 -48 -11 -18
-33 -68 -55 -125 -95 -240 -94 -586 2 -840 13 -34 40 -93 53 -115 4 -8 14 -26
20 -40 80 -162 316 -398 478 -478 14 -6 32 -16 40 -20 65 -37 164 -72 291
-102 142 -34 363 -32 514 4 61 14 128 33 150 42 59 24 108 45 125 55 8 5 26
15 40 21 163 80 398 315 478 478 6 14 16 32 20 40 144 251 167 666 53 965 -13
35 -40 94 -53 115 -4 8 -15 30 -24 48 -66 146 -318 395 -474 470 -14 6 -32 16
-40 20 -80 46 -198 86 -310 106 -19 3 -45 8 -57 10 -38 8 -228 18 -233 13z
m286 -436 c258 -74 479 -300 551 -561 25 -92 25 -329 -1 -420 -75 -269 -297
-491 -566 -566 -92 -26 -328 -26 -420 0 -265 74 -493 300 -565 561 -26 94 -31
275 -11 376 20 95 68 214 116 284 42 61 164 183 225 225 64 44 185 95 270 114
98 22 305 15 401 -13z"/>
</g>
</svg>
