<?xml version="1.0" standalone="no"?>
<!DOCTYPE svg PUBLIC "-//W3C//DTD SVG 20010904//EN"
 "http://www.w3.org/TR/2001/REC-SVG-20010904/DTD/svg10.dtd">
<svg version="1.0" xmlns="http://www.w3.org/2000/svg"
 width="1200.000000pt" height="274.000000pt" viewBox="0 0 1200.000000 274.000000"
 preserveAspectRatio="xMidYMid meet">
<g transform="translate(0.000000,274.000000) scale(0.100000,-0.100000)"
fill="#000000" stroke="none">
<path d="M3491 2682 c-19 -9 -43 -33 -53 -52 -17 -35 -56 -181 -78 -295 -25
-130 -32 -162 -47 -225 -22 -94 -66 -225 -101 -300 -82 -176 -251 -369 -388
-444 -73 -39 -141 -113 -130 -141 7 -18 87 -42 184 -55 46 -6 93 -15 105 -20
12 -5 60 -21 107 -35 106 -32 118 -39 105 -61 -10 -15 -186 -91 -350 -150 -84
-31 -119 -28 -250 22 -49 19 -96 34 -102 34 -7 0 -36 -14 -64 -32 -128 -78
-256 -102 -313 -57 -61 48 -77 124 -96 464 -30 540 -45 695 -90 951 -12 66
-24 136 -27 157 -11 75 -38 51 -59 -53 -14 -66 -14 -75 5 -143 43 -158 64
-376 91 -932 25 -522 32 -552 151 -652 61 -51 98 -55 174 -19 50 24 89 60 160
149 20 26 45 47 54 46 16 0 51 -22 112 -71 103 -81 209 -102 267 -53 17 14 61
38 99 54 37 16 131 57 208 91 276 123 265 120 384 120 58 -1 136 -5 174 -9 37
-5 80 -6 95 -2 33 9 101 104 102 143 l0 27 -132 0 c-168 0 -303 26 -579 112
-70 21 -134 39 -143 39 -33 0 -30 31 6 63 87 78 157 223 237 492 11 35 43 173
61 260 29 142 74 313 94 355 24 52 50 61 86 32 18 -15 26 -33 30 -73 8 -80 29
-71 51 21 23 94 23 139 3 189 -10 27 -26 45 -49 55 -42 20 -52 20 -94 -2z"/>
<path d="M3897 2624 c-4 -4 -7 -37 -7 -73 -1 -36 -5 -86 -10 -111 -6 -28 -6
-72 0 -115 5 -38 14 -109 19 -157 6 -49 16 -125 21 -170 10 -86 36 -325 45
-413 4 -45 31 -358 54 -649 10 -117 23 -148 42 -100 30 76 19 406 -31 899 -10
95 -18 158 -40 333 -32 247 -43 347 -49 435 -5 65 -12 103 -22 113 -9 8 -18
11 -22 8z"/>
<path d="M11677 2614 c-4 -4 -7 -32 -8 -63 0 -31 -4 -78 -9 -106 -5 -28 -5
-79 0 -115 52 -395 113 -1012 136 -1377 4 -66 12 -120 20 -130 11 -17 13 -16
25 12 36 87 11 556 -61 1155 -17 140 -40 325 -50 398 -6 40 -10 96 -11 125 -2
81 -19 123 -42 101z"/>
<path d="M11382 2548 c-5 -7 -20 -57 -31 -112 l-22 -98 20 -137 c10 -75 24
-176 30 -226 7 -49 16 -117 21 -150 5 -33 14 -100 20 -150 7 -49 23 -146 36
-215 36 -178 57 -354 49 -396 -9 -52 -41 -78 -119 -98 l-68 -17 -76 38 c-67
33 -87 50 -152 128 -89 105 -129 131 -170 110 -37 -19 -101 -105 -150 -203
-43 -85 -77 -120 -139 -141 -82 -27 -132 -5 -151 67 -15 54 -62 152 -93 195
-27 36 -77 67 -109 67 -35 0 -81 -53 -124 -144 -30 -64 -38 -93 -42 -156 -8
-142 40 -187 221 -206 104 -10 93 -47 -61 -202 -165 -166 -285 -242 -462 -291
-90 -25 -144 -26 -207 -5 -145 49 -244 175 -262 333 -3 30 -12 56 -18 59 -16
5 -18 -133 -3 -143 6 -3 10 -15 10 -25 0 -38 66 -147 125 -206 66 -66 171
-132 253 -159 76 -25 186 -16 248 20 103 60 177 121 275 224 114 118 162 190
196 290 12 36 29 71 39 78 9 7 38 11 64 10 37 -2 55 4 87 26 41 29 102 87 126
121 14 18 15 18 78 -1 91 -29 215 -80 281 -115 31 -16 64 -28 74 -26 11 2 25
21 35 47 l16 45 79 1 c159 2 218 66 244 268 13 97 9 163 -20 352 -5 33 -14 94
-20 135 -6 41 -18 116 -25 165 -20 119 -34 229 -45 344 l-10 93 40 96 c22 52
40 105 40 117 0 12 -18 46 -40 76 -23 29 -43 65 -46 79 -9 42 -13 50 -22 50
-5 0 -14 -6 -20 -12z m-343 -1473 c31 -27 67 -115 57 -141 -7 -18 -17 -16
-131 28 -79 31 -115 53 -115 70 0 5 21 22 47 38 58 37 101 39 142 5z m-791
-75 c28 -17 33 -25 30 -53 -3 -27 -8 -33 -32 -35 -31 -4 -76 30 -76 56 0 15
28 52 39 52 3 0 21 -9 39 -20z"/>
<path d="M1275 2254 c-34 -30 -86 -64 -153 -101 -114 -62 -232 -134 -261 -159
-35 -29 -71 -92 -71 -124 0 -26 9 -25 45 6 33 28 167 113 260 163 32 18 71 41
86 52 15 10 32 19 38 19 20 0 101 125 101 155 0 21 -11 19 -45 -11z"/>
<path d="M4737 2228 c-13 -18 -32 -48 -43 -65 -10 -18 -26 -33 -36 -33 -10 0
-53 27 -94 60 -42 34 -81 59 -87 57 -5 -1 -32 -38 -59 -80 -34 -53 -48 -82
-43 -96 7 -23 152 -111 183 -111 20 0 62 46 75 83 10 26 31 21 99 -27 108 -76
124 -73 179 36 33 65 32 89 -6 106 -13 6 -41 26 -62 45 -66 59 -78 62 -106 25z"/>
<path d="M2938 2221 c-10 -9 -66 -46 -125 -81 -297 -175 -296 -174 -330 -224
-51 -75 -43 -129 13 -77 42 39 131 97 274 179 131 74 152 92 188 155 35 61 22
91 -20 48z"/>
<path d="M9184 2178 c-34 -42 -74 -125 -74 -158 0 -37 23 -65 85 -102 30 -18
55 -38 55 -44 0 -19 -120 -125 -212 -188 -92 -62 -106 -89 -40 -75 61 12 106
28 134 47 38 25 102 100 127 149 19 38 24 42 49 37 26 -5 29 -2 42 35 12 38
12 43 -8 64 -17 18 -21 35 -21 93 0 73 -12 114 -45 152 -28 31 -59 28 -92 -10z
m65 -94 c28 -23 52 -86 38 -100 -7 -7 -67 24 -94 49 -25 23 -29 47 -11 65 18
18 33 15 67 -14z"/>
<path d="M5760 2094 c-25 -19 -112 -73 -195 -120 -183 -105 -209 -124 -246
-182 -55 -87 -34 -111 42 -48 30 24 128 87 219 139 149 86 168 100 201 148 68
101 60 125 -21 63z"/>
<path d="M11113 2057 c-28 -23 -103 -70 -165 -104 -188 -103 -237 -140 -272
-205 -24 -44 -28 -59 -19 -69 9 -9 23 -2 63 31 28 23 119 82 203 130 185 107
200 119 237 184 51 88 35 99 -47 33z"/>
<path d="M1463 2038 c-29 -32 -73 -105 -73 -121 0 -29 138 -137 175 -137 12 0
33 12 47 28 26 27 68 102 68 121 0 6 -18 26 -39 46 -96 89 -140 104 -178 63z"/>
<path d="M532 1962 c-15 -16 -38 -43 -52 -62 l-25 -33 -68 52 c-38 28 -76 51
-86 51 -27 0 -131 -116 -131 -145 0 -18 14 -35 53 -63 96 -71 112 -78 143 -61
15 7 38 35 53 61 14 26 31 48 38 48 7 0 35 -21 64 -46 28 -25 67 -53 86 -62
l35 -17 28 32 c15 17 38 57 50 89 l22 59 -39 34 c-60 53 -115 91 -130 91 -8 0
-27 -13 -41 -28z"/>
<path d="M1197 1813 c-11 -10 -8 -72 4 -94 25 -48 -57 -70 -87 -24 -9 14 -13
32 -9 44 3 12 3 26 0 31 -10 16 -35 -8 -35 -34 0 -11 -9 -40 -19 -63 -16 -35
-26 -43 -56 -49 -44 -8 -72 14 -77 60 -5 48 -22 33 -35 -31 -23 -105 3 -163
74 -163 29 0 45 8 74 36 31 31 40 34 57 25 31 -16 77 -13 93 7 19 22 55 117
63 163 9 51 -3 99 -24 99 -9 0 -20 -3 -23 -7z"/>
<path d="M4904 1709 c-14 -23 -23 -163 -13 -207 7 -32 6 -48 -2 -58 -6 -8 -61
-41 -123 -75 -218 -120 -222 -124 -269 -256 -23 -62 -24 -73 -11 -84 8 -6 74
-18 147 -26 72 -7 145 -18 160 -23 40 -13 48 -7 85 63 41 77 58 101 70 93 5
-3 20 -47 32 -98 50 -212 104 -303 228 -386 92 -63 142 -77 262 -77 95 0 112
3 175 31 143 62 301 194 339 284 10 25 27 62 37 83 22 45 25 77 7 77 -7 0 -35
-25 -61 -55 -89 -101 -282 -215 -366 -215 -94 0 -197 102 -216 217 -13 79 62
163 180 204 56 19 228 15 279 -6 43 -18 51 -16 41 14 -11 37 -204 151 -255
151 -65 0 -148 -69 -224 -184 -65 -100 -88 -151 -110 -241 -25 -103 -26 -105
-42 -105 -51 0 -138 99 -183 210 -36 90 -90 322 -105 460 -24 203 -37 249 -62
209z m22 -425 c20 -124 18 -127 -101 -118 -141 12 -150 35 -42 117 39 30 83
67 96 81 14 14 26 24 28 22 2 -2 11 -48 19 -102z"/>
<path d="M2347 1454 c-30 -30 -77 -110 -77 -131 0 -26 133 -133 166 -133 41 0
122 119 109 160 -13 40 -125 130 -163 130 -5 0 -21 -12 -35 -26z"/>
<path d="M1547 1425 c-15 -15 -17 -31 -14 -112 l5 -95 44 -46 c125 -131 118
-171 -42 -245 -100 -46 -127 -46 -274 4 -128 43 -128 43 -160 25 -106 -62
-171 -88 -227 -93 -59 -6 -61 -5 -99 32 -21 21 -48 59 -59 85 -30 69 -54 232
-47 309 7 61 -2 91 -25 91 -5 0 -24 -31 -44 -69 -42 -85 -69 -107 -227 -191
l-122 -65 -42 -80 c-23 -44 -44 -92 -48 -106 -11 -47 8 -57 159 -79 195 -28
185 -29 225 32 38 58 70 75 70 37 0 -73 56 -157 134 -203 97 -56 180 -23 296
119 37 45 69 75 80 75 10 0 48 -22 83 -49 137 -105 226 -127 289 -72 18 15 47
35 64 44 83 43 154 177 154 290 -1 120 -50 258 -124 343 -30 35 -33 36 -49 19z
m-941 -347 c-4 -62 -10 -116 -12 -120 -13 -21 -224 5 -224 28 0 6 11 19 25 28
14 9 63 52 110 96 46 44 90 80 96 80 9 0 10 -29 5 -112z"/>
<path d="M6511 1268 c-44 -12 -138 -108 -170 -173 -52 -105 -35 -216 42 -279
52 -42 92 -59 195 -81 45 -10 87 -24 93 -31 18 -22 2 -58 -59 -136 -152 -191
-375 -339 -552 -369 -64 -10 -90 -10 -173 4 -123 21 -147 21 -147 1 0 -17 50
-41 130 -60 245 -58 330 -70 387 -55 49 13 162 100 244 187 114 122 182 233
215 353 10 35 23 65 30 68 6 2 38 -9 70 -26 174 -88 534 -139 894 -128 368 12
678 65 902 153 35 14 89 31 120 39 32 9 94 33 140 55 45 22 87 40 94 40 6 0
40 -9 74 -20 76 -24 109 -25 203 -4 64 14 77 22 120 65 26 27 53 49 61 49 8 0
42 -13 78 -30 125 -58 194 -50 216 27 6 21 20 63 31 93 22 58 21 92 -1 200
-14 68 -21 76 -43 54 -14 -14 -16 -32 -13 -110 4 -118 1 -122 -86 -99 -36 10
-79 26 -96 36 -25 16 -30 25 -30 59 0 22 5 49 12 59 6 10 8 27 4 37 -7 18 -8
18 -24 -4 -10 -12 -24 -48 -31 -80 -34 -145 -91 -193 -235 -194 -58 0 -91 4
-114 16 -31 16 -43 48 -22 61 11 7 14 55 3 55 -3 0 -31 -24 -62 -53 -67 -64
-154 -107 -276 -137 -49 -12 -106 -29 -125 -37 -39 -17 -162 -47 -230 -58 -25
-3 -76 -13 -115 -20 -244 -48 -763 -64 -975 -32 -129 20 -295 58 -385 87 -33
10 -80 25 -105 32 -38 11 -48 19 -66 57 -12 24 -26 73 -33 110 -7 36 -26 94
-42 127 -40 84 -83 111 -148 92z m-6 -183 c41 -32 15 -114 -36 -115 -39 0 -97
99 -72 123 12 13 88 7 108 -8z"/>
<path d="M3355 538 c-47 -55 -67 -94 -63 -121 4 -27 134 -127 165 -127 32 0
113 109 113 153 0 25 -133 137 -163 137 -8 0 -32 -19 -52 -42z"/>
<path d="M1254 393 c-13 -14 -34 -41 -45 -60 -23 -36 -40 -41 -60 -17 -16 20
-124 94 -137 94 -11 0 -54 -47 -86 -94 -46 -68 -38 -83 82 -166 62 -43 62 -43
83 -24 12 10 32 40 45 67 13 26 28 47 32 47 4 0 38 -25 76 -55 41 -33 78 -55
93 -55 47 0 123 112 109 162 -5 20 -141 128 -161 128 -3 0 -17 -12 -31 -27z"/>
</g>
</svg>
