<?xml version="1.0" standalone="no"?>
<!DOCTYPE svg PUBLIC "-//W3C//DTD SVG 20010904//EN"
 "http://www.w3.org/TR/2001/REC-SVG-20010904/DTD/svg10.dtd">
<svg version="1.0" xmlns="http://www.w3.org/2000/svg"
 width="1800.000000pt" height="612.000000pt" viewBox="0 0 1800.000000 612.000000"
 preserveAspectRatio="xMidYMid meet">
<g transform="translate(0.000000,612.000000) scale(0.100000,-0.100000)"
fill="#000000" stroke="none">
<path d="M7770 6004 c-60 -38 -147 -181 -174 -287 l-14 -55 10 -41 10 -40 47
-44 c25 -24 69 -56 96 -72 59 -33 95 -64 95 -80 0 -39 -224 -232 -430 -370
-113 -76 -137 -107 -100 -130 29 -18 267 63 342 117 60 42 198 225 236 312
l13 28 22 -7 c12 -4 34 -9 48 -12 l27 -5 16 33 c9 18 19 57 23 86 l6 54 -30
32 -31 32 -5 135 -6 135 -16 44 c-25 68 -42 97 -75 125 l-32 26 -26 0 c-15 0
-38 -8 -52 -16z m68 -215 c15 -11 36 -37 49 -58 l22 -38 3 -44 3 -43 -18 -4
c-46 -10 -190 97 -203 150 l-6 26 22 22 22 22 40 -6 c23 -4 52 -16 66 -27z"/>
<path d="M2742 5789 c-43 -28 -116 -140 -157 -243 l-15 -38 0 -60 0 -60 20
-28 c18 -25 142 -120 156 -120 3 0 19 -9 35 -21 l29 -20 0 -26 0 -26 -82 -83
c-46 -46 -90 -87 -99 -91 -9 -4 -30 -18 -45 -31 -34 -26 -178 -130 -258 -185
l-56 -38 0 -20 c0 -11 6 -22 14 -25 18 -7 164 25 172 37 3 5 12 9 20 9 94 0
268 161 366 338 l41 74 21 -7 c11 -4 34 -8 51 -9 l29 -1 18 45 c9 25 17 63 17
86 l1 40 -30 29 -30 29 0 109 0 109 -16 61 c-40 156 -118 219 -202 166z m86
-222 c55 -53 92 -163 61 -182 -28 -18 -186 90 -215 146 l-15 29 26 26 26 26
42 -6 42 -7 33 -32z"/>
<path d="M6943 5713 l-191 -3 -59 -63 c-32 -34 -77 -95 -101 -135 l-43 -73 3
-22 3 -22 32 -3 32 -3 42 28 43 28 163 4 163 3 0 -11 c0 -11 -130 -81 -150
-81 -26 0 -184 -88 -227 -125 l-47 -41 8 -12 c13 -21 62 -13 139 23 41 19 81
35 90 35 8 0 31 7 50 15 l36 15 79 0 79 0 20 23 c11 12 30 40 42 62 25 46 31
56 124 201 l68 105 -3 27 -3 27 -100 0 c-55 1 -186 -1 -292 -2z"/>
<path d="M9700 5020 l-15 -9 -12 -133 c-7 -73 -17 -169 -23 -213 -10 -81 -5
-200 11 -265 5 -19 13 -85 19 -145 21 -215 67 -617 75 -655 2 -14 9 -79 15
-145 6 -66 17 -178 24 -250 23 -210 50 -499 66 -715 24 -326 40 -513 45 -519
2 -5 5 -68 5 -142 2 -149 5 -175 26 -183 24 -9 41 4 58 47 l17 42 11 160 c5
88 7 196 4 240 -4 44 -11 168 -16 275 -5 107 -16 272 -24 365 -56 629 -74 819
-80 835 -5 14 -11 61 -42 330 -7 69 -21 175 -29 235 -19 136 -61 507 -85 751
-10 104 -16 116 -50 94z"/>
<path d="M13806 5014 c-9 -8 -16 -25 -17 -37 -1 -37 -16 -187 -29 -294 l-12
-103 11 -102 c6 -57 17 -157 25 -223 48 -395 56 -466 66 -582 4 -56 11 -106
14 -112 3 -5 10 -60 16 -123 5 -62 16 -180 25 -263 8 -82 22 -223 30 -313 8
-90 17 -184 20 -210 3 -26 10 -112 16 -192 5 -80 17 -228 25 -330 9 -102 19
-249 22 -327 l7 -142 12 -12 12 -12 24 16 25 16 5 28 c3 15 10 46 15 68 21 83
12 720 -13 850 -3 17 -10 91 -15 165 -26 358 -57 694 -70 760 -5 25 -11 77
-15 115 -8 92 -33 303 -46 385 -6 36 -15 103 -20 150 -5 47 -16 144 -24 215
-26 214 -45 394 -54 501 -11 127 -19 144 -55 108z"/>
<path d="M9144 5002 c-14 -9 -24 -35 -39 -102 -8 -30 -22 -91 -33 -135 -36
-146 -36 -187 -3 -400 6 -38 16 -99 21 -135 6 -36 15 -108 20 -160 5 -52 17
-142 26 -200 8 -58 22 -152 29 -210 33 -260 46 -351 61 -440 8 -52 19 -126 24
-165 9 -64 26 -144 49 -235 20 -76 41 -213 57 -377 l17 -171 -13 -62 c-23
-109 -79 -144 -299 -189 l-55 -12 -75 12 c-102 15 -268 56 -311 77 -43 21 -48
40 -18 71 60 65 134 192 159 273 l19 63 0 80 -1 80 -18 80 c-28 122 -88 270
-123 302 l-18 16 -56 -6 -56 -6 -55 -33 c-223 -134 -393 -409 -393 -636 l0
-66 26 -93 27 -93 -12 -13 c-10 -13 -58 -26 -271 -73 -36 -8 -84 -14 -107 -14
l-42 0 -44 30 c-25 17 -49 30 -55 30 -5 0 -38 27 -74 60 l-65 59 -42 70 c-23
39 -57 106 -76 150 l-34 80 -16 93 c-8 51 -20 143 -25 203 -5 61 -16 175 -24
255 -8 80 -19 201 -26 270 -6 69 -16 157 -21 195 -6 39 -15 113 -19 165 -9
103 -24 249 -40 400 -6 52 -15 151 -20 220 -27 363 -45 504 -67 522 l-13 10
-23 -15 -23 -15 -29 -83 -30 -84 1 -165 0 -165 16 -75 c23 -107 37 -200 48
-320 5 -58 13 -152 19 -210 6 -58 15 -161 21 -230 6 -69 18 -181 26 -250 7
-69 18 -233 24 -365 5 -132 15 -294 20 -360 l11 -120 -16 -100 c-27 -158 -52
-208 -140 -274 -50 -37 -74 -51 -150 -87 -22 -10 -56 -30 -75 -45 -47 -36 -90
-54 -180 -73 -41 -10 -102 -23 -135 -31 -298 -67 -587 -110 -960 -142 l-180
-15 -330 -5 -330 -5 -160 17 c-338 34 -576 79 -805 151 -25 8 -52 14 -62 14
-9 0 -45 13 -81 29 -35 16 -98 37 -138 46 -166 38 -215 82 -168 150 43 64 67
123 84 209 l18 88 -7 73 c-17 182 -63 334 -145 470 -22 38 -117 105 -148 105
-42 0 -128 -54 -200 -126 -30 -30 -103 -136 -103 -150 0 -3 -6 -20 -14 -37 -7
-18 -22 -54 -32 -82 l-19 -50 0 -165 0 -165 14 -35 c7 -19 29 -65 47 -102 19
-37 34 -76 34 -88 l0 -20 -27 -11 c-16 -7 -66 -16 -113 -21 l-85 -10 -25 11
c-43 20 -68 37 -128 83 l-57 44 -37 75 c-41 82 -60 132 -77 199 -17 69 -74
393 -85 480 -2 19 -8 71 -14 115 -13 96 -30 255 -42 385 -4 52 -13 131 -19
175 -6 44 -18 161 -26 260 -8 99 -20 225 -27 280 -6 55 -13 264 -15 465 -2
201 -8 369 -12 373 l-9 9 -21 -13 c-11 -8 -23 -27 -27 -44 -4 -16 -12 -43 -19
-60 -57 -138 -78 -398 -55 -685 5 -69 14 -186 20 -260 13 -175 28 -336 40
-430 6 -41 15 -131 20 -200 19 -254 30 -378 45 -505 8 -71 22 -195 30 -275 9
-80 23 -188 31 -240 8 -52 21 -135 29 -185 8 -49 21 -133 30 -186 8 -52 15
-111 15 -131 0 -20 7 -67 16 -105 l16 -68 -5 -134 -6 -133 -42 -54 c-125 -163
-274 -250 -519 -304 -30 -6 -84 -19 -120 -28 l-65 -16 -185 0 -185 0 -65 23
c-208 73 -380 239 -440 424 l-12 39 0 97 0 97 17 75 c9 41 23 86 31 101 8 14
14 33 14 41 0 7 7 28 16 45 l15 32 -6 20 c-20 62 -104 -39 -145 -173 -12 -40
-25 -81 -30 -93 -18 -46 -34 -186 -34 -309 l-1 -130 14 -80 c16 -92 42 -177
79 -255 l26 -55 82 -82 c45 -46 87 -83 93 -83 5 0 29 -13 53 -28 24 -16 81
-41 128 -56 l85 -28 95 -7 c52 -5 145 -5 205 -1 l110 7 88 27 c48 14 94 26
102 26 57 0 311 146 399 229 85 80 139 167 200 321 10 25 22 54 27 65 10 23
26 88 40 160 5 28 14 68 20 91 6 23 14 92 17 155 l7 114 18 3 c10 2 46 -10 80
-26 34 -16 79 -37 100 -46 l38 -16 59 0 60 0 72 34 c40 19 90 46 111 60 21 14
40 26 43 26 3 0 34 22 69 49 l64 49 20 -5 c11 -3 54 -37 96 -75 131 -122 143
-129 320 -196 154 -58 231 -84 315 -104 47 -11 110 -26 140 -33 139 -35 192
-45 227 -45 21 0 85 -6 143 -14 275 -38 708 -50 1005 -27 444 34 625 54 795
86 201 38 253 49 355 76 163 44 205 58 380 125 22 9 64 20 94 25 106 19 168
78 219 209 27 69 80 265 105 388 8 40 18 76 21 79 7 7 45 -75 46 -97 0 -48 73
-212 132 -300 106 -160 307 -250 423 -190 22 12 56 25 75 30 94 24 264 103
370 172 l62 40 51 4 52 5 55 -30 c149 -80 261 -123 380 -147 l85 -17 120 -1
120 -1 50 19 c194 73 260 198 284 537 l10 135 -9 129 c-6 72 -17 182 -25 245
-16 123 -18 135 -41 280 -8 52 -21 142 -29 200 -9 58 -22 148 -30 200 -37 225
-73 507 -86 662 l-10 127 36 88 c20 48 45 107 55 129 78 170 76 191 -31 336
-68 91 -75 104 -83 162 l-7 46 -19 10 c-22 12 -22 12 -36 2z m-628 -2271 c64
-39 120 -150 140 -278 l6 -41 -18 -32 c-37 -62 -175 -150 -235 -150 l-36 0
-28 22 c-93 73 -185 205 -185 264 0 62 95 172 184 213 l41 19 50 1 50 1 31
-19z m-5499 -157 c39 -29 105 -124 133 -190 l20 -46 0 -66 0 -67 -23 -40 c-12
-21 -42 -54 -65 -72 l-44 -33 -49 0 -49 0 -37 20 c-51 27 -170 144 -193 191
-25 49 -25 74 2 146 l22 58 61 62 c65 65 86 74 150 67 l39 -5 33 -25z"/>
<path d="M2566 4235 c-36 -42 -74 -88 -83 -103 -10 -15 -26 -36 -35 -46 -10
-11 -23 -34 -29 -53 l-11 -34 16 -24 c9 -13 55 -50 102 -81 155 -102 175 -127
132 -168 -55 -51 -178 -236 -178 -266 0 -46 -1 -45 231 -202 l87 -58 31 0 c84
0 211 183 211 303 l0 31 -46 43 c-26 24 -51 43 -57 43 -18 0 -147 92 -159 113
l-11 21 18 11 c27 15 115 96 115 106 0 4 12 30 28 56 73 128 69 164 -28 232
-25 17 -76 58 -115 91 l-70 60 -42 0 -42 0 -65 -75z"/>
<path d="M7577 4038 c-80 -94 -157 -199 -164 -226 -9 -39 13 -63 130 -142 61
-42 117 -86 124 -100 l12 -23 -43 -51 c-63 -76 -139 -196 -149 -235 -13 -51
49 -109 245 -228 l70 -43 32 0 33 0 42 43 c23 23 60 74 82 114 l40 72 5 48 6
48 -22 27 c-12 16 -63 53 -114 83 -108 65 -136 88 -136 115 l0 20 19 0 19 0
49 54 c26 30 63 83 81 118 l32 63 0 45 c0 55 -5 63 -57 98 -22 15 -78 57 -124
95 l-83 67 -37 0 -37 0 -55 -62z"/>
<path d="M16728 4062 c-12 -29 -220 -168 -393 -262 -44 -24 -97 -54 -117 -67
-21 -12 -40 -23 -43 -23 -6 0 -89 -50 -190 -115 -105 -68 -195 -179 -195 -242
0 -12 -4 -25 -10 -28 -5 -3 -10 -19 -10 -36 l0 -29 21 0 21 0 61 54 c84 73
345 246 372 246 2 0 61 34 130 75 70 41 129 75 131 75 10 0 121 81 140 102 33
36 121 191 129 226 l7 32 -25 0 c-14 0 -27 -4 -29 -8z"/>
<path d="M11597 3818 c-73 -74 -140 -202 -152 -290 l-6 -47 11 -40 11 -41 42
-35 c23 -19 74 -54 112 -78 l70 -42 3 -20 2 -20 -67 -71 c-86 -90 -197 -175
-425 -327 l-48 -32 0 -29 0 -29 43 6 c233 33 392 149 522 382 44 79 46 79 83
58 l30 -17 21 18 c11 10 25 39 31 65 6 25 14 56 17 67 l5 22 -35 39 -36 39 6
76 6 75 -18 79 c-9 43 -28 103 -42 132 l-25 52 -32 25 c-18 14 -45 25 -60 25
l-27 0 -42 -42z m99 -200 c40 -36 74 -103 74 -149 l0 -30 -13 -5 c-32 -12
-161 69 -200 126 -21 30 -22 54 -1 74 l15 16 44 0 44 0 37 -32z"/>
<path d="M15395 3638 c-11 -6 -41 -29 -68 -51 -51 -42 -115 -87 -123 -87 -4 0
-26 -13 -51 -30 -24 -16 -46 -30 -49 -30 -2 0 -21 -11 -42 -24 -20 -13 -62
-37 -92 -53 -343 -185 -422 -243 -493 -359 l-36 -59 -7 -53 -7 -52 23 0 22 0
52 48 c50 45 166 128 226 161 61 34 309 177 410 237 58 34 116 75 130 91 58
64 130 188 130 223 0 10 5 22 10 25 32 20 -1 32 -35 13z"/>
<path d="M12528 3262 c-54 -21 -192 -306 -211 -435 l-6 -38 15 -6 14 -5 45 41
c24 22 49 41 54 41 l10 0 -6 -17 c-3 -10 -19 -34 -34 -53 -34 -44 -52 -84 -79
-176 l-20 -70 -3 -125 -2 -124 19 -58 19 -58 -14 -25 c-23 -43 -101 -72 -243
-89 l-59 -7 -48 -36 c-52 -38 -62 -57 -104 -177 -59 -174 -59 -183 25 -350
l60 -120 0 -35 0 -35 -32 -62 c-46 -90 -183 -246 -319 -363 -35 -30 -68 -60
-74 -66 -18 -20 -217 -163 -263 -189 -10 -5 -47 -28 -82 -50 -82 -51 -178 -94
-300 -133 l-95 -32 -140 -6 -140 -7 -125 12 c-69 7 -164 22 -212 33 l-87 21
-16 -13 c-29 -24 9 -69 68 -81 18 -4 57 -16 87 -27 30 -11 127 -36 215 -57 88
-20 173 -41 189 -46 16 -5 39 -9 51 -9 13 0 45 -6 71 -14 27 -8 77 -22 112
-32 l63 -17 66 12 c252 46 686 411 886 744 26 43 47 80 47 82 0 3 13 33 29 67
39 86 57 136 66 183 4 22 10 45 15 50 15 19 33 149 37 270 l5 120 20 22 c11
12 34 27 51 33 78 29 183 74 197 85 8 6 35 21 60 33 25 13 59 32 75 42 17 11
36 23 43 26 7 4 48 26 90 50 l77 44 55 0 c60 0 199 -23 270 -44 25 -8 79 -22
120 -31 83 -20 165 -45 222 -69 21 -9 49 -16 64 -16 l27 0 36 39 36 39 15 48
15 49 0 130 0 130 -18 40 c-93 203 -269 411 -497 588 -193 148 -350 267 -354
267 -3 0 -24 13 -48 29 -48 31 -84 42 -110 33z m260 -489 c29 -33 102 -170
102 -193 0 -5 7 -25 16 -44 l17 -34 -21 -34 c-27 -44 -103 -115 -172 -161
l-55 -37 -29 0 -29 0 -49 30 c-26 17 -51 30 -55 30 -3 0 -31 21 -61 47 l-55
47 -17 39 -18 39 12 36 11 37 75 76 c159 162 259 199 328 122z m240 -160 c27
-17 132 -96 180 -137 85 -70 187 -177 217 -227 l35 -57 0 -66 0 -66 -30 0
c-16 0 -44 6 -62 14 -35 15 -194 65 -293 92 -33 9 -82 22 -110 30 -27 7 -62
16 -77 19 l-28 5 0 20 c0 10 9 34 20 53 11 19 32 63 45 98 l25 63 0 68 0 68
20 20 c24 24 24 24 58 3z"/>
<path d="M16018 2690 c-105 -31 -381 -253 -409 -328 l-9 -24 12 -15 12 -14 25
6 c13 3 54 20 90 37 l66 32 127 4 127 4 78 -17 c43 -9 98 -23 123 -31 25 -8
74 -23 110 -34 180 -53 240 -85 240 -126 l0 -23 -26 -20 c-45 -35 -126 -71
-289 -126 -39 -13 -81 -28 -95 -33 -32 -13 -168 -51 -305 -86 -133 -34 -196
-46 -234 -46 l-40 0 -16 30 c-8 16 -15 40 -15 54 0 131 -205 455 -314 496
l-29 11 -36 -12 c-100 -33 -212 -195 -283 -408 l-32 -96 0 -105 0 -105 27 -52
26 -51 68 -44 c74 -47 153 -78 201 -78 17 0 53 -4 79 -9 26 -6 69 -13 96 -16
l47 -6 0 -15 c0 -15 -22 -58 -55 -109 -18 -27 -38 -52 -125 -160 -142 -175
-450 -430 -620 -514 -25 -12 -52 -26 -60 -31 -37 -21 -171 -69 -230 -83 -36
-8 -90 -21 -120 -28 l-55 -13 -135 0 -135 1 -75 16 c-66 14 -151 22 -187 18
-7 0 -13 -10 -13 -21 l0 -19 23 -13 c73 -42 252 -91 427 -117 36 -5 94 -16
130 -25 106 -27 270 -47 345 -44 l70 3 45 24 c205 107 634 541 721 731 9 19
29 62 44 95 29 62 49 130 67 228 l11 59 23 14 c12 9 56 20 96 26 l73 10 55 28
c30 15 87 35 125 45 39 9 86 23 105 30 205 80 314 127 480 207 289 141 266
131 445 183 101 29 371 43 493 26 37 -6 104 -15 148 -21 l81 -12 32 16 c17 9
42 33 54 54 58 91 118 205 124 232 l5 30 -11 14 -12 14 -168 -5 -169 -6 -93
17 c-151 27 -249 46 -324 62 -173 39 -384 108 -490 161 -197 100 -458 156
-567 123z m-855 -646 c56 -19 77 -45 77 -96 l0 -38 -20 -20 -20 -20 -34 0 -33
0 -29 22 c-16 13 -37 32 -46 43 l-17 20 -1 37 0 37 22 15 c28 20 43 20 101 0z"/>
<path d="M13234 1593 c-40 -37 -162 -120 -248 -169 -38 -21 -80 -46 -95 -55
-14 -8 -55 -32 -91 -51 -36 -20 -89 -50 -118 -67 -29 -17 -55 -31 -58 -31 -12
0 -172 -112 -203 -142 -68 -67 -137 -204 -123 -246 6 -19 47 -14 68 9 29 32
261 199 277 199 3 0 62 34 131 75 69 41 127 75 130 75 6 0 206 121 231 140 35
26 84 95 130 184 l44 86 -19 10 c-24 13 -21 14 -56 -17z"/>
<path d="M16698 1388 c-46 -60 -45 -58 -82 -108 -48 -65 -66 -104 -66 -143 l0
-34 36 -32 c96 -88 260 -181 318 -181 l32 0 31 33 c35 36 81 124 108 206 l17
53 -19 27 c-23 31 -101 93 -195 157 -38 25 -70 50 -74 55 -3 5 -20 9 -39 9
l-33 0 -34 -42z"/>
</g>
</svg>
