<?xml version="1.0" standalone="no"?>
<!DOCTYPE svg PUBLIC "-//W3C//DTD SVG 20010904//EN"
 "http://www.w3.org/TR/2001/REC-SVG-20010904/DTD/svg10.dtd">
<svg version="1.0" xmlns="http://www.w3.org/2000/svg"
 width="1800.000000pt" height="366.000000pt" viewBox="0 0 1800.000000 366.000000"
 preserveAspectRatio="xMidYMid meet">
<g transform="translate(0.000000,366.000000) scale(0.100000,-0.100000)"
fill="#000000" stroke="none">
<path d="M16928 3593 c-16 -19 -38 -83 -58 -172 l-13 -54 12 -86 c7 -47 17
-113 22 -146 5 -33 13 -100 19 -150 5 -49 16 -139 24 -200 8 -60 22 -164 30
-230 9 -66 23 -167 31 -225 9 -58 20 -157 25 -220 5 -63 12 -128 15 -145 4
-16 13 -86 20 -155 8 -69 19 -156 25 -195 5 -38 9 -96 10 -127 l0 -56 -31 -31
-31 -31 -40 0 -40 0 -42 28 c-22 15 -59 36 -80 47 -22 11 -63 43 -91 71 l-53
50 -31 63 c-41 80 -71 175 -71 225 0 22 -4 67 -10 100 -5 34 -14 117 -20 186
-10 122 -25 269 -54 540 -9 74 -20 200 -26 280 -5 80 -12 161 -15 180 -4 19
-10 75 -14 124 l-8 88 -14 9 c-30 19 -43 9 -72 -61 -30 -71 -28 -312 3 -415
12 -37 27 -186 44 -421 7 -99 16 -186 20 -193 8 -12 20 -212 32 -521 l6 -155
-17 -59 -17 -59 -47 -46 c-45 -45 -160 -111 -192 -111 -76 0 -155 81 -205 210
-22 59 -38 69 -69 46 l-19 -14 -6 -118 -5 -119 -14 -23 -13 -24 -31 5 c-182
30 -242 79 -223 183 l9 55 -16 16 -16 16 -11 -27 c-5 -15 -10 -33 -10 -39 -1
-41 -52 -156 -82 -183 -48 -44 -164 -83 -246 -84 l-43 0 -39 20 c-21 11 -48
33 -60 50 l-21 29 7 36 6 35 -11 0 c-6 0 -30 -17 -54 -38 -79 -72 -197 -137
-307 -170 -19 -6 -53 -14 -75 -18 -22 -3 -79 -19 -128 -35 -48 -16 -97 -29
-109 -29 -12 0 -40 -6 -63 -14 -22 -8 -85 -22 -140 -31 -55 -9 -134 -23 -175
-30 -137 -25 -252 -36 -517 -47 l-263 -11 -207 12 c-115 6 -233 16 -263 22
-180 34 -298 61 -405 93 -160 47 -247 88 -278 130 -47 65 -71 231 -87 611 -13
305 -28 538 -40 615 -5 36 -14 119 -20 185 -11 128 -30 259 -55 390 -8 44 -19
113 -24 153 -9 81 -18 95 -52 90 l-24 -3 -7 -35 c-3 -19 -12 -65 -19 -102
l-13 -66 13 -49 c19 -74 40 -180 51 -258 6 -38 15 -97 20 -130 5 -33 12 -109
16 -170 3 -60 10 -144 15 -185 5 -42 14 -193 19 -335 22 -618 35 -757 79 -873
l16 -44 47 -46 c58 -58 86 -73 306 -156 63 -24 267 -68 397 -86 297 -42 999
-27 1260 25 39 8 108 21 155 30 82 16 166 38 222 57 14 5 41 13 60 18 18 5 58
18 88 30 86 33 173 60 197 60 12 0 24 4 27 9 3 5 18 12 33 16 30 7 95 55 133
97 33 38 47 35 105 -17 l49 -45 54 -11 53 -12 67 13 c88 17 139 41 194 90 l46
40 30 0 c17 0 59 -13 94 -28 34 -16 95 -37 135 -46 l72 -18 29 7 c50 10 77 64
107 207 3 15 13 32 23 37 l18 10 54 -71 c30 -39 72 -85 93 -102 l38 -31 72 -3
72 -4 28 22 c38 30 69 82 91 155 10 33 25 80 32 104 8 25 14 53 14 63 0 30 32
99 44 95 6 -2 14 -22 18 -46 4 -23 24 -76 45 -119 l37 -77 49 -52 c93 -99 284
-158 381 -118 l36 15 23 38 23 37 17 90 c9 50 21 123 27 163 l10 73 -10 187
c-6 103 -13 194 -16 202 -3 8 -12 87 -20 175 -17 190 -51 514 -74 700 -19 156
-31 328 -25 359 9 44 41 136 59 171 24 45 20 61 -28 123 -24 32 -56 81 -70
110 -29 57 -35 61 -58 35z"/>
<path d="M9412 3458 c-28 -35 -48 -279 -33 -413 5 -49 17 -151 25 -225 8 -74
17 -146 20 -160 3 -14 10 -74 16 -135 6 -60 17 -173 25 -250 29 -262 66 -702
85 -993 11 -179 15 -191 59 -163 l14 9 11 64 c15 100 2 617 -19 723 -4 17 -13
111 -21 210 -8 99 -21 234 -28 300 -31 259 -47 384 -61 490 -8 61 -22 182 -30
270 -20 205 -29 263 -42 276 l-10 10 -11 -13z"/>
<path d="M17314 3388 l-18 -73 0 -170 0 -170 12 -55 c12 -55 20 -120 47 -385
8 -77 21 -198 30 -270 8 -71 22 -211 30 -310 8 -99 22 -261 31 -360 8 -99 19
-246 22 -327 l7 -147 12 -12 11 -11 24 23 24 24 13 120 13 120 -6 55 c-3 30
-10 132 -15 225 -5 94 -15 213 -21 265 -6 52 -15 154 -20 225 -9 122 -16 188
-55 505 -8 69 -20 168 -25 220 -6 52 -13 104 -15 115 -6 19 -30 234 -41 360
-7 86 -13 105 -28 105 l-13 0 -19 -72z"/>
<path d="M4151 3425 c-13 -7 -26 -17 -30 -22 -13 -18 -155 -108 -261 -166 -30
-16 -78 -42 -107 -58 -161 -87 -248 -174 -267 -266 l-7 -32 19 -10 18 -10 40
35 c39 36 197 144 209 144 4 0 78 43 165 95 l157 95 25 32 c41 54 78 127 78
153 0 28 -4 29 -39 10z"/>
<path d="M16025 3345 c-16 -7 -82 -35 -145 -61 -63 -26 -148 -62 -188 -81 -41
-18 -79 -33 -86 -33 -7 0 -16 -4 -22 -9 -5 -4 -61 -31 -125 -59 -186 -82 -252
-112 -281 -128 -14 -7 -33 -14 -41 -14 -8 0 -20 -7 -27 -15 -7 -8 -18 -15 -26
-15 -7 0 -50 -17 -96 -39 -46 -21 -114 -53 -153 -71 -38 -17 -101 -47 -140
-65 -38 -19 -115 -55 -170 -81 -379 -178 -1076 -526 -1130 -564 -5 -4 -41 -24
-80 -45 -124 -66 -248 -179 -357 -322 l-40 -53 6 -15 5 -15 26 0 27 0 56 43
c54 41 273 177 286 177 3 0 36 19 73 41 113 69 368 205 563 300 58 28 186 91
285 139 213 105 434 210 440 210 2 0 74 34 160 75 87 41 159 75 161 75 3 0 32
13 67 29 160 76 237 111 292 136 33 15 85 38 115 52 30 14 69 32 85 39 55 24
150 66 190 84 22 10 58 26 80 36 55 24 110 65 217 163 l49 45 -3 25 -3 26 -20
2 c-11 1 -33 -4 -50 -12z"/>
<path d="M9007 3258 c-7 -18 -22 -67 -33 -108 l-19 -75 1 -100 c1 -55 6 -118
12 -140 6 -22 16 -85 22 -140 10 -95 33 -279 45 -355 3 -19 12 -84 20 -145 26
-195 34 -249 50 -320 8 -38 20 -99 26 -135 5 -36 14 -78 19 -95 5 -16 14 -82
19 -145 l10 -115 -8 -44 c-14 -72 -100 -121 -216 -124 l-50 -1 -75 36 c-92 44
-99 51 -211 194 -84 107 -126 134 -184 120 -60 -15 -148 -128 -212 -271 -35
-81 -108 -165 -141 -165 -5 0 -24 -8 -43 -17 l-34 -18 -120 2 -120 1 -71 21
-71 22 -36 30 -37 30 0 63 c0 34 4 66 9 72 26 26 72 191 78 275 l5 67 -26 40
c-45 71 -127 139 -241 199 -84 45 -200 53 -465 33 -124 -10 -200 -18 -445 -51
-49 -6 -126 -15 -170 -19 -44 -4 -111 -13 -150 -19 -172 -26 -293 -41 -330
-41 -22 0 -92 -6 -155 -14 -212 -27 -324 -38 -500 -47 -96 -5 -231 -13 -300
-19 -69 -5 -294 -10 -500 -10 l-374 0 -101 15 c-224 35 -328 79 -327 141 l0
25 28 31 c120 126 562 379 839 479 96 35 150 65 186 101 35 37 89 125 89 146
l0 20 -21 5 -21 6 -52 -20 c-28 -11 -60 -24 -71 -29 -11 -5 -42 -18 -70 -30
-27 -12 -77 -35 -110 -52 -72 -38 -141 -72 -254 -128 -399 -194 -536 -332
-665 -666 l-35 -91 6 -24 c18 -73 116 -121 317 -155 l98 -17 392 6 c394 6 688
18 891 38 61 6 182 15 270 19 177 9 336 23 495 45 58 8 150 17 205 20 99 5
163 13 340 40 50 8 151 21 225 30 74 8 180 22 235 30 55 9 140 15 190 15 l89
0 46 -17 c74 -27 146 -80 210 -154 l60 -70 0 -25 c0 -13 -1 -24 -2 -25 -2 0
-100 -11 -218 -24 -243 -26 -347 -40 -471 -60 -47 -8 -101 -15 -119 -15 -19 0
-77 -6 -130 -14 -52 -8 -147 -22 -210 -31 -63 -9 -158 -23 -210 -30 -52 -8
-158 -22 -235 -30 -77 -9 -178 -23 -225 -31 -47 -8 -101 -14 -120 -14 -19 0
-91 -7 -160 -15 -306 -39 -352 -44 -805 -89 -178 -18 -533 -36 -695 -36 -122
0 -518 26 -542 35 -29 11 -285 30 -328 24 l-45 -6 -65 14 c-36 8 -78 21 -93
29 -16 8 -34 14 -41 14 -7 0 -25 13 -40 29 l-28 30 6 38 c4 21 12 53 19 70
l11 33 -11 11 -11 11 -20 -11 -19 -10 -24 -63 -23 -63 -51 -50 -52 -50 -59
-18 c-32 -9 -76 -17 -97 -17 l-37 0 -38 24 c-73 46 -161 161 -162 211 0 12 -5
26 -10 31 -10 10 -20 73 -40 254 -6 52 -18 116 -26 143 l-16 47 -13 0 c-26 0
-36 -41 -44 -183 l-9 -142 -16 -35 c-23 -51 -45 -74 -106 -111 l-55 -34 -56 0
-56 0 -58 45 c-31 24 -59 50 -62 57 -3 7 -16 13 -29 13 l-24 0 -10 -26 c-38
-99 16 -264 97 -295 l23 -9 0 -21 c0 -12 -15 -49 -32 -82 l-33 -61 -120 -121
-120 -122 -87 -61 c-248 -174 -483 -235 -731 -187 -97 19 -148 19 -172 2 l-18
-14 14 -9 c24 -15 113 -43 137 -44 13 0 32 -5 43 -10 10 -6 38 -15 61 -20 72
-15 159 -37 243 -60 l80 -22 71 0 71 1 58 31 c264 143 484 399 576 674 l34 98
49 -5 50 -4 43 14 c77 26 110 71 142 188 l17 60 14 0 15 0 8 -45 c40 -221 121
-367 231 -421 l40 -19 42 0 43 0 35 21 c20 12 36 24 36 28 0 3 34 41 75 84
l76 77 20 0 c11 0 52 -21 92 -47 40 -26 110 -66 157 -89 l85 -42 70 -11 c39
-7 106 -18 150 -26 269 -50 939 -55 1310 -10 66 8 181 21 255 30 74 9 173 21
220 27 47 6 119 14 160 18 209 23 482 57 560 70 30 5 84 12 120 15 64 6 180
22 375 50 55 8 154 21 220 30 66 9 143 20 172 26 29 6 87 14 130 19 43 5 112
14 153 20 328 47 555 73 600 68 l35 -3 6 -35 c3 -19 18 -61 34 -93 l28 -57 51
-38 c58 -42 85 -56 171 -83 l60 -19 75 1 75 0 60 38 60 38 43 54 c23 30 48 60
54 67 11 14 16 13 78 -9 184 -64 222 -80 358 -148 l103 -51 18 9 c15 9 39 52
55 104 l5 17 96 0 96 0 54 26 54 25 40 46 39 46 16 61 c9 34 20 108 26 165
l10 105 -10 130 c-6 72 -13 143 -16 158 -3 15 -12 74 -20 130 -8 57 -22 146
-30 198 -8 52 -22 142 -30 200 -9 58 -22 148 -30 200 -8 52 -17 137 -20 188
l-7 93 11 22 c39 78 92 221 92 246 0 10 -25 56 -55 102 -30 46 -55 90 -55 97
0 24 -30 72 -45 72 -8 0 -21 -15 -28 -32z m-422 -1913 l44 -45 6 -54 c4 -30 4
-60 0 -66 l-7 -12 -30 6 c-16 3 -44 12 -61 21 -18 8 -59 25 -92 37 -33 13 -71
30 -84 40 l-23 16 6 20 c12 38 93 79 159 81 l38 1 44 -45z"/>
<path d="M12334 3048 l-17 -32 -1 -52 -1 -52 40 -39 c41 -40 105 -125 105
-140 0 -4 8 -21 17 -38 l18 -30 0 -172 0 -172 -13 -13 c-15 -15 -16 -68 -2
-68 6 0 22 7 35 16 l25 16 0 22 c0 12 5 27 12 34 6 6 15 30 19 54 5 24 14 66
20 94 l12 52 -10 83 c-14 101 -30 183 -45 224 -29 79 -76 161 -114 201 l-43
44 -20 0 -20 0 -17 -32z"/>
<path d="M1104 2930 c-26 -10 -87 -91 -114 -151 l-20 -44 0 -47 0 -48 28 -30
c15 -17 51 -47 81 -68 30 -20 56 -43 59 -50 5 -16 -96 -117 -163 -163 -27 -19
-54 -38 -60 -42 -5 -4 -41 -29 -80 -56 l-70 -47 0 -20 0 -19 37 -3 37 -3 38
16 c21 9 51 23 66 31 16 8 34 14 41 14 19 0 111 99 164 175 l48 70 31 3 c41 4
52 19 59 78 l6 49 -21 19 -21 19 0 76 c0 169 -64 274 -146 241z m16 -150 c35
0 81 -87 66 -125 l-6 -15 -22 12 c-13 7 -42 28 -65 46 l-43 33 0 19 c0 22 28
42 48 35 8 -3 18 -5 22 -5z"/>
<path d="M8390 2876 c-56 -31 -130 -170 -130 -246 l0 -39 32 -37 c17 -20 41
-40 52 -45 46 -20 81 -46 84 -62 l3 -17 -51 -54 c-28 -30 -70 -67 -93 -82 -23
-16 -73 -52 -112 -80 -38 -28 -78 -53 -88 -57 -19 -7 -38 -46 -30 -60 11 -18
119 6 197 43 l49 24 54 55 c30 31 68 81 85 111 17 30 35 60 40 67 l10 12 18
-11 c38 -24 70 17 70 91 l0 38 -20 18 -19 17 0 82 0 81 -18 50 c-35 99 -77
131 -133 101z m46 -161 l33 -25 10 -37 c18 -63 -4 -69 -74 -22 -26 17 -51 42
-57 55 l-11 23 13 16 c18 22 49 18 86 -10z"/>
<path d="M10645 2828 c-20 -24 -50 -69 -66 -100 l-29 -57 0 -55 0 -54 37 -32
c20 -18 58 -45 85 -62 26 -16 48 -36 48 -43 0 -31 -126 -141 -288 -250 -40
-27 -78 -55 -84 -62 l-10 -13 12 -15 12 -15 42 6 c22 4 55 12 71 19 17 7 49
20 72 30 54 23 113 82 176 178 l52 77 31 0 c37 0 45 9 64 68 l13 42 -25 28
-26 27 -5 100 c-5 110 -16 144 -61 193 l-30 32 -27 0 -27 0 -37 -42z m73 -124
c43 -30 79 -124 47 -124 -40 0 -135 73 -135 103 0 36 50 48 88 21z"/>
<path d="M2695 2710 c-27 -5 -100 -9 -160 -9 l-111 -1 -36 -37 c-48 -50 -86
-114 -90 -149 l-3 -29 23 -3 c13 -2 31 3 40 11 l17 14 95 7 95 6 15 -9 15 -10
-10 -9 c-6 -5 -28 -15 -50 -22 -85 -26 -203 -108 -189 -131 7 -12 47 -12 60 0
16 15 130 50 185 56 84 10 96 13 102 32 4 10 38 65 76 123 39 58 70 115 71
127 l0 22 -19 11 c-22 11 -52 11 -126 0z"/>
<path d="M1990 2488 c-23 -29 -47 -63 -53 -75 -15 -34 -31 -29 -118 37 -71 55
-115 80 -138 80 -5 0 -36 -39 -70 -86 l-61 -86 0 -35 0 -36 34 -31 c45 -43
152 -106 179 -106 36 1 109 78 118 125 3 11 12 21 21 23 l17 3 78 -58 c43 -32
90 -67 106 -76 l27 -17 29 15 c48 24 111 134 111 193 l0 31 -47 35 c-27 19
-71 53 -99 76 -28 22 -60 40 -72 40 l-20 0 -42 -52z"/>
<path d="M2504 2018 c-26 -31 -90 -138 -99 -166 l-7 -23 16 -24 c35 -53 175
-145 221 -145 l26 0 28 30 c34 38 91 148 91 177 l0 22 -27 26 c-40 37 -187
125 -210 125 -11 0 -28 -10 -39 -22z"/>
<path d="M11192 1950 l-12 -20 0 -110 0 -111 17 -32 c9 -18 21 -36 28 -42 39
-33 136 -199 181 -310 6 -16 17 -41 22 -55 6 -14 24 -70 41 -125 l31 -100 0
-66 0 -66 -17 -34 c-20 -40 -102 -125 -135 -139 -13 -6 -36 -19 -53 -30 -16
-11 -37 -23 -45 -26 -23 -9 -83 -36 -103 -46 -27 -13 -102 -38 -186 -60 l-76
-21 -135 0 -135 0 -69 26 c-115 44 -212 125 -261 220 l-25 49 -15 90 -14 90
15 77 c9 42 23 90 30 108 15 33 18 62 8 87 -15 39 -62 0 -71 -60 -3 -22 -10
-45 -16 -52 -6 -7 -14 -32 -18 -55 -5 -23 -13 -69 -20 -102 l-11 -60 5 -150 6
-150 19 -56 c11 -31 32 -81 47 -111 l27 -56 63 -64 64 -64 63 -30 c35 -17 103
-39 151 -49 l88 -18 72 7 c213 19 370 79 533 203 172 131 229 218 266 403 l12
65 1 155 0 155 -13 85 c-32 208 -126 426 -256 595 -62 80 -81 91 -104 55z"/>
<path d="M10753 1382 c-11 -9 -44 -48 -72 -86 l-51 -69 0 -32 0 -31 33 -26
c17 -15 50 -41 72 -58 115 -92 165 -89 234 14 l34 50 5 45 5 44 -54 50 c-60
55 -151 117 -171 117 -7 0 -23 -8 -35 -18z"/>
<path d="M2459 591 c-54 -45 -148 -106 -224 -146 -281 -150 -330 -186 -392
-279 l-33 -51 0 -32 0 -33 16 0 c9 0 57 31 107 69 51 37 117 82 147 98 300
162 351 199 401 298 46 92 37 124 -22 76z"/>
</g>
</svg>
