<?xml version="1.0" standalone="no"?>
<!DOCTYPE svg PUBLIC "-//W3C//DTD SVG 20010904//EN"
 "http://www.w3.org/TR/2001/REC-SVG-20010904/DTD/svg10.dtd">
<svg version="1.0" xmlns="http://www.w3.org/2000/svg"
 width="600.000000pt" height="287.000000pt" viewBox="0 0 600.000000 287.000000"
 preserveAspectRatio="xMidYMid meet">
<g transform="translate(0.000000,287.000000) scale(0.100000,-0.100000)"
fill="#000000" stroke="none">
<path d="M2781 2755 c-39 -33 -83 -125 -85 -174 -1 -46 15 -67 85 -112 27 -17
49 -36 49 -41 0 -26 -73 -97 -183 -178 -106 -79 -117 -90 -90 -90 16 0 54 7
84 16 43 13 66 28 116 78 33 35 71 82 83 105 19 38 24 42 49 36 25 -5 30 -2
40 26 15 42 14 64 -3 78 -8 7 -15 42 -19 90 -6 87 -33 163 -65 180 -27 14 -26
15 -61 -14z m52 -105 c29 -23 52 -89 37 -104 -12 -12 -95 38 -116 70 -32 48
28 74 79 34z"/>
<path d="M220 2534 c-19 -50 -32 -125 -27 -157 3 -18 14 -78 26 -135 27 -133
58 -441 66 -657 13 -364 35 -692 50 -750 29 -109 89 -176 176 -194 46 -10 57
-9 93 9 23 11 70 47 105 80 35 33 71 60 80 60 9 0 61 -27 116 -60 107 -64 191
-96 231 -86 32 8 109 108 133 171 10 28 22 74 26 103 4 28 10 52 13 52 4 0 33
-36 66 -80 60 -81 159 -160 219 -174 42 -10 104 22 179 93 36 33 71 61 78 61
6 0 53 -25 105 -55 124 -75 174 -92 265 -94 41 0 100 -5 130 -11 85 -16 724
-24 870 -11 69 6 283 29 475 51 193 22 393 45 445 50 119 13 477 55 675 80 83
10 247 35 365 54 118 19 286 47 372 60 86 14 172 33 190 42 41 19 90 88 125
174 20 51 24 73 19 113 -20 151 -149 260 -337 286 -113 16 -384 -6 -794 -64
-261 -37 -607 -80 -775 -97 -81 -8 -295 -12 -605 -13 -461 0 -483 1 -565 22
-118 30 -198 61 -209 81 -13 26 2 54 58 104 131 118 439 291 635 358 103 34
147 65 187 128 58 92 31 93 -156 6 -364 -170 -470 -230 -591 -336 -125 -109
-233 -284 -242 -392 -4 -51 -3 -54 29 -79 89 -67 253 -91 634 -91 467 0 924
38 1745 144 85 11 237 29 338 41 171 18 187 19 245 4 34 -9 80 -26 102 -39 51
-31 175 -144 175 -161 0 -17 -21 -22 -181 -39 -140 -16 -403 -53 -429 -61 -27
-8 -421 -63 -655 -90 -931 -110 -1168 -134 -1410 -144 -208 -8 -521 0 -735 19
-69 6 -161 13 -205 15 -99 5 -181 29 -218 63 -25 23 -27 32 -22 67 4 22 9 48
11 58 3 9 1 17 -5 17 -5 0 -24 -29 -40 -64 -36 -75 -79 -111 -163 -137 -82
-26 -103 -24 -183 15 -103 49 -167 121 -243 274 -34 68 -62 130 -62 138 0 8
-7 29 -16 46 -19 36 -34 23 -34 -30 0 -37 39 -184 70 -262 46 -118 9 -215
-100 -260 -62 -26 -266 24 -291 72 -6 11 -7 42 -3 74 8 67 -7 71 -31 8 -20
-52 -65 -109 -104 -128 -14 -8 -49 -21 -78 -29 -50 -15 -52 -15 -110 12 -117
56 -125 89 -158 676 -24 415 -63 748 -114 976 -12 53 -18 58 -31 23z"/>
<path d="M1025 2424 c-36 -39 -75 -123 -75 -162 0 -48 14 -69 75 -107 30 -19
56 -39 60 -45 10 -17 -92 -116 -197 -191 -122 -87 -129 -106 -27 -75 106 32
178 92 231 194 20 37 26 42 50 37 20 -5 29 -1 37 14 16 29 13 77 -4 91 -10 9
-15 32 -15 75 0 70 -20 148 -46 176 -24 27 -61 24 -89 -7z m53 -90 c42 -29 70
-114 38 -114 -28 0 -111 65 -114 89 -6 40 35 54 76 25z"/>
<path d="M1775 2386 c-30 -30 -71 -112 -80 -158 -6 -32 -3 -41 29 -75 19 -22
51 -48 70 -58 20 -11 36 -25 36 -32 0 -25 -76 -97 -190 -182 -127 -95 -129
-109 -6 -70 59 19 80 32 121 76 28 29 64 75 80 103 26 44 33 49 56 44 23 -4
28 -1 38 27 15 42 14 64 -3 78 -8 7 -16 41 -19 84 -7 90 -22 141 -49 167 -29
26 -54 25 -83 -4z m40 -92 c44 -20 86 -114 51 -114 -22 0 -105 50 -116 70 -13
24 -13 26 6 44 19 20 18 20 59 0z"/>
<path d="M1912 1564 l-49 -55 -66 46 c-37 25 -82 49 -101 52 -33 5 -36 2 -80
-57 -25 -34 -46 -73 -46 -86 0 -18 21 -38 92 -89 106 -76 111 -75 163 13 17
28 35 51 41 52 6 0 21 -12 35 -26 33 -37 109 -84 134 -84 33 0 63 27 90 80 33
65 32 80 -12 121 -116 108 -132 111 -201 33z"/>
<path d="M693 1568 c-28 -30 -73 -116 -73 -138 0 -21 44 -62 117 -108 58 -37
72 -35 116 17 31 37 62 115 54 136 -8 18 -156 115 -178 115 -8 0 -25 -10 -36
-22z"/>
<path d="M1337 406 c-35 -32 -87 -115 -87 -138 0 -19 82 -89 142 -119 45 -23
64 -17 102 34 41 54 60 107 46 131 -14 26 -139 116 -161 116 -9 0 -28 -11 -42
-24z"/>
</g>
</svg>
