<?xml version="1.0" standalone="no"?>
<!DOCTYPE svg PUBLIC "-//W3C//DTD SVG 20010904//EN"
 "http://www.w3.org/TR/2001/REC-SVG-20010904/DTD/svg10.dtd">
<svg version="1.0" xmlns="http://www.w3.org/2000/svg"
 width="2400.000000pt" height="1332.000000pt" viewBox="0 0 2400.000000 1332.000000"
 preserveAspectRatio="xMidYMid meet">
<g transform="translate(0.000000,1332.000000) scale(0.100000,-0.100000)"
fill="#000000" stroke="none">
<path fill="#FFACA5" d="M5659 12956 c-83 -24 -239 -160 -299 -261 -13 -22 -33 -52 -45 -66
-12 -14 -36 -57 -54 -95 -18 -38 -55 -114 -81 -169 -98 -202 -103 -260 -30
-334 39 -39 106 -74 197 -102 37 -12 95 -30 128 -41 41 -13 73 -18 101 -13 85
12 130 -42 67 -82 -53 -34 -198 -146 -235 -181 -41 -39 -57 -87 -39 -121 22
-41 63 -29 336 99 44 21 100 47 125 58 25 11 92 43 150 70 58 27 139 64 180
82 41 17 100 44 130 60 77 39 157 79 210 103 213 98 370 270 370 407 0 74 -21
76 -175 25 -27 -10 -63 -23 -80 -30 -16 -7 -46 -16 -65 -20 -19 -4 -44 -13
-55 -21 -11 -7 -38 -16 -60 -20 -22 -3 -47 -12 -55 -19 -8 -6 -51 -20 -95 -29
-91 -20 -335 -2 -395 29 -16 8 -40 15 -54 15 -14 0 -52 8 -83 19 -32 10 -101
31 -153 47 -244 72 -274 185 -63 235 155 37 232 13 373 -120 30 -28 58 -51 64
-51 12 0 77 71 112 123 16 23 52 68 81 100 57 62 61 73 39 115 -33 62 -169
150 -281 181 -66 18 -214 22 -266 7z"/>
<path fill="#FFACA5" d="M863 11238 c-24 -30 -41 -79 -62 -173 -13 -55 -31 -136 -41 -180 -35
-151 -50 -237 -50 -290 0 -56 33 -202 55 -244 7 -14 22 -75 34 -136 48 -257
61 -335 67 -396 3 -35 12 -84 20 -109 7 -25 16 -70 19 -100 3 -30 12 -95 20
-145 16 -102 49 -413 66 -615 6 -74 13 -138 15 -141 2 -4 8 -80 14 -169 6 -89
17 -204 25 -254 8 -50 15 -131 15 -181 0 -49 7 -193 15 -320 7 -126 19 -374
25 -550 24 -718 41 -1157 50 -1285 6 -74 10 -182 10 -240 0 -162 41 -610 76
-820 28 -171 41 -236 51 -255 6 -11 13 -35 16 -53 31 -163 265 -450 434 -531
37 -18 81 -40 96 -48 74 -39 383 -38 427 2 9 8 20 15 25 15 21 0 128 82 198
152 55 55 86 78 103 78 34 0 31 -24 -21 -220 -46 -171 -73 -333 -100 -600 -8
-80 -20 -181 -26 -225 -15 -108 -3 -450 21 -613 36 -246 51 -338 66 -392 8
-30 18 -82 23 -115 5 -33 14 -76 21 -95 7 -19 23 -64 36 -100 12 -36 32 -99
44 -140 12 -41 28 -91 35 -110 8 -19 17 -46 21 -60 18 -67 145 -373 174 -420
5 -8 24 -44 42 -80 17 -36 65 -123 106 -195 41 -71 82 -146 92 -165 25 -49
103 -124 151 -146 71 -31 193 31 330 168 157 158 227 277 236 399 10 148 -2
176 -189 451 -10 15 -18 31 -18 36 0 5 -8 20 -18 33 -17 23 -64 140 -146 359
-128 347 -179 1008 -95 1245 58 163 196 361 349 501 80 72 279 213 304 214 5
0 43 16 85 36 42 20 103 45 136 56 33 11 87 31 120 44 34 13 115 37 180 54
186 47 259 77 359 145 100 67 164 115 168 125 2 5 26 33 53 62 102 107 162
194 229 328 27 53 72 202 98 325 59 278 -6 942 -109 1125 -14 25 -51 92 -81
150 -30 58 -73 130 -96 160 -23 30 -59 82 -81 114 -65 97 -187 216 -221 216
-73 -1 -75 -14 -78 -447 -1 -205 1 -379 4 -387 5 -13 41 -53 300 -331 61 -66
128 -145 147 -175 98 -151 103 -160 103 -196 0 -68 -88 -192 -190 -266 -63
-47 -377 -208 -404 -208 -4 0 -38 -18 -74 -39 -61 -35 -81 -41 -217 -61 -198
-29 -322 -84 -386 -173 -16 -21 -57 -62 -91 -89 -67 -54 -84 -70 -194 -193
-105 -117 -141 -164 -251 -330 -77 -116 -131 -222 -174 -337 -16 -45 -34 -87
-38 -93 -18 -24 -90 -255 -121 -390 -11 -49 -27 -110 -34 -135 -26 -81 -58
-301 -70 -470 -12 -173 -16 -190 -46 -190 -20 0 -85 69 -103 110 -6 14 -30 55
-54 91 -74 115 -173 378 -193 516 -5 37 -14 95 -20 128 -29 172 2 560 76 965
7 41 18 105 23 142 9 62 62 174 109 228 7 8 32 41 55 72 23 32 58 79 77 104
99 132 251 423 285 544 4 14 13 34 19 45 54 87 135 538 139 765 2 143 -12 201
-59 236 -56 43 -95 5 -170 -161 -17 -39 -52 -108 -76 -155 -25 -47 -49 -96
-53 -110 -4 -14 -13 -38 -20 -55 -67 -150 -76 -197 -55 -275 68 -259 65 -308
-29 -426 -111 -138 -453 -331 -636 -359 -230 -35 -340 -37 -408 -9 -81 33
-103 44 -124 63 -10 9 -34 29 -53 45 -37 31 -108 115 -157 188 -40 60 -70 162
-82 286 -6 57 -13 107 -15 111 -23 37 -88 798 -106 1236 -14 370 -38 811 -55
1015 -8 102 -17 246 -21 320 -3 74 -12 176 -19 225 -7 50 -16 155 -20 235 -4
80 -11 173 -16 208 -5 34 -14 133 -19 220 -5 86 -17 216 -25 287 -8 72 -19
173 -25 225 -5 52 -19 151 -30 220 -11 69 -27 177 -35 240 -8 63 -22 153 -29
200 -8 47 -22 130 -31 185 -30 185 -44 260 -59 320 -25 102 -45 207 -52 270
-3 33 -10 74 -15 92 -6 18 -14 69 -18 114 -11 105 -55 168 -88 127z"/>
<path fill="#FFACA5" d="M6107 11232 c-25 -29 -36 -57 -52 -138 -9 -44 -27 -118 -41 -166 -69
-247 -68 -421 1 -603 27 -69 63 -248 90 -440 26 -194 46 -321 61 -395 8 -41
19 -113 24 -160 5 -47 14 -121 20 -165 12 -95 36 -370 55 -620 8 -99 18 -232
24 -295 6 -63 15 -187 21 -275 5 -88 14 -221 20 -295 10 -136 18 -353 45
-1205 9 -253 20 -504 25 -559 6 -54 10 -146 10 -205 0 -125 17 -422 30 -536
21 -168 39 -292 48 -315 5 -14 12 -50 16 -80 34 -259 161 -488 366 -655 62
-50 205 -126 266 -141 16 -4 40 -13 54 -20 14 -7 52 -25 85 -40 33 -14 77 -34
99 -44 21 -10 97 -38 170 -61 72 -23 154 -50 181 -59 107 -37 122 -42 190 -61
39 -11 102 -26 140 -34 39 -7 81 -18 95 -23 14 -5 50 -13 80 -17 30 -4 66 -13
80 -20 14 -7 52 -15 85 -19 32 -4 82 -13 110 -21 27 -7 79 -17 115 -20 36 -3
90 -10 120 -16 30 -5 143 -18 250 -29 107 -12 204 -23 215 -25 11 -3 119 -12
240 -20 121 -9 274 -20 340 -25 153 -12 871 -12 1120 0 401 20 881 50 1023 65
258 27 505 56 567 66 33 5 103 16 155 23 52 8 106 19 120 24 14 5 54 13 90 17
36 3 90 13 120 20 30 7 80 17 110 20 30 4 66 12 80 17 14 5 48 13 75 18 28 5
73 16 100 24 57 18 310 81 400 101 33 8 119 35 190 60 72 26 153 52 180 60 48
12 213 75 246 94 61 35 225 89 368 121 138 32 366 105 391 125 8 7 26 16 40
20 54 16 342 156 370 180 43 37 125 60 210 59 88 -1 93 -2 336 -93 207 -76
412 -72 753 15 319 82 365 111 548 339 108 134 113 136 254 77 97 -41 300
-134 332 -153 115 -65 489 -92 583 -42 81 43 108 88 133 227 6 33 31 101 56
152 25 51 45 97 45 102 0 13 46 161 82 266 l31 89 -16 66 c-8 36 -23 116 -32
176 -64 427 -100 555 -159 555 -44 0 -55 -28 -77 -191 -25 -185 -29 -407 -10
-539 20 -138 -13 -190 -121 -190 -43 0 -159 30 -181 48 -21 15 -100 41 -147
48 -74 10 -234 55 -251 70 -8 8 -20 14 -25 14 -5 0 -33 22 -62 48 -65 57 -99
151 -82 226 5 22 14 72 20 109 6 38 17 78 24 90 31 49 61 157 50 175 -25 40
-66 22 -99 -44 -48 -97 -105 -255 -105 -293 0 -21 -82 -278 -98 -306 -6 -11
-23 -47 -38 -80 -15 -33 -49 -85 -75 -114 -27 -30 -49 -58 -49 -62 0 -15 -122
-99 -200 -136 -353 -168 -1070 -86 -1070 122 0 22 66 158 103 213 31 47 30 63
-6 86 -28 18 -100 -29 -190 -124 -81 -85 -203 -190 -282 -242 -122 -79 -217
-134 -289 -165 -158 -69 -247 -103 -267 -103 -11 0 -32 -6 -47 -14 -15 -7 -45
-16 -67 -20 -22 -4 -58 -13 -80 -21 -109 -38 -313 -95 -425 -120 -193 -43
-195 -43 -234 -70 -59 -40 -92 -54 -148 -65 -60 -12 -191 -45 -258 -65 -25 -7
-63 -16 -85 -20 -22 -3 -51 -10 -65 -15 -25 -10 -170 -38 -330 -65 -47 -8
-157 -28 -245 -45 -88 -17 -187 -35 -220 -40 -59 -8 -191 -27 -375 -55 -52 -8
-138 -17 -190 -21 -52 -3 -120 -12 -150 -19 -30 -7 -107 -16 -170 -20 -63 -3
-160 -12 -215 -20 -55 -8 -201 -19 -325 -25 -124 -6 -306 -15 -405 -21 -336
-17 -1200 -16 -1370 3 -82 9 -199 20 -260 23 -60 3 -146 13 -190 20 -44 8
-109 17 -145 20 -36 4 -85 13 -110 20 -25 7 -76 16 -115 20 -38 3 -86 10 -105
15 -19 5 -80 16 -135 25 -55 9 -136 24 -180 34 -149 35 -440 102 -520 120 -45
10 -90 23 -100 28 -11 6 -37 13 -59 17 -21 4 -52 14 -70 21 -17 8 -65 23 -106
35 -141 40 -205 62 -285 100 -79 37 -165 72 -215 85 -83 24 -251 192 -315 315
-19 36 -55 190 -55 233 0 18 -13 112 -30 208 -30 178 -44 305 -55 509 -3 63
-12 210 -20 325 -8 116 -17 305 -20 420 -3 116 -12 293 -20 395 -8 102 -17
257 -20 345 -4 88 -13 203 -20 255 -8 52 -16 163 -20 245 -3 83 -12 204 -20
270 -8 66 -17 185 -20 265 -3 80 -12 210 -20 290 -7 80 -16 183 -20 230 -3 47
-10 108 -15 135 -6 28 -14 102 -20 165 -6 63 -15 131 -20 150 -5 19 -14 80
-20 135 -21 205 -86 634 -105 695 -7 25 -16 68 -20 95 -4 28 -13 73 -20 100
-7 28 -16 73 -20 100 -3 28 -12 84 -20 125 -8 41 -19 107 -26 145 -6 39 -16
102 -23 140 -18 102 -57 153 -89 117z"/>
<path fill="#b95b4c" transform="translate(0, -1000)" d="M21427 10080 c-64 -24 -69 -29 -120 -118 -53 -91 -61 -126 -48 -214
16 -111 164 -342 377 -588 260 -300 354 -439 354 -520 0 -46 -53 -94 -121
-110 -72 -18 -465 10 -544 38 -61 22 -321 44 -375 33 -28 -6 -71 -11 -95 -11
-47 0 -164 -41 -204 -72 -13 -10 -28 -18 -33 -18 -28 0 -101 -66 -125 -113
-85 -167 35 -380 230 -410 74 -12 288 3 310 22 7 5 37 16 67 25 138 38 271 92
450 181 58 29 116 56 130 60 14 4 41 16 60 26 19 11 39 19 44 19 5 0 30 10 55
22 113 55 220 23 236 -72 9 -53 -39 -229 -75 -275 -4 -5 -30 -62 -56 -125 -26
-63 -63 -144 -82 -180 -37 -71 -48 -99 -93 -240 -16 -52 -37 -108 -45 -125
-13 -28 -23 -74 -44 -205 -9 -60 18 -177 46 -201 8 -6 14 -17 14 -25 0 -26 65
-86 119 -111 217 -97 392 48 443 367 15 97 4 448 -17 535 -13 55 -17 122 -18
318 l-2 249 24 19 c50 41 101 21 274 -106 45 -33 100 -76 122 -95 115 -102
146 -130 205 -185 208 -192 373 -307 481 -336 188 -50 332 7 416 164 66 124
-36 336 -203 420 -90 45 -359 126 -489 146 -67 11 -175 37 -220 52 -16 6 -65
17 -108 25 -128 23 -230 53 -270 80 -145 95 -37 227 380 466 327 187 541 351
610 466 26 44 28 55 28 153 l0 105 -39 57 c-151 220 -349 185 -592 -104 -71
-85 -134 -173 -134 -188 0 -5 -7 -14 -16 -22 -9 -7 -23 -27 -32 -45 -9 -18
-35 -68 -57 -111 -193 -373 -315 -523 -409 -499 -72 18 -167 267 -207 546 -5
36 -14 76 -20 89 -5 13 -16 58 -24 100 -95 503 -300 739 -558 641z"/>
<path fill="#FFACA5" d="M4612 9393 c-34 -7 -176 -157 -229 -243 -26 -41 -52 -79 -58 -85 -7
-5 -33 -47 -58 -92 -92 -162 -65 -218 218 -452 44 -36 90 -76 102 -87 39 -40
166 -117 231 -140 58 -22 66 -22 92 -9 16 8 35 15 42 15 13 0 71 37 118 75 29
23 133 177 166 245 72 148 101 277 73 318 -30 42 -256 237 -404 347 -108 80
-219 121 -293 108z"/>
<path fill="#FFACA5" d="M16863 9309 c-40 -12 -121 -100 -191 -209 -30 -47 -64 -98 -75 -114
-65 -95 -127 -235 -127 -286 0 -27 63 -94 135 -145 31 -22 88 -65 128 -96 410
-317 521 -326 695 -56 119 185 174 345 150 435 -13 47 -152 186 -294 293 -210
159 -325 208 -421 178z"/>
<path fill="#FFACA5" d="M17614 8191 c-45 -33 -82 -72 -148 -156 -26 -33 -54 -68 -61 -77 -20
-24 -66 -94 -90 -136 -53 -94 -77 -90 -225 37 -52 45 -113 94 -135 109 -22 14
-73 51 -114 80 -95 69 -204 122 -253 122 -59 0 -144 -92 -428 -462 -48 -63
-44 -167 9 -213 54 -48 121 -101 153 -123 18 -13 61 -43 95 -67 35 -25 65 -45
67 -45 3 0 54 -33 115 -72 196 -129 194 -128 248 -128 46 0 54 4 110 55 78 70
205 276 226 366 21 85 140 38 297 -115 196 -192 373 -313 441 -300 96 19 214
133 285 274 181 361 179 437 -9 552 -68 42 -112 74 -285 205 -170 129 -226
147 -298 94z"/>
</g>
</svg>
