<?xml version="1.0" standalone="no"?>
<!DOCTYPE svg PUBLIC "-//W3C//DTD SVG 20010904//EN"
 "http://www.w3.org/TR/2001/REC-SVG-20010904/DTD/svg10.dtd">
<svg version="1.0" xmlns="http://www.w3.org/2000/svg"
 width="600.000000pt" height="600.000000pt" viewBox="0 0 600.000000 600.000000"
 preserveAspectRatio="xMidYMid meet">
<g transform="translate(0.000000,600.000000) scale(0.100000,-0.100000)"
fill="#000000" stroke="none">
<path d="M2825 5254 c-470 -46 -814 -176 -1106 -420 -124 -103 -269 -271 -357
-414 -79 -128 -166 -328 -221 -505 -95 -309 -143 -741 -121 -1093 41 -678 221
-1165 564 -1529 272 -289 609 -454 1081 -530 157 -25 603 -25 760 0 297 49
530 134 731 269 343 230 560 538 619 882 19 113 19 309 0 418 -64 370 -306
666 -690 844 -34 16 -40 24 -43 54 -22 317 -125 557 -314 735 -120 114 -284
193 -468 226 -110 20 -345 17 -450 -5 -231 -49 -419 -160 -556 -327 -49 -60
-55 -72 -43 -83 21 -20 299 -206 307 -206 4 0 40 32 80 70 86 85 182 135 299
155 303 54 559 -47 665 -266 40 -81 73 -198 60 -211 -4 -4 -37 -2 -72 4 -38 7
-171 12 -320 12 -227 1 -267 -2 -363 -22 -235 -49 -382 -124 -522 -266 -148
-149 -207 -291 -207 -491 1 -147 29 -253 99 -369 151 -250 477 -400 828 -382
354 18 603 152 775 417 74 115 141 288 170 439 18 98 15 94 58 68 147 -87 252
-231 303 -413 29 -107 27 -286 -6 -399 -55 -189 -156 -334 -330 -475 -160
-129 -286 -192 -490 -245 -163 -43 -246 -51 -510 -51 -267 0 -319 6 -512 55
-581 149 -937 572 -1062 1260 -31 171 -36 249 -36 535 0 339 11 449 66 685
123 521 403 877 830 1054 91 37 269 87 389 108 118 20 560 17 680 -6 352 -64
607 -189 815 -400 55 -55 123 -132 150 -171 69 -97 164 -289 210 -423 21 -63
43 -111 49 -109 6 2 91 25 189 52 119 33 177 53 177 63 0 7 -14 55 -31 105
-243 722 -762 1160 -1514 1278 -125 20 -500 34 -610 23z m710 -2334 c112 -17
108 -14 101 -74 -10 -79 -33 -185 -55 -251 -66 -207 -208 -338 -411 -381 -148
-31 -352 -5 -460 58 -48 28 -118 96 -138 133 -43 81 -43 203 -1 288 59 117
224 209 429 237 81 11 441 5 535 -10z"/>
</g>
</svg>
