<?xml version="1.0" standalone="no"?>
<!DOCTYPE svg PUBLIC "-//W3C//DTD SVG 20010904//EN"
 "http://www.w3.org/TR/2001/REC-SVG-20010904/DTD/svg10.dtd">
<svg version="1.0" xmlns="http://www.w3.org/2000/svg"
 width="1200.000000pt" height="434.000000pt" viewBox="0 0 1200.000000 434.000000"
 preserveAspectRatio="xMidYMid meet">
<g transform="translate(0.000000,434.000000) scale(0.100000,-0.100000)"
fill="#ffffff" stroke="none">
<path d="M4355 4175 c-35 -59 -31 -93 17 -124 48 -31 41 -45 -52 -109 -74 -50
-87 -72 -42 -71 39 1 82 29 121 80 18 24 41 47 51 51 23 8 36 46 21 61 -6 6
-11 28 -11 48 0 20 -7 53 -15 73 -22 53 -56 50 -90 -9z m63 -37 c7 -7 12 -20
12 -30 0 -17 -2 -18 -30 -3 -16 9 -30 22 -30 30 0 18 31 20 48 3z"/>
<path d="M11318 4153 c-38 -42 -58 -75 -58 -97 0 -22 27 -45 53 -46 21 0 22
-13 2 -30 -10 -8 -12 -17 -6 -23 11 -11 200 77 208 98 3 8 3 22 0 30 -5 13
-10 13 -41 0 -46 -19 -99 -19 -138 1 -22 12 -27 19 -19 27 8 8 19 8 43 -1 50
-19 81 23 41 54 -28 21 -57 16 -85 -13z"/>
<path d="M5175 4071 c-6 -4 -93 -41 -195 -81 -194 -76 -462 -205 -616 -296
-135 -79 -196 -139 -250 -247 -29 -57 -49 -86 -55 -80 -5 5 -12 107 -16 226
-6 222 -14 257 -41 184 -14 -39 -16 -223 -3 -317 5 -36 14 -130 20 -210 7 -80
21 -208 33 -285 24 -161 28 -264 10 -297 -32 -58 -154 -108 -265 -108 -91 0
-146 25 -188 87 -28 40 -30 50 -26 101 3 31 8 72 12 90 6 25 4 32 -8 32 -8 0
-17 -8 -21 -17 -41 -120 -45 -164 -22 -250 19 -72 48 -107 112 -139 50 -24 62
-26 138 -22 144 9 244 73 290 183 7 17 18 64 25 105 6 41 13 75 14 77 2 1 21
-4 42 -11 53 -18 175 -7 231 22 70 36 125 107 154 199 12 38 11 47 -10 99 -45
109 -194 239 -332 289 -34 12 -64 27 -66 33 -4 13 100 90 215 160 152 92 496
256 678 322 115 42 146 57 167 84 24 29 24 76 0 76 -10 0 -22 -4 -27 -9z
m-985 -790 c182 -52 345 -185 324 -265 -12 -49 -126 -102 -239 -113 -118 -11
-153 32 -185 229 -27 164 -27 168 8 168 15 0 56 -8 92 -19z"/>
<path transform="translate(200, -100)" d="M1850 3902 c-8 -3 -41 -22 -72 -44 -31 -21 -59 -38 -62 -38 -21 0
-125 -76 -144 -105 -34 -54 -16 -73 32 -32 15 13 71 48 123 78 67 38 103 65
120 91 27 39 28 58 3 50z"/>
<path fill="#A1B99B" d="M8649 3838 c-15 -28 -15 -129 0 -243 27 -202 50 -445 57 -595 3 -69
7 -135 10 -147 6 -31 32 -29 40 3 14 54 -20 489 -57 739 -5 39 -13 112 -16
163 -6 97 -14 117 -34 80z"/>
<path d="M11376 3839 c-13 -43 -26 -111 -22 -118 3 -4 10 -55 16 -112 6 -57
15 -140 21 -184 11 -88 25 -247 39 -454 5 -73 11 -136 14 -138 3 -3 12 -3 21
0 31 13 18 245 -47 792 -5 44 -11 109 -15 145 -5 64 -18 97 -27 69z"/>
<path d="M11101 3783 c-17 -21 -31 -43 -31 -50 0 -17 19 -26 33 -15 16 13 81
22 95 13 7 -4 -11 -17 -43 -31 -30 -13 -55 -30 -55 -37 0 -15 36 -18 45 -4 3
6 26 13 51 17 41 6 48 12 85 65 22 33 37 64 34 69 -3 6 -46 10 -95 10 l-89 0
-30 -37z"/>
<path fill="#A1B99B" d="M8476 3799 c-26 -85 -28 -111 -17 -196 7 -48 16 -121 22 -160 22
-174 31 -230 39 -263 19 -77 32 -177 28 -220 -4 -54 -25 -68 -133 -83 -103
-15 -115 -7 -66 43 86 89 90 176 11 220 -62 34 -131 33 -191 -2 -52 -31 -203
-148 -269 -208 -69 -64 -71 -64 -129 -25 -28 19 -54 35 -58 35 -5 0 -27 -16
-51 -35 -126 -99 -580 -175 -878 -146 -195 19 -353 69 -388 124 -18 27 -36
183 -36 304 0 99 -14 247 -37 403 -9 58 -18 123 -21 145 -6 53 -17 63 -37 31
-19 -28 -18 -52 8 -201 20 -121 37 -302 37 -411 0 -133 18 -309 36 -353 28
-69 124 -115 308 -147 125 -21 462 -15 606 11 160 28 286 78 371 146 l26 21
59 -30 c97 -49 160 -62 291 -62 158 0 407 25 473 47 46 15 57 24 78 63 22 43
23 52 18 175 -3 72 -10 157 -16 190 -14 84 -30 198 -39 280 -7 62 -5 78 17
133 l24 62 -26 40 c-14 22 -26 44 -26 49 0 5 -7 14 -15 21 -12 10 -16 10 -19
-1z m-181 -760 c60 -28 71 -50 42 -77 -72 -68 -408 -144 -424 -96 -4 12 116
107 202 159 69 41 114 45 180 14z"/>
<path d="M9652 3772 c-11 -15 -23 -44 -27 -63 -6 -33 -4 -39 35 -71 l42 -34
-39 -35 c-22 -19 -60 -49 -86 -66 -52 -36 -59 -53 -22 -53 48 0 116 49 153
113 9 15 24 27 34 27 16 0 24 19 18 45 -1 6 -6 39 -12 75 -6 36 -15 71 -20 78
-18 21 -55 14 -76 -16z m44 -40 c6 -4 16 -17 23 -29 10 -20 9 -23 -7 -23 -23
0 -56 35 -47 49 7 13 16 14 31 3z"/>
<path fill="#A1B99B" d="M7965 3738 c-3 -7 -4 -26 -2 -43 2 -24 -2 -30 -18 -30 -12 0 -21 8
-23 20 -7 36 -21 38 -29 5 -5 -18 -18 -39 -30 -47 -19 -13 -23 -12 -43 9 -18
19 -22 20 -30 8 -13 -20 -12 -67 0 -91 14 -25 45 -24 81 2 16 11 34 17 40 14
5 -4 21 -4 34 -1 41 10 74 152 38 164 -7 2 -15 -2 -18 -10z"/>
<path d="M2951 3686 c-7 -8 -58 -40 -114 -72 -107 -60 -167 -112 -167 -145 0
-26 15 -24 58 10 35 27 55 40 150 91 46 26 102 87 102 112 0 22 -13 23 -29 4z"/>
<path fill="#A1B99B" d="M6510 3681 c-16 -31 -12 -47 23 -89 54 -64 67 -136 42 -234 -6 -21
-4 -28 8 -28 44 0 56 186 17 275 -21 49 -56 95 -71 95 -5 0 -13 -9 -19 -19z"/>
<path d="M5300 3578 c-33 -45 -36 -60 -17 -76 32 -26 91 -52 106 -47 19 6 51
55 51 78 0 18 -75 87 -95 87 -8 0 -28 -19 -45 -42z"/>
<path d="M10423 3593 c-57 -4 -65 -7 -88 -37 -40 -52 -31 -81 16 -55 11 5 37
9 57 7 l37 -3 -47 -23 c-70 -35 -97 -77 -32 -51 16 7 47 15 69 18 34 5 45 14
79 63 43 63 43 89 -1 86 -15 -1 -56 -3 -90 -5z"/>
<path d="M11915 3571 c-6 -5 -53 -31 -105 -59 -209 -110 -225 -120 -258 -162
-39 -50 -30 -74 15 -43 30 22 247 143 326 182 30 15 50 33 53 47 9 35 -9 56
-31 35z"/>
<path d="M3855 3560 c-4 -6 -4 -23 0 -39 11 -49 -25 -50 -43 -1 -9 24 -10 24
-31 -18 -24 -47 -47 -54 -76 -22 -14 16 -20 17 -27 8 -13 -21 -9 -72 8 -96 19
-27 44 -28 76 -3 14 11 39 19 57 19 37 -1 44 7 67 79 13 43 14 56 4 68 -15 18
-26 19 -35 5z"/>
<path d="M11156 3477 c-35 -45 -33 -60 11 -96 46 -38 75 -39 102 -5 30 39 26
67 -14 103 -46 40 -68 39 -99 -2z"/>
<path d="M9246 3475 c-3 -8 -3 -29 1 -46 5 -27 3 -31 -13 -27 -10 2 -25 16
-32 31 -14 29 -32 28 -32 -3 0 -35 -12 -50 -40 -50 -20 0 -29 6 -33 21 -8 29
-25 15 -33 -27 -13 -72 39 -111 88 -67 11 10 36 17 56 18 32 0 39 5 54 35 21
44 24 130 4 130 -8 0 -16 -7 -20 -15z"/>
<path transform="translate(250, 0)" d="M1910 3359 c-16 -23 -30 -46 -30 -50 0 -15 22 -21 33 -10 6 6 34 11
62 11 l50 -1 -54 -27 c-58 -29 -82 -59 -40 -49 108 25 124 33 155 78 18 24 34
53 36 64 3 19 -3 20 -89 23 l-92 3 -31 -42z"/>
<path d="M9734 3367 c-8 -23 2 -199 16 -262 6 -27 13 -71 17 -97 l6 -48 -47
-21 c-26 -11 -85 -28 -131 -37 -101 -19 -133 -12 -155 36 -22 45 -30 31 -30
-48 0 -95 20 -120 99 -120 64 0 147 21 203 52 36 20 50 43 63 102 8 36 10 33
51 -60 44 -102 75 -134 129 -134 43 0 69 19 94 67 16 31 14 164 -3 204 -17 40
-54 89 -67 89 -15 0 -30 -51 -24 -82 4 -15 22 -46 41 -69 42 -50 43 -73 5 -89
-24 -9 -34 -9 -59 4 -87 45 -138 172 -163 406 -10 95 -31 143 -45 107z"/>
<path fill="#A1B99B" d="M7868 3343 c-9 -10 -21 -29 -28 -43 -12 -22 -10 -27 26 -57 52 -46
82 -52 106 -23 34 42 34 68 -3 106 -37 38 -77 45 -101 17z"/>
<path d="M5351 3327 c-29 -35 -61 -130 -61 -181 0 -62 32 -119 68 -124 32 -5
71 23 88 64 8 19 16 34 19 34 10 0 37 -51 45 -84 6 -29 4 -38 -14 -55 -29 -27
-128 -61 -178 -61 -48 0 -88 -35 -88 -78 0 -38 8 -44 110 -77 138 -45 212 -82
208 -102 -5 -27 -121 -99 -216 -133 -128 -46 -213 -57 -285 -36 -70 20 -135
76 -166 141 -22 48 -30 178 -12 213 5 9 13 28 19 42 5 14 15 38 21 54 7 17 8
33 3 38 -14 14 -42 -3 -42 -26 0 -12 -4 -26 -8 -31 -5 -6 -14 -30 -21 -55 -7
-25 -17 -61 -23 -81 -6 -20 -9 -79 -6 -130 9 -197 109 -309 277 -309 82 0 153
20 251 71 188 98 287 220 249 311 -10 24 -28 38 -78 61 -36 17 -67 31 -69 33
-2 1 13 23 32 49 74 97 85 228 29 347 -17 35 -43 75 -58 91 -30 29 -75 36 -94
14z m29 -122 c18 -22 8 -50 -19 -50 -28 0 -47 25 -38 49 8 20 40 21 57 1z"/>
<path fill="#A1B99B" d="M2793 3297 c-32 -46 -29 -70 11 -101 43 -32 66 -33 94 -3 34 36 29
79 -12 111 -46 34 -66 33 -93 -7z"/>
<path d="M10385 3294 c-41 -44 -60 -91 -45 -109 7 -8 21 -15 31 -15 23 0 35
-18 20 -33 -16 -16 -13 -27 7 -27 29 0 154 65 181 93 38 42 16 54 -46 25 -29
-14 -111 -4 -131 16 -14 14 -14 16 2 22 9 4 28 1 42 -7 21 -11 27 -10 42 4 24
25 5 51 -41 55 -30 3 -42 -2 -62 -24z"/>
<path transform="translate(200, 0)" d="M1738 3232 c-49 -56 -120 -192 -139 -270 -14 -59 -29 -71 -117 -97
-46 -14 -65 -13 -131 7 -32 10 -33 12 -27 52 l6 41 -33 -36 c-41 -47 -73 -62
-189 -93 -184 -49 -337 -68 -513 -63 -185 4 -261 23 -338 82 -61 47 -79 82
-77 153 2 77 2 82 -10 82 -19 0 -40 -73 -40 -140 0 -114 37 -187 122 -241 75
-48 145 -63 293 -63 274 0 598 73 711 159 18 14 36 25 41 25 5 0 30 -18 57
-40 51 -42 79 -48 135 -29 17 6 43 8 56 5 20 -5 25 -13 25 -39 0 -17 9 -51 20
-75 56 -124 170 -194 238 -146 20 14 23 14 28 0 3 -8 28 -29 55 -47 54 -34 71
-31 90 18 11 29 24 29 53 1 57 -58 72 -58 106 -2 28 48 26 58 -19 93 -49 39
-71 39 -99 1 -27 -36 -32 -37 -70 -5 -38 32 -57 32 -89 -2 -19 -20 -24 -23
-19 -9 23 65 26 102 12 149 l-14 47 31 22 c18 11 46 34 64 51 l31 29 69 -41
c90 -53 124 -60 152 -30 46 50 19 87 -72 99 -83 10 -122 32 -112 63 10 36 10
42 0 47 -5 3 -17 -10 -27 -28 -26 -52 -48 -71 -101 -87 -69 -20 -207 -21 -207
0 0 8 13 21 29 29 35 19 75 65 103 120 39 77 21 256 -26 256 -8 0 -34 -22 -58
-48z m60 -107 c25 -54 6 -87 -82 -149 -81 -57 -96 -62 -96 -32 0 27 46 119 86
171 33 44 75 48 92 10z m-92 -376 c117 -57 170 -129 101 -137 -61 -7 -200 109
-183 153 7 20 7 20 82 -16z"/>
<path fill="#A1B99B" d="M5892 3218 c-12 -24 -22 -48 -22 -55 0 -7 20 -18 44 -25 66 -20 128
-68 181 -142 53 -74 51 -85 -12 -104 -64 -19 -209 -35 -247 -28 -21 4 -40 14
-43 22 -7 19 -29 18 -37 -2 -8 -20 -8 -72 0 -100 15 -57 112 -56 316 3 82 23
93 39 93 133 0 67 -4 85 -33 142 -43 87 -157 198 -202 198 -8 0 -25 -19 -38
-42z"/>
<path d="M10997 3153 c-4 -3 -7 -38 -7 -77 0 -107 -33 -140 -152 -153 -71 -7
-108 -36 -108 -83 0 -36 9 -42 110 -75 98 -32 204 -78 214 -93 17 -28 -123
-112 -265 -158 -153 -49 -280 -34 -353 42 -87 91 -100 221 -36 369 10 22 15
45 13 52 -7 19 -43 -3 -43 -27 0 -10 -4 -22 -10 -25 -5 -3 -10 -17 -10 -30 0
-13 -4 -26 -9 -29 -23 -15 -37 -210 -21 -286 22 -101 66 -162 145 -203 55 -28
183 -35 248 -13 71 24 176 80 227 119 43 35 64 40 54 13 -6 -15 50 -73 80 -82
25 -8 66 34 69 71 2 24 -6 35 -44 64 l-47 34 19 31 c23 38 25 98 4 130 -9 13
-43 36 -75 50 -33 15 -60 29 -60 32 0 3 11 20 25 38 14 18 25 39 25 47 0 8 4
20 9 28 6 9 15 -8 29 -55 28 -91 55 -132 98 -150 33 -14 38 -13 68 6 19 11 36
20 40 20 3 0 6 -18 6 -41 0 -74 47 -147 135 -206 69 -47 109 -64 154 -65 40
-1 57 5 111 42 82 56 203 175 222 220 8 19 21 48 27 64 22 53 26 190 7 239
-17 45 -69 107 -91 107 -19 0 -42 -31 -70 -93 -30 -69 -32 -130 -5 -174 37
-62 76 -64 119 -6 20 27 20 27 21 5 1 -100 -228 -289 -373 -308 -66 -9 -123
11 -174 62 -24 23 -43 46 -43 52 0 5 -7 23 -15 38 -19 37 -19 78 -1 93 27 22
56 100 56 148 0 64 -14 109 -50 166 -42 67 -60 63 -60 -14 0 -57 3 -64 40
-106 43 -49 46 -59 27 -84 -16 -21 -91 -59 -116 -59 -11 0 -36 14 -56 31 -41
36 -65 105 -65 185 0 76 -20 121 -43 97z m807 -175 c8 -14 7 -21 -5 -33 -28
-29 -73 11 -48 42 15 17 38 13 53 -9z"/>
<path fill="#A1B99B" transform="translate(0, 50)" d="M3058 3096 c-80 -52 -231 -172 -272 -215 -17 -17 -34 -31 -39 -31 -5
0 -33 16 -63 36 l-55 36 -52 -32 c-78 -50 -104 -62 -148 -67 -51 -7 -84 -45
-66 -74 14 -23 47 -34 75 -25 10 4 43 24 72 46 30 22 58 40 64 40 6 0 37 -18
69 -41 40 -29 56 -46 53 -58 -3 -9 -1 -23 4 -30 7 -12 10 -9 15 12 4 15 10 27
14 27 3 0 53 2 111 4 77 3 129 11 195 30 133 40 182 70 227 140 42 66 74 155
65 180 -10 26 -106 66 -157 66 -37 0 -58 -8 -112 -44z m193 -112 c18 -16 18
-19 3 -35 -15 -17 -129 -66 -204 -88 -19 -5 -71 -15 -116 -21 -76 -10 -114 -7
-114 9 0 27 214 169 270 180 49 8 125 -13 161 -45z"/>
<path d="M9236 3094 c-13 -34 -5 -100 16 -134 12 -19 34 -57 49 -84 l27 -50
-20 -39 c-30 -60 -140 -162 -211 -196 -34 -17 -94 -36 -134 -42 -62 -10 -77
-10 -106 5 -74 34 -127 110 -127 179 0 39 -17 58 -31 36 -26 -41 35 -177 100
-225 68 -50 164 -94 206 -94 80 0 263 157 320 275 21 43 30 79 33 126 4 62 1
72 -43 163 -46 93 -66 114 -79 80z"/>
<path fill="#A1B99B" d="M6015 2604 c-27 -19 -75 -47 -105 -62 -64 -32 -140 -103 -140 -132 0
-19 25 -29 32 -12 4 10 123 92 135 93 19 1 116 76 131 101 27 45 3 50 -53 12z"/>
<path d="M9954 2575 c-30 -53 -27 -61 43 -102 49 -28 61 -24 88 30 22 43 19
52 -22 86 -53 44 -76 41 -109 -14z"/>
<path d="M664 2460 c-14 -22 -24 -46 -21 -53 3 -8 27 -28 53 -45 45 -31 48
-31 67 -15 26 24 50 72 43 88 -6 18 -80 65 -101 65 -8 0 -27 -18 -41 -40z"/>
<path d="M9296 2435 c-8 -8 -17 -15 -21 -15 -4 0 -26 -13 -50 -30 -24 -16 -46
-30 -49 -30 -19 0 -126 -78 -140 -101 -22 -37 -21 -60 2 -52 9 4 19 9 22 13
13 16 84 60 184 114 40 22 68 55 80 94 8 25 -5 29 -28 7z"/>
<path d="M5497 2363 c-16 -16 -4 -48 33 -90 34 -40 40 -52 40 -92 0 -26 -5
-52 -12 -59 -9 -9 -9 -15 -1 -23 22 -22 43 31 43 109 0 59 -4 80 -22 105 -34
51 -63 69 -81 50z"/>
<path d="M10150 2334 c-19 -14 -72 -46 -117 -71 -97 -55 -143 -96 -143 -129 0
-23 24 -34 32 -16 3 9 123 92 133 92 17 0 122 81 134 104 21 39 2 49 -39 20z"/>
<path d="M11200 2321 c-25 -16 -77 -47 -117 -70 -96 -55 -133 -87 -133 -117 0
-29 16 -31 44 -5 12 10 37 28 56 39 115 64 162 96 185 126 25 32 32 56 18 56
-5 0 -28 -13 -53 -29z"/>
<path d="M11715 2325 c-32 -35 -56 -90 -49 -110 4 -9 19 -19 35 -22 27 -5 42
-33 19 -33 -5 0 -10 -7 -10 -15 0 -8 5 -15 11 -15 25 0 197 89 203 106 11 29
-8 35 -56 18 -39 -15 -51 -16 -92 -4 -26 7 -49 17 -53 22 -9 15 19 28 38 17
28 -15 47 -11 60 13 26 48 -64 67 -106 23z"/>
<path transform="translate(0, -50)" d="M10640 2321 c-14 -10 -63 -38 -110 -62 -113 -59 -186 -132 -152 -153
5 -3 31 12 59 33 28 21 75 50 104 66 78 40 107 63 124 95 18 36 8 44 -25 21z"/>
<path d="M3923 2295 c-44 -31 -185 -115 -193 -115 -19 0 -80 -73 -80 -96 0
-13 2 -24 5 -24 3 0 26 15 52 34 27 19 65 43 86 55 20 12 54 30 75 42 51 29
59 37 77 72 18 36 7 53 -22 32z"/>
<path d="M5220 2220 c-26 -36 -32 -37 -74 -5 -43 33 -70 32 -95 -4 -33 -45
-27 -65 28 -100 54 -35 71 -33 92 10 l14 30 39 -30 c56 -44 90 -42 116 8 11
22 18 46 15 53 -6 15 -86 68 -103 68 -6 0 -20 -13 -32 -30z"/>
<path d="M6590 2200 c-78 -40 -288 -140 -295 -140 -4 0 -169 -77 -275 -128
-58 -29 -170 -122 -170 -143 0 -19 24 -20 50 -1 23 18 355 183 470 235 19 8
79 36 133 61 55 25 102 46 106 46 12 0 91 85 91 98 0 20 -31 12 -110 -28z"/>
<path d="M829 2186 c-37 -25 -84 -53 -153 -90 -72 -39 -124 -105 -100 -128 3
-4 34 14 69 38 34 24 65 44 68 44 3 0 33 17 68 38 58 36 96 78 98 110 1 18
-10 15 -50 -12z"/>
<path d="M10617 2094 c-4 -4 -7 -25 -7 -46 0 -44 -20 -51 -44 -17 -16 23 -36
18 -36 -10 0 -40 -51 -56 -70 -21 -16 30 -30 15 -30 -34 0 -69 52 -97 90 -51
7 9 29 15 51 15 34 0 40 4 52 33 23 54 28 101 14 121 -7 9 -16 14 -20 10z"/>
<path d="M2526 2021 c-10 -11 -32 -27 -49 -35 -30 -15 -84 -47 -155 -91 -17
-10 -39 -34 -48 -53 -22 -46 -6 -61 32 -29 16 13 70 48 119 77 108 64 121 74
140 113 19 38 19 37 -3 37 -11 0 -27 -9 -36 -19z"/>
<path d="M4896 2032 c-13 -21 -16 -138 -6 -227 6 -55 15 -138 20 -185 5 -47
14 -132 20 -190 6 -58 15 -170 20 -250 9 -151 15 -183 34 -177 7 3 11 52 11
158 0 164 -16 344 -55 644 -5 44 -13 113 -17 153 -6 68 -15 93 -27 74z"/>
<path d="M10715 2017 c-14 -53 0 -247 45 -632 5 -44 14 -145 20 -225 12 -148
15 -164 30 -155 29 18 14 354 -30 680 -6 44 -15 123 -20 175 -11 118 -20 169
-31 176 -5 2 -11 -6 -14 -19z"/>
<path d="M11776 2028 c-2 -7 -7 -38 -10 -68 -5 -51 -1 -96 25 -330 22 -199 30
-293 38 -430 10 -161 17 -200 36 -200 17 0 22 89 13 245 -11 180 -24 309 -58
575 -5 41 -12 106 -16 143 -7 64 -19 94 -28 65z"/>
<path d="M11613 1988 c-4 -7 -6 -78 -3 -158 9 -257 3 -543 -12 -580 l-13 -32
-44 83 c-107 204 -205 352 -325 494 -90 106 -109 115 -130 63 -21 -51 -31
-172 -14 -184 17 -14 126 -52 158 -56 20 -2 47 -35 130 -160 135 -201 190
-293 190 -319 0 -20 -62 -112 -94 -139 -11 -8 -50 -16 -94 -20 l-77 -5 -9 -47
c-13 -72 -6 -81 57 -75 103 10 218 28 242 37 14 5 34 24 45 42 23 37 23 90 -1
191 -11 50 -11 63 3 110 35 111 38 140 38 335 0 179 2 209 21 267 l22 66 -22
22 c-11 13 -21 30 -21 38 0 16 -19 39 -31 39 -4 0 -11 -6 -16 -12z m-5 -955
c-3 -19 -58 -37 -71 -24 -10 10 17 67 35 74 16 5 40 -28 36 -50z"/>
<path d="M4717 1973 c-2 -4 -10 -32 -17 -62 -10 -43 -10 -72 -1 -140 7 -47 16
-119 22 -158 18 -142 30 -228 35 -253 21 -103 26 -133 30 -196 6 -66 5 -71
-18 -86 -69 -45 -140 -23 -209 65 -23 28 -52 59 -65 67 -23 14 -26 13 -56 -17
-17 -17 -45 -57 -62 -89 -45 -84 -71 -99 -164 -99 -138 1 -166 36 -122 153 37
96 23 132 -72 193 -52 34 -54 34 -163 33 -60 -1 -184 -11 -275 -23 -480 -64
-906 -92 -1100 -73 -111 12 -180 33 -188 60 -13 40 235 193 412 254 38 13 96
70 96 95 0 30 -34 19 -208 -68 -155 -77 -196 -102 -243 -149 -60 -59 -108
-145 -116 -208 -5 -38 -4 -40 43 -63 48 -24 53 -24 329 -23 347 1 578 18 1054
80 117 15 210 23 234 19 30 -6 54 -21 95 -61 36 -34 53 -57 46 -64 -5 -5 -56
-14 -114 -20 -58 -5 -168 -19 -245 -30 -841 -118 -1208 -147 -1470 -116 -77 9
-152 22 -167 27 -57 23 -59 31 -88 489 -6 91 -18 210 -27 265 -9 55 -18 119
-21 143 -5 47 -22 55 -41 18 -14 -24 -12 -62 8 -166 17 -89 30 -230 41 -460 5
-118 14 -241 19 -273 10 -58 38 -109 70 -126 81 -44 514 -59 766 -28 77 10
232 29 345 43 113 14 345 45 515 69 278 39 366 49 401 46 6 -1 18 -18 26 -39
20 -52 71 -88 138 -100 64 -12 96 0 147 56 l32 35 63 -23 c35 -12 89 -36 120
-51 l58 -29 13 32 c12 30 16 32 58 30 56 -3 103 25 124 74 17 41 21 234 6 294
-5 19 -14 76 -20 125 -7 50 -16 110 -21 135 -18 84 -15 164 10 224 l22 56 -26
40 c-14 22 -26 44 -26 49 0 13 -27 33 -33 24z m-186 -862 c28 -29 38 -64 20
-75 -14 -9 -131 45 -131 59 0 11 54 44 73 45 5 0 22 -13 38 -29z"/>
<path d="M9857 1953 c-15 -27 -17 -93 -3 -156 25 -121 35 -221 47 -482 15
-330 32 -390 119 -416 50 -15 89 0 134 52 29 35 35 38 62 30 51 -16 156 -60
181 -77 27 -17 47 -8 58 27 5 14 16 19 40 19 42 0 122 53 150 100 16 28 20 51
18 118 -1 75 -4 88 -34 137 -46 76 -69 75 -69 -3 0 -47 4 -63 20 -77 12 -10
30 -33 41 -51 26 -43 16 -63 -52 -97 -49 -24 -55 -25 -88 -11 -33 13 -60 39
-132 123 -15 17 -33 31 -41 31 -25 0 -68 -40 -84 -78 -22 -54 -61 -89 -121
-112 -48 -18 -57 -19 -81 -6 -16 8 -34 27 -41 42 -7 17 -18 126 -27 269 -17
296 -35 465 -63 589 -7 29 -25 45 -34 29z m498 -839 c14 -15 25 -38 25 -51 0
-22 -3 -24 -32 -18 -40 9 -84 31 -94 47 -9 14 31 48 58 48 10 0 30 -12 43 -26z"/>
<path d="M9288 1713 c-21 -24 -38 -59 -38 -76 0 -20 74 -67 104 -67 28 0 66
45 66 78 0 22 -73 82 -100 82 -9 0 -24 -8 -32 -17z"/>
<path d="M10513 1708 c-45 -49 -45 -62 -5 -100 61 -58 90 -59 117 -5 23 47 18
64 -27 97 -49 36 -58 37 -85 8z"/>
<path d="M4588 1702 c-10 -2 -18 -8 -18 -13 0 -5 -5 -9 -11 -9 -6 0 -29 -13
-52 -28 -23 -15 -64 -39 -90 -52 -58 -30 -103 -75 -112 -113 -6 -24 -5 -26 11
-20 11 3 21 10 24 14 5 8 148 95 194 119 30 15 81 82 74 97 -1 5 -11 7 -20 5z"/>
<path d="M5482 1674 c-25 -17 -52 -69 -52 -100 0 -14 15 -35 41 -56 l41 -34
-39 -35 c-22 -19 -60 -49 -86 -66 -52 -36 -59 -53 -22 -53 40 0 103 42 134 89
16 24 39 48 52 55 24 12 39 56 20 56 -6 0 -11 17 -11 39 0 84 -37 134 -78 105z
m30 -71 c21 -19 24 -43 5 -43 -19 0 -50 37 -42 49 9 15 15 14 37 -6z"/>
<path d="M6294 1613 c-19 -20 -34 -44 -34 -53 0 -19 77 -80 100 -80 35 0 80
74 63 105 -10 17 -73 65 -86 65 -5 0 -25 -17 -43 -37z"/>
<path d="M7664 1636 c-18 -13 -106 -60 -294 -159 -46 -25 -93 -53 -105 -64
-38 -37 -56 -65 -51 -80 5 -13 10 -13 34 3 54 35 192 113 293 165 57 29 116
64 132 78 41 37 34 86 -9 57z"/>
<path d="M10275 1564 c-11 -9 -66 -43 -123 -76 -94 -56 -142 -99 -142 -126 0
-26 23 -19 83 23 36 25 67 45 70 45 22 0 130 76 142 100 26 50 12 66 -30 34z"/>
<path d="M9027 1539 c-81 -43 -257 -236 -257 -283 0 -8 -4 -18 -10 -21 -5 -3
-10 -42 -10 -85 0 -67 3 -82 21 -99 27 -25 84 -39 192 -46 60 -5 94 -12 108
-24 22 -17 22 -18 -29 -49 -71 -43 -225 -116 -299 -141 -195 -66 -328 -12
-390 159 -15 42 -17 176 -3 185 6 3 10 16 10 29 0 12 4 26 9 31 4 6 11 22 15
38 5 23 3 27 -14 27 -13 0 -20 -7 -20 -18 0 -10 -4 -22 -8 -27 -12 -14 -28
-77 -43 -162 -10 -59 -10 -87 1 -145 22 -125 60 -190 139 -236 42 -25 55 -27
146 -26 112 1 178 20 296 87 169 95 257 190 245 266 -9 61 -36 78 -134 86
-141 12 -212 42 -212 90 0 54 142 215 222 251 l38 17 28 -26 c16 -15 31 -27
36 -27 11 0 36 66 36 95 0 26 -42 75 -64 75 -6 -1 -28 -10 -49 -21z"/>
<path d="M1551 1483 c-17 -21 -31 -43 -31 -50 0 -15 87 -83 107 -83 7 0 23 16
34 35 12 19 25 35 29 35 4 0 27 -16 50 -35 l43 -36 23 22 c13 12 28 35 33 51
10 27 7 32 -27 64 -46 42 -72 43 -95 4 -22 -37 -33 -37 -77 0 -19 17 -40 30
-46 30 -7 0 -26 -17 -43 -37z"/>
<path d="M7748 1438 c-24 -44 -48 -100 -48 -114 0 -8 7 -14 16 -14 12 0 14 -3
6 -13 -23 -27 -35 -104 -22 -142 10 -30 10 -40 -1 -50 -8 -8 -70 -24 -138 -37
l-124 -23 -20 -39 c-14 -26 -17 -43 -11 -53 5 -9 64 -35 132 -58 158 -56 232
-90 232 -108 0 -21 -26 -40 -130 -95 -308 -161 -789 -284 -1300 -334 -177 -17
-675 -17 -850 0 -285 29 -569 88 -781 165 -109 40 -267 114 -322 151 -42 29
-87 43 -87 28 0 -5 24 -36 53 -68 172 -192 180 -197 378 -257 412 -125 736
-165 1234 -154 468 11 855 72 1220 192 369 121 582 247 614 362 25 88 16 104
-80 149 -54 25 -76 41 -71 49 4 7 43 32 86 54 91 47 121 50 216 21 71 -22 116
-25 125 -10 3 5 9 32 12 59 8 67 -23 125 -108 205 -70 67 -189 156 -207 156
-6 0 -17 -10 -24 -22z m91 -128 c10 -5 24 -23 31 -39 10 -25 16 -29 39 -25 22
5 36 -4 84 -49 44 -43 57 -62 57 -85 l0 -30 -67 20 c-109 33 -116 36 -108 56
22 53 19 57 -19 25 -47 -42 -66 -41 -111 2 l-37 34 21 27 c19 24 79 74 89 74
2 0 11 -4 21 -10z"/>
<path d="M9317 1349 c-17 -34 -22 -51 -14 -53 80 -23 117 -44 167 -95 30 -31
65 -75 78 -98 l23 -42 -21 -11 c-65 -35 -296 -53 -324 -25 -25 25 -34 17 -41
-35 -5 -39 -3 -56 9 -75 15 -22 24 -25 76 -25 61 0 238 34 275 52 40 21 55 50
55 115 0 105 -78 247 -174 312 -63 44 -79 41 -109 -20z"/>
<path d="M5716 1344 c-3 -9 -6 -44 -6 -79 0 -54 -4 -68 -26 -94 -14 -17 -32
-31 -41 -31 -24 0 -68 -52 -82 -97 -13 -38 -12 -45 8 -78 11 -20 21 -49 21
-64 0 -56 -148 -193 -272 -251 -56 -27 -74 -30 -156 -30 -51 0 -103 5 -114 11
-13 7 -24 7 -30 1 -16 -16 16 -38 78 -51 33 -7 76 -17 97 -24 77 -22 129 -15
189 25 146 97 247 257 248 394 0 24 8 38 34 58 19 14 40 42 46 61 15 45 25 38
40 -27 17 -69 43 -121 72 -140 36 -23 180 -48 281 -48 164 0 203 11 427 121
63 31 133 62 155 68 60 16 142 13 218 -9 l69 -19 29 32 c29 32 45 64 36 74 -3
2 -47 9 -99 13 -138 13 -257 47 -457 129 -41 17 -85 31 -99 31 -34 0 -85 -41
-107 -85 -24 -51 -12 -59 70 -44 88 15 125 10 264 -37 27 -9 -10 -30 -154 -89
-128 -53 -150 -59 -256 -68 -95 -9 -134 -8 -211 5 -121 19 -166 41 -186 87
-25 61 -42 134 -42 188 0 33 -6 57 -16 67 -19 20 -20 20 -28 0z"/>
<path d="M394 1253 c-3 -10 -10 -28 -15 -41 -16 -41 -10 -148 11 -206 47 -123
177 -186 386 -186 249 0 598 75 702 150 23 16 49 30 57 30 8 0 37 -16 64 -35
53 -38 78 -42 120 -21 50 26 66 62 66 146 -1 62 -5 81 -25 112 -29 44 -43 47
-58 13 -22 -48 -15 -84 24 -121 31 -29 35 -36 24 -50 -11 -12 -26 -14 -79 -9
-93 9 -114 21 -109 62 2 18 2 33 -1 33 -2 0 -20 -17 -40 -38 -38 -40 -69 -54
-216 -91 -341 -86 -678 -74 -805 27 -62 51 -80 87 -80 163 0 66 -14 99 -26 62z"/>
<path d="M5651 873 c-40 -48 -39 -63 4 -91 19 -12 35 -27 35 -33 0 -6 -14 -31
-32 -56 l-31 -47 32 -26 c72 -61 98 -62 131 -8 31 51 31 51 -40 107 l-25 19
21 24 c30 32 45 64 38 80 -7 17 -74 68 -90 68 -7 0 -26 -17 -43 -37z"/>
<path d="M10745 876 c-45 -48 -53 -85 -25 -108 12 -10 31 -18 43 -18 19 0 19
-1 4 -18 -18 -20 -22 -42 -8 -42 9 0 141 67 179 91 22 14 31 59 12 59 -6 0
-22 -7 -36 -17 -41 -27 -154 -10 -154 24 0 15 12 15 67 -2 16 -5 24 -1 33 16
11 19 10 24 -6 36 -33 24 -74 16 -109 -21z"/>
<path d="M1778 802 c-9 -10 -45 -33 -80 -51 -127 -68 -187 -117 -188 -153 0
-29 15 -28 51 1 34 28 72 52 153 95 52 28 106 82 106 106 0 24 -19 25 -42 2z"/>
<path d="M9493 771 c-17 -14 -53 -37 -80 -51 -118 -60 -183 -115 -183 -155 0
-22 21 -18 54 10 16 14 67 46 113 72 84 47 143 100 143 128 0 25 -14 24 -47
-4z"/>
  <path transform="translate(-1400, 0)" d="M9493 771 c-17 -14 -53 -37 -80 -51 -118 -60 -183 -115 -183 -155 0
-22 21 -18 54 10 16 14 67 46 113 72 84 47 143 100 143 128 0 25 -14 24 -47
-4z"/>
<path d="M911 645 c-17 -20 -31 -42 -31 -50 0 -19 90 -87 109 -83 9 2 27 23
40 47 l24 45 -43 38 c-23 21 -48 38 -55 38 -7 0 -27 -16 -44 -35z"/>
<path d="M8690 495 c-23 -37 -24 -37 -76 2 -42 31 -57 29 -93 -14 -35 -43 -31
-56 26 -96 50 -35 69 -34 88 3 9 17 20 30 25 30 5 0 29 -14 53 -31 38 -27 48
-29 67 -19 25 13 53 72 44 94 -7 18 -78 66 -98 66 -8 0 -24 -16 -36 -35z"/>
<path d="M1065 360 c-10 -11 -21 -20 -25 -20 -14 0 -176 -101 -202 -126 -28
-26 -38 -74 -16 -74 7 0 23 11 37 24 25 23 59 44 146 90 48 25 115 90 115 111
0 22 -34 18 -55 -5z"/>
<path d="M7576 285 l-27 -35 -37 25 c-47 32 -67 32 -97 -2 -35 -40 -32 -68 12
-98 49 -33 78 -32 100 3 9 15 18 29 20 31 2 2 23 -10 47 -27 51 -36 67 -39 87
-14 19 23 39 60 39 71 0 11 -93 81 -108 81 -5 0 -22 -16 -36 -35z"/>
</g>
</svg>
