<?xml version="1.0" standalone="no"?>
<!DOCTYPE svg PUBLIC "-//W3C//DTD SVG 20010904//EN"
 "http://www.w3.org/TR/2001/REC-SVG-20010904/DTD/svg10.dtd">
<svg version="1.0" xmlns="http://www.w3.org/2000/svg"
 width="1200.000000pt" height="408.000000pt" viewBox="0 0 1200.000000 408.000000"
 preserveAspectRatio="xMidYMid meet">
<g transform="translate(0.000000,408.000000) scale(0.100000,-0.100000)"
fill="#000000" stroke="none">
<path d="M7571 4024 c-17 -14 -38 -42 -48 -61 -20 -43 -10 -64 36 -77 34 -10
40 -21 16 -30 -18 -7 -20 -36 -2 -35 24 1 201 94 211 111 19 32 -5 40 -57 21
-41 -15 -53 -16 -94 -5 -27 7 -52 18 -58 23 -13 13 15 31 35 22 8 -3 26 -6 40
-7 20 -1 26 4 28 25 2 20 -2 28 -20 33 -40 10 -56 7 -87 -20z"/>
<path d="M2096 3979 c-21 -16 -68 -45 -105 -65 -91 -50 -128 -80 -147 -116
-24 -47 -4 -57 43 -20 36 29 72 51 158 96 52 28 115 91 115 116 0 27 -18 24
-64 -11z"/>
<path d="M2421 3868 c-5 -18 -13 -48 -16 -66 -10 -47 26 -319 85 -657 23 -132
23 -149 1 -177 -26 -33 -107 -53 -166 -40 -51 10 -55 31 -15 81 45 56 39 87
-24 126 -43 26 -58 30 -125 29 -113 0 -143 -21 -175 -121 -6 -20 -3 -21 55
-20 49 1 63 -2 75 -17 8 -12 10 -25 5 -35 -9 -16 -119 -51 -161 -51 -32 0 -73
-45 -64 -73 9 -30 17 -34 85 -41 56 -7 98 -17 144 -36 11 -4 35 -13 53 -20 17
-7 32 -18 32 -24 0 -18 -156 -79 -214 -84 -56 -4 -96 10 -128 45 -23 25 -35
116 -42 308 -10 245 -54 624 -76 649 -5 4 -16 -3 -25 -18 -19 -29 -18 -67 7
-206 15 -83 27 -221 48 -585 9 -152 14 -187 33 -225 31 -63 75 -90 149 -90 53
0 71 7 186 66 182 95 243 110 319 79 19 -8 42 -15 49 -15 15 0 74 76 74 95 0
8 -27 15 -77 20 -79 7 -151 20 -188 34 -11 5 -38 14 -60 20 -22 7 -49 16 -60
21 -11 4 -28 11 -38 14 -25 8 -18 34 16 54 27 16 29 16 45 -3 43 -51 82 -69
158 -69 67 -1 75 1 102 27 17 17 35 48 41 72 13 53 14 177 2 242 -5 26 -14 81
-20 121 -6 39 -16 103 -22 140 -20 119 -17 230 8 289 l21 53 -25 37 c-14 20
-29 47 -34 60 -12 32 -26 29 -38 -9z"/>
<path d="M3360 3740 c-30 -21 -58 -39 -61 -40 -4 0 -33 -16 -65 -35 -76 -46
-124 -93 -124 -122 0 -29 5 -29 44 0 29 21 63 42 143 88 17 10 47 28 67 41 47
31 89 110 57 108 -3 -1 -31 -19 -61 -40z"/>
<path d="M2616 3718 c-22 -68 -27 -123 -18 -185 26 -167 62 -528 78 -762 9
-148 36 -189 47 -71 7 80 -15 409 -43 630 -6 47 -15 119 -21 160 -5 41 -12
110 -15 153 -6 72 -19 106 -28 75z"/>
<path d="M2988 3704 c-16 -38 -16 -153 0 -279 28 -211 42 -358 61 -625 6 -79
15 -148 20 -153 23 -23 31 9 31 131 0 148 -16 324 -62 692 -5 41 -11 113 -15
160 -6 96 -16 117 -35 74z"/>
<path d="M6446 3648 c-3 -46 -2 -121 4 -168 10 -86 23 -205 40 -360 5 -47 14
-150 20 -230 14 -190 23 -251 35 -250 6 0 14 13 18 28 9 31 1 294 -13 422 -5
47 -14 132 -20 190 -6 58 -15 132 -20 165 -5 33 -14 111 -21 173 -15 139 -34
153 -43 30z"/>
<path d="M2250 3694 c-19 -14 -78 -49 -131 -79 -106 -60 -144 -93 -152 -130
-7 -39 8 -39 58 0 51 38 161 105 175 105 27 0 104 110 88 125 -2 2 -19 -8 -38
-21z"/>
<path d="M7620 3657 c-9 -49 -9 -84 -1 -143 19 -130 30 -223 41 -344 6 -63 15
-155 20 -205 5 -49 12 -137 15 -194 6 -108 18 -152 37 -133 10 10 13 319 3
351 -2 9 -9 70 -15 136 -6 66 -15 156 -20 200 -6 44 -15 121 -21 170 -6 50
-13 119 -17 154 -9 86 -26 89 -42 8z"/>
<path d="M11270 3660 c-19 -11 -79 -40 -132 -65 -54 -25 -141 -65 -194 -90
-53 -25 -98 -45 -100 -45 -2 0 -77 -35 -166 -79 -125 -61 -172 -89 -204 -122
-70 -75 -64 -109 11 -59 36 24 445 230 458 230 5 0 159 71 254 117 55 26 132
108 117 123 -5 5 -24 1 -44 -10z"/>
<path d="M8055 3638 c-25 -82 -26 -91 -17 -116 27 -70 48 -258 63 -582 13
-274 23 -329 74 -379 29 -30 42 -35 76 -35 48 2 78 26 120 99 61 104 76 108
200 56 40 -17 79 -31 86 -31 16 0 53 72 53 102 0 24 -70 160 -98 191 -26 29
-62 17 -99 -31 -42 -55 -42 -66 1 -59 46 7 98 -38 66 -58 -6 -4 -16 -2 -23 3
-7 5 -27 14 -45 20 -33 11 -34 11 -114 -73 -87 -91 -126 -110 -173 -85 -43 23
-56 69 -65 243 -18 317 -21 353 -31 437 -31 248 -57 351 -74 298z"/>
<path d="M4725 3622 c-20 -17 -82 -56 -158 -97 -58 -32 -105 -73 -123 -107
-24 -47 -4 -52 51 -12 45 32 158 102 209 129 10 5 24 19 30 30 6 11 14 22 18
25 11 9 13 43 3 47 -6 2 -20 -5 -30 -15z"/>
<path d="M10087 3593 c-3 -27 -1 -68 4 -93 21 -103 37 -258 48 -470 14 -283
27 -397 50 -435 46 -79 157 -109 383 -103 207 6 298 36 363 119 17 21 34 38
39 39 5 0 42 -23 82 -50 40 -28 86 -53 102 -56 40 -8 138 24 277 91 61 30 132
59 159 66 41 10 133 9 221 -3 14 -2 29 11 52 46 19 27 32 54 30 60 -2 7 -37
11 -88 12 -98 1 -229 31 -330 74 -143 61 -175 59 -261 -13 -55 -45 -64 -73
-20 -63 88 21 169 13 265 -26 65 -26 1 -64 -191 -114 l-101 -25 -72 20 c-39
11 -79 27 -89 36 -24 21 -36 19 -84 -15 -72 -52 -194 -80 -356 -82 -127 -1
-216 12 -277 42 -74 35 -79 53 -93 315 -11 207 -25 381 -39 475 -6 36 -13 85
-16 110 -11 80 -15 90 -34 90 -14 0 -19 -10 -24 -47z"/>
<path d="M9545 3535 c-22 -12 -53 -43 -70 -68 -16 -25 -37 -46 -46 -46 -23 -1
-46 -48 -31 -63 7 -7 12 -28 12 -47 0 -48 37 -121 60 -121 25 0 70 77 70 118
0 24 -8 37 -35 58 -19 14 -35 30 -35 34 0 13 73 80 122 111 26 17 48 35 48 40
0 17 -55 8 -95 -16z m-61 -226 c31 -24 34 -49 7 -49 -20 0 -51 35 -51 57 0 18
13 16 44 -8z"/>
<path d="M3982 3497 c-12 -12 -28 -42 -37 -66 l-15 -44 45 -42 45 -43 -37 -33
c-21 -19 -59 -48 -85 -64 -55 -35 -62 -55 -18 -55 41 0 90 34 131 91 19 27 42
48 51 49 21 0 35 44 20 63 -5 6 -12 39 -16 72 -6 57 -27 95 -51 95 -6 0 -21
-10 -33 -23z m40 -64 c10 -9 18 -25 18 -35 0 -17 -2 -18 -30 -3 -18 9 -30 23
-30 35 0 24 17 26 42 3z"/>
<path d="M9602 3475 c-12 -14 -26 -42 -32 -61 -10 -29 -9 -39 5 -60 9 -14 27
-30 41 -36 13 -6 24 -17 24 -23 0 -16 -62 -72 -122 -110 -44 -27 -63 -55 -38
-55 6 0 29 6 51 13 37 11 77 45 119 102 9 11 24 25 35 31 17 10 20 20 17 69
-2 32 -11 79 -20 104 -21 56 -49 65 -80 26z m54 -70 c9 -14 14 -29 10 -33 -11
-10 -60 21 -64 41 -5 27 35 21 54 -8z"/>
<path d="M7201 3443 c-46 -55 -40 -89 10 -62 11 5 39 9 62 7 l42 -3 -57 -27
c-31 -15 -59 -32 -63 -37 -14 -24 7 -28 45 -10 21 10 52 19 67 19 36 0 42 5
81 68 49 80 47 82 -62 82 l-95 0 -30 -37z"/>
<path d="M9184 3456 c-18 -13 -73 -42 -304 -163 -105 -55 -170 -111 -170 -145
0 -26 10 -23 86 23 37 23 86 51 108 64 23 12 68 37 101 55 33 19 86 46 117 62
69 34 118 95 90 112 -5 3 -17 -1 -28 -8z"/>
<path d="M7022 3420 c-11 -11 -37 -29 -56 -40 -20 -11 -53 -30 -73 -42 -21
-12 -51 -28 -66 -36 -46 -23 -97 -80 -97 -107 0 -23 24 -36 32 -17 4 9 84 72
91 72 3 0 37 18 76 41 68 39 131 100 131 126 0 21 -17 23 -38 3z"/>
<path d="M3274 3378 c-37 -45 -46 -68 -32 -85 20 -24 85 -63 106 -63 30 0 82
76 67 100 -12 20 -87 70 -105 70 -9 0 -25 -10 -36 -22z"/>
<path d="M4810 3317 c-239 -119 -315 -180 -372 -304 -34 -72 -33 -108 3 -135
40 -30 91 -38 276 -45 263 -9 636 20 1173 92 214 29 261 28 317 -9 52 -33 105
-84 99 -94 -3 -5 -54 -14 -113 -21 -59 -7 -160 -21 -223 -31 -196 -33 -686
-93 -1015 -125 -169 -17 -422 -19 -598 -5 -104 8 -123 12 -153 35 -43 33 -67
109 -68 220 -1 91 -16 105 -49 45 -30 -54 -57 -80 -122 -112 -33 -17 -70 -40
-83 -51 -24 -22 -62 -98 -62 -124 0 -20 41 -32 134 -39 l83 -7 19 32 c21 35
44 41 44 11 0 -33 27 -76 62 -101 26 -19 46 -24 103 -25 38 0 151 -4 250 -9
201 -8 274 -3 740 49 497 57 799 98 992 137 105 21 162 142 113 239 -53 103
-186 131 -460 95 -63 -9 -200 -27 -305 -41 -333 -44 -374 -47 -675 -48 -289 0
-296 0 -365 24 -93 33 -96 51 -20 112 77 61 174 118 270 157 44 18 99 42 123
53 61 30 105 110 59 107 -7 0 -86 -37 -177 -82z m-720 -526 c0 -35 -5 -63 -12
-67 -18 -11 -97 -7 -113 6 -12 10 -4 21 43 65 31 30 63 54 70 55 8 0 12 -18
12 -59z"/>
<path d="M8605 3370 c-39 -27 -83 -53 -158 -94 -60 -32 -114 -83 -119 -111 -8
-39 7 -39 55 -2 24 19 75 51 113 72 38 21 80 46 94 55 28 20 75 96 63 103 -5
3 -26 -8 -48 -23z"/>
<path d="M11492 3351 c-18 -16 -62 -43 -97 -62 -93 -48 -150 -93 -169 -130
-21 -43 -6 -61 26 -32 22 20 153 102 212 133 48 25 99 107 71 116 -5 2 -25
-10 -43 -25z"/>
<path d="M7275 3066 c-14 -19 -27 -46 -28 -61 -2 -24 3 -29 51 -44 30 -9 73
-34 100 -57 58 -50 127 -147 119 -168 -7 -19 -56 -33 -177 -51 -104 -16 -162
-9 -184 21 -13 17 -14 16 -25 -4 -19 -35 -14 -109 9 -132 27 -27 101 -26 221
1 118 28 152 42 179 76 46 58 6 221 -79 328 -30 37 -137 125 -153 125 -4 0
-19 -15 -33 -34z"/>
<path d="M3311 3015 c-28 -61 -27 -72 12 -80 71 -15 146 -76 217 -178 42 -59
35 -68 -65 -90 -162 -36 -249 -33 -281 11 -19 25 -28 -14 -25 -106 2 -67 87
-73 296 -21 93 23 129 49 139 99 14 74 -23 190 -90 281 -38 53 -136 129 -165
129 -10 0 -25 -17 -38 -45z"/>
<path d="M10885 3013 c-32 -48 -32 -63 3 -95 63 -59 96 -57 126 7 22 45 14 69
-32 100 -50 34 -67 32 -97 -12z"/>
<path d="M9820 2969 c0 -54 4 -67 33 -108 54 -75 117 -231 117 -291 0 -65 -94
-139 -231 -180 -200 -60 -359 30 -359 204 0 30 5 58 10 61 15 9 12 65 -3 65
-28 0 -42 -63 -42 -190 0 -143 12 -178 83 -242 54 -49 98 -61 201 -56 109 5
191 41 274 119 77 72 97 127 97 263 0 146 -29 235 -130 394 -8 12 -23 22 -32
22 -15 0 -18 -9 -18 -61z"/>
<path d="M1517 2983 c-4 -3 -7 -32 -7 -63 0 -50 3 -60 31 -86 86 -82 62 -144
-62 -159 -89 -10 -162 30 -129 71 9 10 10 18 3 25 -11 11 -29 -7 -48 -45 -19
-39 -270 -109 -485 -136 -105 -13 -331 -13 -396 -1 -93 18 -167 52 -219 102
l-50 48 -1 88 c0 48 -3 87 -7 86 -4 -1 -12 -3 -18 -5 -5 -2 -16 -32 -25 -68
-27 -117 7 -235 87 -304 75 -64 132 -79 309 -84 290 -7 652 69 775 162 18 14
37 26 42 26 4 0 30 -16 57 -35 134 -95 271 16 252 204 -11 102 -76 207 -109
174z"/>
<path d="M8968 2923 c-21 -26 -54 -102 -62 -145 -10 -55 2 -104 35 -139 34
-36 60 -33 100 13 37 41 44 21 13 -40 -34 -69 -151 -178 -244 -226 -61 -33
-86 -40 -145 -43 -59 -3 -77 0 -115 20 -54 28 -110 104 -110 151 0 37 -14 61
-29 52 -15 -10 -2 -93 22 -136 39 -70 155 -159 242 -185 36 -11 52 -12 80 -2
79 28 249 175 298 258 51 86 72 240 46 332 -13 49 -64 107 -93 107 -13 0 -30
-8 -38 -17z m16 -109 c20 -8 21 -53 1 -60 -8 -4 -22 -1 -30 6 -18 15 -20 46
-2 53 6 3 13 6 14 6 1 1 8 -2 17 -5z"/>
<path d="M6949 2883 c0 -21 -4 -47 -8 -58 -6 -14 5 -42 41 -103 60 -104 61
-130 10 -194 -62 -78 -134 -134 -251 -193 -70 -36 -80 -38 -162 -37 -48 0 -97
6 -109 12 -16 8 -25 9 -33 1 -13 -13 9 -41 33 -41 17 0 146 -29 223 -51 33 -9
44 -7 90 18 75 40 216 184 252 258 25 53 29 71 30 151 0 89 -1 95 -45 183 -49
98 -70 114 -71 54z"/>
<path d="M9600 2740 c-48 -51 -48 -69 -4 -107 58 -51 82 -53 116 -12 37 44 35
63 -8 102 -57 50 -71 52 -104 17z"/>
<path d="M11501 2483 c-17 -21 -31 -45 -31 -55 0 -20 65 -76 98 -85 14 -3 29
0 37 8 23 23 43 69 38 87 -5 18 -85 82 -102 82 -5 0 -23 -17 -40 -37z"/>
<path d="M1451 2394 c-29 -21 -81 -102 -81 -126 0 -13 15 -25 46 -38 l46 -20
-27 -21 c-17 -15 -23 -25 -16 -32 12 -12 192 75 227 110 42 42 25 62 -27 35
-19 -9 -54 -17 -79 -16 -47 0 -103 22 -102 39 1 16 33 18 59 4 23 -12 27 -11
44 9 22 27 15 50 -18 63 -34 13 -45 11 -72 -7z"/>
<path d="M2211 2315 c-31 -35 -38 -60 -23 -81 15 -22 80 -64 99 -64 27 0 73
60 73 95 0 13 -94 85 -111 85 -4 0 -21 -16 -38 -35z"/>
<path d="M662 2263 c-18 -21 -32 -46 -32 -55 0 -10 23 -33 55 -54 53 -35 56
-36 74 -20 26 23 50 76 44 93 -6 15 -86 73 -101 73 -5 0 -23 -17 -40 -37z"/>
<path d="M455 2281 c-5 -9 -47 -34 -155 -94 -68 -36 -127 -91 -133 -123 -6
-34 15 -36 49 -5 16 15 52 39 79 55 119 67 164 102 184 138 19 37 19 38 1 38
-10 0 -21 -4 -25 -9z"/>
<path d="M2527 2093 c-35 -69 -26 -198 38 -583 50 -298 50 -296 32 -323 -8
-13 -33 -29 -56 -35 -61 -19 -125 12 -185 88 -26 32 -56 62 -67 65 -33 11 -70
-23 -114 -106 -70 -131 -108 -169 -185 -183 -51 -9 -80 -32 -80 -64 0 -44 13
-53 91 -63 79 -10 211 -51 216 -66 5 -15 -16 -28 -104 -62 -47 -18 -101 -31
-126 -31 -51 0 -105 31 -125 73 -8 16 -17 98 -23 205 -18 334 -31 474 -62 647
-9 50 -17 71 -28 73 -13 2 -18 -8 -25 -45 -4 -26 -6 -52 -5 -58 28 -96 48
-286 61 -565 6 -124 16 -256 21 -294 10 -62 16 -73 55 -112 42 -43 45 -44 107
-44 59 0 73 5 201 71 163 83 215 96 308 72 l62 -16 33 39 c18 22 32 48 31 59
-3 18 -13 21 -88 26 -80 7 -176 31 -300 77 -122 46 -112 38 -96 69 37 71 36
71 115 34 67 -31 159 -61 188 -61 7 0 15 11 19 25 6 24 14 29 42 26 26 -4 87
22 114 47 17 16 31 44 39 77 13 57 8 198 -11 310 -20 119 -29 186 -41 295 -11
103 -11 106 14 169 l26 63 -29 43 c-17 24 -30 50 -30 59 0 27 -19 27 -33 -1z
m-197 -883 c22 -22 35 -63 27 -85 -5 -12 -13 -11 -54 6 -88 37 -105 67 -51 89
36 14 56 12 78 -10z"/>
<path d="M2131 2086 c-7 -8 -58 -40 -114 -72 -112 -63 -167 -112 -167 -150 0
-30 4 -30 43 0 45 34 197 126 208 126 12 0 69 79 69 97 0 17 -24 17 -39 -1z"/>
<path d="M5495 1946 c-27 -19 -87 -55 -133 -82 -84 -49 -106 -71 -118 -118 -5
-23 -4 -25 12 -19 11 4 27 14 36 23 9 8 66 43 127 78 76 44 116 73 130 96 40
65 22 72 -54 22z"/>
<path d="M7980 1917 c-14 -7 -43 -25 -65 -39 -22 -14 -71 -44 -110 -66 -80
-46 -111 -75 -120 -114 -9 -37 10 -37 55 0 19 15 78 53 132 85 66 39 103 68
118 92 27 44 23 59 -10 42z"/>
<path d="M2716 1808 c-12 -37 -26 -137 -21 -149 5 -14 17 -113 35 -284 21
-188 30 -295 40 -448 11 -155 22 -213 39 -203 33 21 14 362 -49 851 -5 44 -13
115 -16 158 -7 72 -19 106 -28 75z"/>
<path d="M2370 1757 c-19 -12 -36 -25 -38 -29 -2 -5 -8 -8 -13 -8 -5 0 -39
-18 -75 -40 -36 -22 -69 -40 -73 -40 -18 0 -81 -75 -81 -96 0 -29 21 -31 45
-4 15 16 98 70 141 90 49 24 106 71 123 102 24 46 16 53 -29 25z"/>
<path d="M9176 1729 c-9 -27 -19 -94 -17 -104 29 -101 49 -282 61 -550 6 -126
15 -263 22 -303 10 -65 16 -79 52 -118 40 -43 53 -49 107 -46 24 2 95 64 133
117 14 19 16 18 83 -27 l68 -46 130 -9 c289 -18 532 -9 924 36 551 63 995 127
1062 152 30 12 76 80 85 127 14 71 -34 149 -114 188 -47 23 -177 29 -297 15
-49 -5 -207 -26 -350 -46 -142 -19 -333 -40 -423 -46 -213 -15 -558 -7 -630
14 -121 35 -110 64 66 184 50 34 234 123 255 123 34 0 127 78 127 107 0 35
-19 28 -267 -95 -173 -85 -284 -189 -318 -298 -23 -72 -18 -95 26 -117 71 -34
142 -40 439 -33 297 6 474 21 895 76 312 41 358 42 416 8 24 -15 59 -42 78
-62 l34 -35 -27 -11 c-15 -5 -46 -10 -69 -10 -23 0 -112 -11 -197 -25 -186
-30 -356 -52 -760 -101 -241 -29 -355 -37 -542 -41 -294 -6 -513 8 -601 41
l-62 22 -65 -32 c-93 -46 -133 -50 -170 -16 -27 25 -31 36 -40 122 -5 52 -14
183 -20 290 -6 107 -18 245 -27 305 -9 61 -19 136 -23 169 -8 59 -34 105 -44
75z"/>
<path d="M8645 1635 c-39 -14 -99 -72 -111 -107 -3 -10 -14 -18 -24 -18 -27 0
-45 -37 -32 -64 6 -11 13 -43 16 -70 7 -53 28 -96 49 -96 31 0 77 72 77 119 0
25 -8 36 -40 57 -37 24 -38 27 -25 48 15 22 94 85 133 105 23 12 31 41 10 41
-7 -1 -31 -7 -53 -15z m-57 -263 c2 -6 -4 -15 -13 -18 -20 -8 -55 23 -55 48 0
19 1 19 32 1 17 -10 33 -24 36 -31z"/>
<path d="M8676 1557 c-14 -19 -29 -48 -32 -66 -6 -28 -2 -36 34 -70 38 -35 40
-39 27 -58 -8 -11 -46 -44 -85 -73 -38 -28 -70 -56 -70 -62 0 -12 54 -1 92 18
26 13 98 98 98 115 0 5 6 6 13 3 8 -3 20 2 27 11 11 13 11 23 1 50 -6 18 -11
37 -9 42 5 18 -15 89 -29 106 -23 25 -39 21 -67 -16z m64 -67 c14 -26 13 -30
-8 -30 -25 0 -56 35 -48 55 7 20 40 5 56 -25z"/>
<path d="M5343 1547 c-39 -57 -38 -63 9 -95 62 -43 87 -45 110 -9 33 49 32 65
-9 102 -49 45 -81 46 -110 2z"/>
<path d="M3323 1540 c-17 -10 -76 -42 -130 -71 -183 -96 -248 -132 -274 -150
-27 -19 -67 -84 -57 -94 3 -4 55 22 115 56 59 34 162 90 228 124 95 49 126 70
147 101 37 55 28 67 -29 34z"/>
<path d="M7799 1454 c-54 -51 -107 -148 -116 -211 -4 -34 -1 -43 28 -71 18
-18 39 -32 46 -32 23 0 14 -25 -14 -37 -16 -6 -60 -21 -100 -33 -66 -20 -73
-24 -83 -56 -16 -46 -3 -60 63 -69 29 -4 79 -14 112 -22 33 -8 70 -17 82 -20
28 -7 49 -31 37 -42 -5 -5 -58 -28 -119 -52 -123 -48 -170 -53 -231 -23 -35
17 -39 23 -40 56 -1 47 -14 52 -33 13 -20 -43 -41 -65 -80 -81 -47 -20 -110
-17 -148 6 -28 17 -32 23 -27 50 8 39 -9 39 -32 0 -26 -44 -109 -77 -289 -116
-202 -44 -493 -58 -620 -30 -66 14 -158 54 -190 83 -52 46 -65 78 -65 156 0
42 -4 79 -10 82 -33 20 -54 -181 -28 -267 25 -84 125 -161 244 -188 69 -16
299 -13 427 5 218 30 404 86 487 146 49 35 61 33 119 -21 57 -53 78 -52 147
11 l56 50 26 -17 c63 -42 129 -74 152 -74 14 0 63 19 110 41 278 134 298 140
461 124 l75 -7 27 41 c44 67 40 71 -63 71 -113 0 -404 63 -421 92 -10 16 -2
28 20 28 9 0 21 4 27 9 5 4 38 20 74 34 102 40 217 97 233 115 35 39 70 122
52 122 -2 0 -32 -18 -66 -40 -58 -37 -155 -80 -183 -80 -32 0 -108 34 -145 67
-37 31 -42 40 -39 71 2 29 10 40 37 56 47 27 177 35 221 13 26 -14 32 -14 36
-2 8 20 0 29 -53 64 -37 25 -57 31 -100 31 -50 0 -57 -3 -104 -46z"/>
<path d="M6500 1403 c-41 -64 -39 -84 12 -127 l43 -35 -35 -36 c-19 -20 -56
-50 -82 -66 -70 -45 -75 -79 -7 -56 53 18 86 44 116 88 15 23 37 45 50 50 17
6 23 16 23 37 0 16 -3 32 -7 36 -4 3 -8 30 -10 58 -6 104 -54 128 -103 51z
m66 -48 c21 -31 12 -42 -21 -27 -15 7 -25 20 -25 32 0 28 26 25 46 -5z"/>
<path d="M5462 1374 l-32 -36 -39 31 c-21 17 -46 31 -54 31 -14 0 -77 -63 -77
-78 0 -14 16 -29 63 -61 46 -31 49 -32 67 -16 11 10 22 26 25 36 9 27 24 24
74 -16 24 -19 47 -35 52 -35 16 0 59 67 59 93 0 18 -12 35 -39 56 -21 17 -45
31 -53 31 -8 0 -29 -16 -46 -36z"/>
<path d="M9620 1314 c-19 -14 -73 -46 -119 -72 -92 -52 -151 -104 -151 -133 0
-27 11 -24 87 25 37 24 87 53 109 64 56 29 100 67 119 104 8 17 15 33 15 35 0
10 -29 -1 -60 -23z"/>
<path d="M4658 1277 c-49 -48 -51 -72 -5 -62 114 24 138 14 54 -23 -23 -10
-48 -26 -55 -34 -22 -27 5 -32 53 -9 25 12 56 21 70 21 19 0 34 14 65 61 57
82 52 90 -57 87 -87 -3 -88 -3 -125 -41z"/>
<path d="M3735 1280 c-4 -6 -5 -42 -4 -79 3 -65 -8 -101 -31 -101 -9 0 -102
-55 -146 -87 -32 -23 -68 -99 -62 -130 4 -22 37 -30 138 -34 l82 -4 22 42 c11
23 26 43 32 43 6 0 19 -33 29 -72 31 -130 80 -200 164 -235 31 -13 42 -13 95
1 34 8 109 17 169 19 100 3 109 6 135 30 34 32 46 33 103 7 24 -11 54 -20 66
-20 26 0 63 44 63 76 0 38 17 36 50 -6 18 -22 40 -45 50 -50 25 -13 66 3 106
41 l32 31 40 -30 c47 -33 115 -55 157 -50 20 2 37 14 53 38 22 32 24 42 18
113 -5 77 -5 78 21 88 21 8 31 5 60 -18 82 -66 97 -73 143 -73 56 0 94 19 138
70 38 46 49 48 94 20 97 -59 168 20 151 168 -6 56 -22 67 -41 30 -9 -16 -9
-33 -2 -57 12 -44 7 -51 -38 -51 -56 0 -82 23 -82 71 0 53 -18 47 -37 -11 -21
-61 -46 -94 -87 -114 -62 -29 -98 -22 -162 34 -65 57 -83 60 -171 31 -32 -11
-85 -23 -118 -26 -89 -10 -95 -13 -118 -63 -12 -26 -29 -57 -37 -68 -20 -28
-80 -64 -106 -64 -24 0 -88 65 -99 99 -13 41 -30 16 -33 -49 l-3 -62 -40 5
c-61 8 -89 31 -89 73 0 44 -22 41 -31 -4 -15 -72 -54 -102 -134 -102 -56 0
-75 8 -75 31 0 24 -4 24 -57 -2 -25 -12 -71 -23 -115 -26 -70 -5 -74 -4 -109
26 -43 36 -71 92 -98 193 -19 75 -40 203 -44 273 -2 40 -26 60 -42 35z m24
-257 c14 -69 7 -76 -64 -67 -57 7 -65 11 -64 27 0 11 96 95 110 96 3 1 11 -25
18 -56z m1224 -138 c38 -16 82 -68 72 -85 -10 -16 -52 -12 -99 11 -50 23 -91
63 -81 78 9 16 67 14 108 -4z"/>
<path d="M1480 1198 c-16 -22 -30 -47 -30 -54 0 -19 61 -73 89 -81 20 -5 30 1
53 28 42 50 38 81 -16 119 -25 16 -49 30 -55 30 -6 0 -24 -19 -41 -42z"/>
<path d="M8898 1083 c-2 -65 2 -87 22 -113 50 -64 112 -211 126 -299 19 -117
-283 -252 -439 -197 -56 20 -107 64 -128 110 -20 44 -26 160 -9 171 13 8 13
52 1 60 -26 15 -66 -148 -58 -232 8 -83 23 -127 60 -175 78 -103 236 -123 392
-49 68 32 148 99 171 143 66 127 57 324 -22 481 -67 134 -112 173 -116 100z"/>
<path d="M3101 985 c-55 -87 -65 -188 -23 -244 27 -37 75 -40 106 -7 28 31 36
32 36 8 0 -61 -154 -216 -269 -270 -128 -61 -253 -48 -317 32 -30 37 -54 98
-54 139 0 17 -5 27 -15 27 -24 0 -19 -80 7 -132 52 -101 203 -208 295 -208 49
0 90 23 188 102 67 55 128 120 149 158 50 92 71 244 44 333 -15 48 -67 107
-97 107 -15 0 -31 -14 -50 -45z m39 -90 c17 -20 8 -50 -14 -50 -23 0 -41 27
-33 49 8 20 31 21 47 1z"/>
<path d="M185 978 c-24 -49 -22 -199 3 -258 36 -83 122 -144 238 -170 68 -16
302 -13 429 5 241 34 401 85 517 167 14 10 27 5 76 -30 68 -47 100 -52 144
-20 32 22 67 88 68 125 0 50 -23 122 -49 154 l-28 33 -17 -31 c-27 -54 -21
-94 19 -126 36 -29 46 -61 20 -70 -19 -8 -113 2 -150 16 -38 14 -45 24 -38 59
7 37 -11 36 -33 -1 -22 -38 -83 -65 -225 -101 -166 -41 -318 -60 -482 -60
-190 1 -287 23 -380 87 -60 42 -77 78 -77 166 0 42 -4 78 -9 82 -5 3 -17 -9
-26 -27z"/>
<path d="M8683 838 c-25 -28 -43 -62 -43 -81 0 -17 88 -77 113 -77 19 0 67 60
67 83 0 17 -86 97 -105 97 -6 0 -21 -10 -32 -22z"/>
<path d="M3670 647 c-19 -13 -60 -37 -90 -54 -147 -80 -190 -118 -190 -168 0
-15 26 -21 32 -7 5 12 114 84 185 122 40 22 72 47 88 72 41 62 33 73 -25 35z"/>
<path d="M7941 543 c-17 -21 -31 -45 -31 -54 0 -19 50 -65 89 -82 21 -10 27
-8 52 23 45 54 40 77 -25 128 -39 30 -50 28 -85 -15z"/>
<path d="M4510 543 c-33 -24 -116 -73 -164 -98 -57 -30 -116 -91 -116 -120 0
-14 2 -25 5 -25 3 0 24 14 48 31 38 28 154 99 202 124 23 12 75 86 69 97 -8
12 -17 10 -44 -9z"/>
<path d="M10930 501 c-14 -10 -47 -31 -75 -46 -92 -50 -174 -106 -189 -130
-15 -22 -22 -65 -11 -65 2 0 33 20 68 45 36 25 67 45 70 45 21 0 137 84 159
116 36 53 26 70 -22 35z"/>
<path d="M7306 438 c-20 -23 -36 -47 -36 -54 0 -18 109 -87 127 -80 7 3 21 19
31 36 21 37 32 37 63 4 31 -34 54 -45 73 -38 19 7 56 69 56 92 -1 19 -79 82
-101 82 -8 0 -28 -16 -44 -36 l-30 -36 -45 36 c-25 20 -48 36 -52 36 -3 0 -23
-19 -42 -42z"/>
<path d="M9612 443 l-29 -37 -44 32 c-23 18 -48 32 -55 32 -17 0 -74 -71 -74
-92 0 -18 85 -87 108 -88 7 0 22 16 33 35 12 19 26 35 31 35 6 0 26 -14 45
-31 21 -18 44 -29 56 -27 23 3 67 61 67 87 0 14 -87 91 -103 91 -3 0 -18 -17
-35 -37z"/>
<path d="M1690 443 c-8 -4 -40 -24 -71 -45 -31 -21 -59 -38 -62 -38 -3 0 -34
-17 -68 -38 -61 -37 -109 -89 -109 -118 0 -20 30 -17 49 4 17 18 77 62 85 62
14 0 145 83 164 104 18 22 41 78 31 75 -2 0 -11 -3 -19 -6z"/>
<path d="M490 421 c-14 -10 -42 -28 -62 -40 -21 -11 -55 -31 -75 -42 -107 -61
-153 -108 -139 -144 5 -14 13 -12 54 18 55 40 181 117 191 117 15 0 81 86 81
105 0 11 -26 3 -50 -14z"/>
<path d="M2221 403 c-40 -48 -39 -73 2 -104 61 -45 78 -51 98 -33 18 16 49 74
49 91 0 11 -93 83 -108 83 -6 0 -24 -17 -41 -37z"/>
<path d="M734 353 c-19 -20 -34 -45 -34 -55 0 -21 88 -89 110 -85 21 3 71 82
64 101 -6 17 -59 59 -88 69 -13 5 -27 -3 -52 -30z"/>
<path d="M6499 359 c-45 -48 -46 -67 -7 -99 61 -52 75 -56 102 -31 14 13 30
37 37 54 12 29 11 31 -26 63 -56 46 -73 48 -106 13z"/>
<path d="M8170 292 c0 -4 -42 -32 -92 -61 -121 -68 -180 -111 -197 -145 -28
-51 1 -48 87 9 45 30 84 55 87 55 14 0 116 75 130 96 19 30 19 54 0 54 -8 0
-15 -4 -15 -8z"/>
</g>
</svg>
