<?xml version="1.0" standalone="no"?>
<!DOCTYPE svg PUBLIC "-//W3C//DTD SVG 20010904//EN"
 "http://www.w3.org/TR/2001/REC-SVG-20010904/DTD/svg10.dtd">
<svg version="1.0" xmlns="http://www.w3.org/2000/svg"
 width="600.000000pt" height="600.000000pt" viewBox="0 0 600.000000 600.000000"
 preserveAspectRatio="xMidYMid meet">
<g transform="translate(0.000000,600.000000) scale(0.100000,-0.100000)"
fill="#000000" stroke="none">
<path d="M2924 5575 c-8 -21 -17 -58 -19 -84 -2 -25 -7 -57 -13 -71 -5 -14
-13 -41 -17 -60 -4 -19 -13 -45 -21 -57 -8 -13 -14 -49 -14 -88 0 -37 -5 -76
-11 -87 -12 -23 -29 -121 -54 -323 -15 -121 -32 -203 -45 -218 -7 -9 -49 110
-74 210 -15 63 -76 224 -104 278 -17 33 -93 241 -148 408 -26 76 -41 107 -53
108 -60 4 -178 -14 -218 -34 -13 -6 -23 -16 -23 -23 0 -7 21 -67 46 -134 25
-67 43 -124 41 -126 -2 -2 -15 4 -28 14 -54 42 -117 70 -179 81 -41 7 -69 17
-77 28 -26 37 -35 43 -68 43 -25 0 -35 -5 -40 -20 -8 -26 -25 -16 -25 14 0 26
-41 50 -69 41 -10 -3 -25 -21 -34 -41 -11 -21 -36 -47 -67 -66 -57 -35 -59
-44 -34 -148 26 -112 49 -128 124 -90 85 43 186 19 340 -82 120 -78 216 -189
208 -239 -2 -17 -42 -53 -133 -121 -142 -106 -224 -188 -260 -259 -37 -72 -97
-246 -130 -377 l-19 -72 -128 -128 c-71 -70 -137 -143 -147 -162 -10 -19 -27
-73 -36 -120 -10 -47 -28 -116 -41 -155 -34 -99 -84 -298 -93 -376 -9 -72 2
-164 24 -189 29 -34 57 -138 67 -244 7 -85 14 -116 30 -139 19 -26 21 -42 19
-111 -5 -167 40 -288 178 -486 79 -113 131 -190 380 -564 102 -153 146 -209
237 -300 70 -70 161 -179 242 -289 167 -224 218 -261 492 -360 154 -55 239
-71 339 -64 64 4 86 10 136 40 73 43 246 208 314 299 56 76 165 294 234 468
55 140 114 267 157 340 67 114 170 319 206 410 36 89 38 102 38 205 0 96 -3
119 -27 179 -15 38 -41 91 -57 118 l-30 49 25 77 c40 126 47 171 44 297 -3
117 -3 122 28 186 46 97 51 145 38 380 -8 133 -7 137 15 159 17 17 29 21 54
16 17 -3 36 -13 41 -22 38 -60 47 -66 94 -61 38 4 50 1 74 -19 17 -15 41 -24
61 -24 37 0 99 37 104 62 2 9 -17 53 -42 98 -26 45 -46 84 -46 86 0 2 33 3 73
2 l72 -3 3 70 c5 119 0 132 -68 164 l-59 28 21 21 21 21 -20 53 c-24 64 -45
71 -108 34 -24 -14 -45 -26 -47 -26 -2 0 0 42 3 92 4 64 13 107 27 138 29 60
29 105 0 124 -19 12 -33 12 -83 1 -33 -6 -62 -11 -64 -9 -2 1 16 21 39 43 53
51 52 77 -7 102 l-42 18 -68 -49 c-37 -26 -81 -62 -98 -79 -33 -36 -74 -49
-189 -61 -44 -5 -110 -18 -144 -30 -74 -24 -76 -23 -127 55 -47 73 -161 184
-262 256 -66 47 -107 68 -166 85 -96 28 -97 29 -97 62 0 59 90 237 137 270 82
58 231 99 303 84 31 -7 70 -46 82 -83 6 -17 60 2 66 23 3 14 10 18 23 14 11
-3 27 -8 37 -11 23 -7 76 65 92 124 18 68 9 86 -56 111 -31 11 -76 32 -99 45
-23 14 -56 25 -73 25 -41 0 -47 12 -27 64 9 23 15 58 13 77 -3 33 -4 34 -55
37 -59 3 -93 -19 -93 -62 0 -27 -35 -76 -55 -76 -9 0 -13 13 -11 41 1 41 1 42
-34 42 -62 -1 -66 -2 -78 -37 -19 -52 -74 -118 -145 -174 -103 -81 -204 -190
-247 -266 -22 -39 -40 -64 -40 -55 -1 52 27 200 55 299 35 123 53 202 57 263
2 36 1 38 -55 68 -42 22 -78 32 -127 36 l-70 6 -16 -38z"/>
</g>
</svg>
