<?xml version="1.0" standalone="no"?>
<!DOCTYPE svg PUBLIC "-//W3C//DTD SVG 20010904//EN"
 "http://www.w3.org/TR/2001/REC-SVG-20010904/DTD/svg10.dtd">
<svg version="1.0" xmlns="http://www.w3.org/2000/svg"
 width="1200.000000pt" height="364.000000pt" viewBox="0 0 1200.000000 364.000000"
 preserveAspectRatio="xMidYMid meet">
<g transform="translate(0.000000,364.000000) scale(0.100000,-0.100000)"
fill="#000000" stroke="none">
<path d="M8064 3474 c-48 -50 -43 -104 9 -104 16 0 17 -2 7 -15 -8 -10 -9 -19
-4 -25 11 -10 154 59 168 82 16 26 0 33 -44 18 -29 -9 -52 -11 -78 -4 -44 11
-40 30 6 26 28 -3 32 -1 32 21 0 17 -7 27 -22 31 -36 9 -39 8 -74 -30z"/>
<path d="M4104 3448 c-13 -24 -15 -47 -10 -97 11 -122 40 -339 56 -416 17 -81
23 -142 16 -168 -7 -29 -70 -51 -121 -41 -41 7 -44 23 -14 65 45 63 -5 109
-118 109 -78 0 -106 -13 -127 -57 -20 -43 -13 -56 26 -48 21 5 35 2 48 -10 22
-20 18 -35 -10 -35 -36 0 -130 -41 -171 -76 -22 -19 -46 -34 -51 -34 -15 0
-37 -31 -38 -51 0 -18 28 -29 74 -29 44 0 156 -37 156 -51 0 -22 -188 -89
-335 -120 -95 -20 -139 -23 -320 -24 -174 0 -221 3 -275 18 -127 36 -161 50
-172 71 -7 11 -16 82 -20 156 -18 330 -44 546 -69 574 -15 17 -41 -63 -31 -93
24 -64 52 -354 52 -538 0 -86 20 -175 45 -203 20 -22 114 -54 224 -76 69 -13
119 -15 270 -11 256 8 395 41 611 146 l115 55 109 1 c106 0 109 1 129 27 33
44 18 57 -63 57 -38 0 -96 5 -128 11 -74 15 -240 69 -247 80 -3 4 41 23 97 41
57 17 108 34 114 36 6 2 28 -10 50 -28 76 -60 133 -67 185 -22 41 35 47 144
19 328 -5 33 -15 110 -22 171 -12 102 -12 115 3 150 23 51 23 74 -1 104 -11
14 -20 30 -20 37 0 26 -20 22 -36 -9z"/>
<path d="M3830 3430 c-8 -4 -31 -15 -50 -23 -19 -8 -61 -27 -93 -41 -32 -14
-59 -26 -61 -26 -2 0 -46 -20 -98 -44 -51 -24 -115 -53 -143 -65 -27 -13 -165
-79 -305 -149 -221 -110 -262 -133 -307 -180 -46 -45 -66 -82 -47 -82 6 0 95
49 109 60 20 16 144 82 300 159 150 74 192 93 363 172 139 64 169 78 243 113
69 31 129 82 129 107 0 11 -20 11 -40 -1z"/>
<path d="M4825 3266 c-27 -18 -76 -49 -107 -69 -53 -34 -95 -86 -81 -100 3 -4
25 7 49 23 23 17 45 30 49 30 4 0 25 13 48 28 23 16 50 31 59 35 21 7 59 67
52 79 -8 12 -15 10 -69 -26z"/>
<path d="M11350 3267 c-98 -44 -151 -67 -154 -67 -2 0 -44 -18 -93 -41 -48
-22 -101 -46 -118 -54 -172 -77 -497 -236 -587 -288 -74 -42 -175 -144 -159
-160 6 -6 25 1 53 21 24 16 60 39 81 51 20 11 54 31 75 42 106 61 436 220 717
346 160 72 164 74 200 110 46 46 38 64 -15 40z"/>
<path d="M4257 3243 c-20 -34 -17 -125 13 -378 5 -44 14 -149 20 -234 12 -168
20 -221 35 -224 18 -4 24 70 14 198 -17 224 -27 336 -43 450 -9 61 -16 127
-16 147 0 35 -13 58 -23 41z"/>
<path d="M4534 3204 c-7 -46 -4 -82 16 -224 14 -95 27 -237 39 -414 10 -137
17 -166 42 -151 18 11 3 283 -31 555 -5 47 -13 125 -16 173 -6 70 -10 90 -25
97 -16 9 -19 4 -25 -36z"/>
<path d="M8114 3235 c-8 -19 1 -179 16 -295 16 -130 29 -283 37 -413 3 -65 9
-120 14 -122 17 -11 39 28 39 68 0 43 -22 292 -40 452 -5 50 -14 131 -19 180
-12 117 -32 171 -47 130z"/>
<path d="M3910 3221 c-25 -19 -82 -53 -132 -78 -50 -26 -100 -103 -67 -103 6
0 25 11 42 24 18 13 59 39 92 56 60 32 115 83 115 107 0 18 -21 16 -50 -6z"/>
<path d="M7234 3226 c-3 -8 -3 -50 -1 -93 5 -73 10 -122 37 -348 6 -49 14
-152 19 -228 4 -75 11 -140 14 -143 3 -4 13 -4 22 -1 11 5 15 20 15 54 0 51
-23 313 -40 473 -6 52 -14 136 -19 186 -4 49 -11 95 -15 102 -10 16 -25 15
-32 -2z"/>
<path d="M8445 3153 c-9 -20 -13 -44 -9 -52 23 -55 40 -210 54 -486 10 -208
13 -225 50 -265 42 -45 87 -42 131 8 19 21 42 53 51 70 22 40 54 42 140 7 l63
-25 17 22 c24 31 22 80 -3 131 -53 104 -79 118 -123 66 -34 -41 -34 -59 3 -59
34 0 62 -26 38 -36 -8 -3 -27 2 -42 12 l-27 18 -68 -72 c-76 -79 -107 -90
-148 -52 -12 12 -22 22 -23 23 -1 3 -16 247 -24 377 -3 58 -10 131 -15 163
-21 122 -33 178 -41 183 -5 3 -15 -12 -24 -33z"/>
<path d="M10034 3175 c-6 -14 -3 -57 15 -195 5 -41 16 -184 25 -317 15 -237
25 -293 57 -320 21 -17 123 -49 218 -68 104 -21 402 -16 523 9 138 28 249 71
286 111 18 19 37 35 43 35 6 0 38 -18 71 -40 33 -22 69 -40 80 -40 30 0 148
44 225 85 79 41 172 60 223 45 19 -6 43 -10 52 -10 19 0 72 75 64 89 -3 4 -36
8 -73 8 -78 1 -168 22 -267 64 -83 35 -115 36 -165 4 -38 -23 -75 -64 -66 -73
2 -2 27 1 55 7 41 9 63 8 115 -5 93 -23 100 -38 34 -68 -91 -39 -193 -58 -247
-44 -26 6 -56 17 -67 25 -26 18 -41 17 -73 -7 -32 -23 -152 -61 -272 -87 -66
-14 -131 -18 -295 -18 -221 0 -202 -2 -397 55 -21 6 -40 16 -44 22 -15 24 -24
99 -34 278 -14 238 -36 429 -53 458 -11 16 -26 15 -33 -3z"/>
<path d="M5890 3170 c0 -5 -4 -10 -9 -10 -22 0 -185 -109 -199 -133 -25 -40
-3 -55 34 -24 16 13 36 27 44 30 15 7 105 60 126 74 13 10 44 55 44 65 0 5 -9
8 -20 8 -11 0 -20 -4 -20 -10z"/>
<path d="M9594 3092 c-16 -15 -38 -39 -50 -52 -12 -14 -30 -30 -40 -36 -16
-10 -17 -15 -6 -33 6 -11 12 -38 12 -58 0 -22 9 -49 20 -63 l19 -25 23 22 c13
12 29 36 35 54 11 29 10 34 -17 61 -17 16 -30 34 -30 39 0 12 44 52 88 80 40
26 41 39 3 39 -18 0 -40 -10 -57 -28z m-16 -175 c10 -8 10 -12 1 -18 -18 -11
-39 1 -39 23 0 19 8 18 38 -5z"/>
<path d="M5316 3074 c-36 -37 -37 -97 -1 -120 14 -9 25 -20 25 -24 0 -18 -87
-90 -110 -90 -5 0 -10 -10 -10 -21 0 -17 4 -20 23 -15 12 3 27 6 33 6 15 0 84
71 84 86 0 6 9 14 20 17 23 6 24 20 9 103 -10 57 -23 84 -39 84 -4 0 -19 -12
-34 -26z m42 -62 c3 -9 -2 -13 -14 -10 -9 1 -19 9 -22 16 -3 9 2 13 14 10 9
-1 19 -9 22 -16z"/>
<path d="M9651 3051 c-29 -41 -27 -85 5 -110 16 -12 24 -27 21 -35 -3 -8 -33
-35 -66 -59 -61 -44 -67 -57 -26 -57 25 0 101 62 110 90 4 11 15 20 27 20 19
0 20 4 13 63 -12 110 -44 144 -84 88z m49 -51 c8 -15 8 -20 -3 -20 -14 0 -37
19 -37 32 0 16 30 7 40 -12z"/>
<path d="M7852 3061 c-44 -5 -56 -11 -72 -36 -11 -16 -20 -33 -20 -37 0 -4 24
-5 53 -2 l52 5 -36 -20 c-47 -26 -60 -54 -21 -45 15 4 31 11 37 15 5 5 21 9
36 9 22 0 33 9 54 46 15 25 24 52 21 60 -6 14 -14 15 -104 5z"/>
<path d="M9334 3050 c-5 -5 -40 -25 -79 -45 -38 -21 -99 -53 -134 -73 -35 -19
-76 -41 -89 -48 -38 -19 -84 -76 -71 -89 6 -6 17 -5 31 4 47 29 162 93 262
145 73 37 106 66 106 90 0 19 -14 28 -26 16z"/>
<path d="M7645 3011 c-27 -15 -97 -52 -154 -82 -57 -29 -117 -66 -133 -82 -27
-28 -37 -57 -19 -57 9 0 116 55 136 70 6 4 55 31 110 59 95 50 134 81 135 109
0 18 -20 14 -75 -17z"/>
<path d="M4768 2983 c-9 -10 -21 -28 -27 -40 -10 -19 -7 -25 21 -46 49 -36 64
-38 92 -16 36 29 34 62 -7 93 -40 31 -58 32 -79 9z"/>
<path d="M6035 2971 c-27 -15 -66 -33 -85 -41 -123 -49 -240 -146 -276 -228
-46 -102 -27 -124 119 -143 133 -17 552 6 832 47 55 7 160 21 233 29 147 17
167 13 230 -39 44 -38 41 -54 -10 -60 -56 -6 -161 -20 -383 -50 -555 -76 -849
-98 -1068 -78 -97 8 -111 12 -136 36 -33 31 -51 91 -51 165 0 27 -4 52 -8 55
-5 3 -22 -14 -39 -37 -18 -27 -53 -55 -93 -77 -50 -28 -68 -45 -89 -83 -24
-46 -25 -50 -9 -61 10 -7 48 -16 85 -19 64 -6 69 -5 92 20 l25 26 11 -33 c22
-65 49 -77 190 -85 164 -10 439 -1 590 18 66 8 206 25 310 37 105 12 262 33
350 47 88 14 184 29 213 34 63 9 74 17 103 75 27 57 20 101 -24 148 -67 71
-159 72 -567 11 -157 -24 -313 -34 -540 -36 -185 -1 -223 2 -270 18 -74 24
-73 44 5 100 61 44 212 123 233 123 33 0 112 65 112 92 0 25 -25 22 -85 -11z
m-637 -448 c-3 -46 -4 -48 -36 -51 -65 -6 -70 5 -22 53 24 25 48 45 53 45 4 0
7 -21 5 -47z"/>
<path d="M8850 2959 c-30 -21 -59 -38 -63 -39 -17 -1 -98 -62 -114 -86 -23
-36 -2 -56 29 -27 13 12 40 30 61 42 20 12 54 31 74 42 59 33 99 88 76 102 -5
3 -33 -12 -63 -34z"/>
<path d="M11610 2992 c0 -5 -17 -17 -37 -29 -148 -79 -183 -106 -183 -139 0
-30 11 -30 47 -1 15 12 39 28 52 35 13 8 38 22 56 32 62 35 74 44 84 67 15 32
14 43 -4 43 -8 0 -15 -4 -15 -8z"/>
<path d="M2404 2933 c-6 -5 -26 -30 -43 -58 l-32 -50 22 -17 c12 -10 28 -18
35 -18 12 0 12 -4 4 -21 -7 -11 -9 -23 -6 -27 10 -9 167 71 177 90 5 9 9 19 9
22 0 10 -38 7 -63 -5 -30 -14 -107 5 -107 26 0 18 5 18 30 5 29 -15 52 -2 48
29 -2 21 -9 27 -33 29 -16 1 -35 -1 -41 -5z"/>
<path d="M7833 2721 c-24 -46 -23 -48 49 -75 69 -26 171 -147 145 -173 -24
-23 -249 -43 -262 -23 -3 6 -13 10 -21 10 -23 0 -19 -92 6 -115 18 -16 27 -17
93 -6 113 18 179 38 201 61 29 29 27 127 -4 193 -38 81 -127 167 -173 167 -7
0 -23 -18 -34 -39z"/>
<path d="M11130 2728 c-29 -31 -25 -68 10 -96 36 -29 66 -25 87 9 21 35 11 70
-26 92 -38 22 -46 22 -71 -5z"/>
<path d="M4807 2716 c-9 -13 -19 -35 -22 -49 -6 -23 -3 -27 32 -36 22 -6 55
-23 75 -38 44 -35 108 -121 102 -138 -6 -13 -153 -45 -209 -45 -16 0 -43 7
-59 15 -15 8 -30 15 -32 15 -2 0 -4 -24 -4 -54 0 -36 5 -58 15 -66 32 -26 260
13 300 51 29 28 27 127 -3 192 -26 55 -102 141 -144 163 -35 18 -33 18 -51
-10z"/>
<path d="M9825 2700 c-10 -31 6 -92 35 -135 54 -80 88 -202 71 -248 -12 -30
-74 -69 -156 -97 -99 -34 -173 -26 -234 26 -32 28 -42 45 -52 90 -9 42 -10 57
-1 66 14 14 16 68 3 68 -23 0 -41 -65 -41 -149 1 -104 23 -157 88 -204 39 -28
49 -31 120 -30 61 0 89 5 132 25 70 32 136 90 157 137 22 48 24 218 3 281 -24
77 -91 190 -111 190 -4 0 -10 -9 -14 -20z"/>
<path d="M2450 2629 c0 -42 5 -55 30 -82 42 -45 38 -61 -22 -91 -56 -28 -91
-32 -134 -16 -23 9 -26 14 -20 42 l6 32 -28 -31 c-35 -39 -58 -48 -202 -78
-562 -118 -1136 -145 -1545 -75 -118 21 -244 58 -301 90 -40 23 -64 26 -64 7
0 -20 149 -150 187 -164 160 -57 685 -90 993 -63 130 12 327 40 539 75 209 36
295 61 350 103 33 24 35 25 60 9 62 -40 92 -49 124 -37 50 17 76 38 97 80 34
67 26 151 -23 223 -30 44 -47 35 -47 -24z"/>
<path d="M7586 2624 c-15 -39 -5 -90 29 -144 50 -78 47 -98 -27 -173 -80 -81
-158 -120 -249 -125 l-66 -4 -47 45 c-40 37 -48 51 -51 86 -3 48 -12 62 -26
41 -21 -34 15 -126 69 -170 43 -35 152 -90 179 -90 55 0 221 146 260 229 36
76 38 168 3 226 -13 22 -30 52 -37 68 -16 31 -28 34 -37 11z"/>
<path d="M9162 2627 c-23 -27 -52 -103 -52 -137 0 -46 33 -100 62 -100 12 0
30 7 40 17 10 9 21 14 24 10 26 -26 -103 -160 -198 -206 -51 -24 -79 -31 -126
-31 -55 0 -62 3 -106 41 -25 22 -46 47 -46 54 0 21 -22 65 -32 65 -12 0 1 -84
13 -88 5 -2 9 -10 9 -17 0 -30 147 -132 203 -142 21 -3 45 1 63 10 49 25 155
115 189 160 78 102 97 252 42 336 -28 43 -63 54 -85 28z m23 -97 c4 -6 1 -18
-6 -26 -11 -13 -14 -13 -27 0 -8 8 -11 19 -8 25 9 14 33 14 41 1z"/>
<path d="M9646 2479 c-33 -39 -33 -45 5 -80 52 -48 108 -32 109 32 0 19 -10
34 -34 53 -19 14 -39 26 -44 26 -6 0 -22 -14 -36 -31z"/>
<path d="M11606 2309 c-14 -17 -26 -36 -26 -43 0 -15 35 -48 69 -66 22 -11 27
-10 48 14 35 41 30 69 -17 100 -22 14 -42 26 -44 26 -2 0 -16 -14 -30 -31z"/>
<path d="M3886 2254 c-26 -39 -17 -73 26 -98 l37 -21 25 24 c34 32 33 66 -1
96 -36 32 -66 31 -87 -1z"/>
<path d="M2520 2180 c-14 -10 -54 -34 -89 -53 -75 -41 -121 -82 -121 -108 0
-27 13 -24 69 16 26 19 51 35 55 35 18 0 118 75 125 93 15 40 0 47 -39 17z"/>
<path d="M1050 2091 c0 -5 -8 -11 -17 -14 -10 -4 -40 -20 -68 -37 -27 -17 -57
-33 -65 -37 -28 -11 -70 -57 -70 -75 0 -25 15 -23 63 10 23 16 67 43 98 60 71
40 116 102 74 102 -8 0 -15 -4 -15 -9z"/>
<path d="M1296 2084 c-46 -45 -43 -78 9 -111 45 -29 49 -29 74 6 29 41 26 55
-16 90 -43 36 -46 36 -67 15z"/>
<path d="M6644 2043 c-11 -10 -35 -26 -54 -37 -111 -60 -170 -112 -155 -136 5
-9 34 -3 45 9 10 12 111 71 121 71 13 0 99 87 99 100 0 16 -34 12 -56 -7z"/>
<path d="M3340 1964 c-12 -37 -11 -71 9 -219 23 -169 31 -223 41 -270 18 -90
24 -184 11 -199 -6 -8 -27 -17 -46 -20 -47 -9 -94 14 -131 64 -61 82 -93 75
-149 -32 -39 -74 -85 -126 -118 -132 -72 -15 -77 -17 -83 -41 -9 -35 9 -51 64
-58 50 -6 151 -35 166 -48 12 -11 -49 -47 -112 -65 -66 -20 -117 -10 -145 28
-16 22 -21 51 -28 185 -16 297 -35 467 -58 526 -27 69 -48 -23 -27 -120 18
-84 34 -245 41 -428 9 -194 16 -230 53 -268 26 -25 39 -31 79 -31 40 -1 67 9
163 59 106 55 120 59 181 60 39 0 72 -5 81 -13 13 -10 21 -7 47 24 18 20 30
41 28 47 -2 7 -43 17 -91 24 -49 7 -107 19 -129 27 -169 59 -174 63 -139 106
l19 24 53 -23 c29 -13 74 -29 99 -37 43 -13 47 -12 61 5 8 11 34 22 57 26 46
7 88 46 99 92 8 29 -2 188 -16 283 -6 36 -15 113 -22 171 -10 93 -9 110 5 139
22 43 21 69 -3 100 -11 14 -20 31 -20 38 0 27 -29 10 -40 -24z m-134 -671 c15
-20 19 -63 5 -63 -17 0 -78 29 -90 44 -10 12 -9 16 6 25 28 16 64 13 79 -6z"/>
<path d="M8685 1844 c-11 -8 -55 -36 -99 -62 -77 -46 -123 -92 -111 -111 7
-12 34 -3 59 21 11 10 26 18 33 18 7 0 13 3 13 8 0 4 23 18 51 32 46 22 109
82 109 102 0 13 -34 8 -55 -8z"/>
<path d="M3060 1776 c-8 -8 -32 -24 -52 -35 -21 -12 -55 -30 -75 -42 -21 -11
-48 -31 -60 -44 -26 -27 -31 -65 -8 -65 8 0 15 4 15 8 0 5 40 32 88 60 90 53
132 90 132 117 0 19 -21 19 -40 1z"/>
<path d="M3495 1759 c-11 -16 -8 -187 4 -255 11 -68 26 -217 42 -427 6 -81 16
-150 20 -153 5 -3 14 7 20 23 14 35 -6 342 -40 608 -6 44 -14 108 -17 143 -7
62 -16 82 -29 61z"/>
<path d="M6538 1749 c-9 -5 -23 -22 -31 -38 -16 -31 -13 -36 45 -80 23 -17 55
-5 73 28 12 25 12 31 -1 50 -22 31 -66 51 -86 40z"/>
<path d="M9796 1699 c-13 -43 -14 -69 -1 -138 23 -125 35 -241 35 -344 0 -115
17 -283 32 -312 23 -45 61 -75 95 -75 28 0 43 9 82 50 26 28 51 50 54 50 4 0
26 -14 51 -31 39 -28 56 -33 148 -41 138 -13 451 -5 618 15 74 9 218 26 320
38 151 17 398 52 586 84 34 6 53 23 78 72 35 69 6 140 -74 181 -42 22 -53 23
-160 18 -63 -3 -162 -12 -220 -20 -351 -51 -437 -59 -665 -60 -206 -1 -236 1
-285 19 -74 27 -73 46 5 102 73 51 201 118 244 128 40 9 101 61 101 86 0 26
-17 24 -91 -12 -35 -18 -75 -37 -89 -43 -124 -55 -229 -143 -266 -223 -33 -73
-32 -98 7 -117 98 -49 475 -39 974 24 321 41 331 42 372 25 43 -18 93 -62 93
-82 0 -7 -3 -13 -7 -13 -27 -1 -194 -22 -282 -35 -160 -24 -312 -44 -466 -60
-77 -8 -194 -22 -260 -30 -215 -26 -539 -16 -667 21 -57 17 -58 17 -116 -10
-33 -14 -69 -26 -80 -26 -58 0 -82 70 -82 239 -1 89 -18 287 -39 440 -9 63
-35 111 -45 80z"/>
<path d="M3230 1602 c-173 -110 -189 -125 -177 -156 6 -15 11 -13 44 13 21 16
62 41 91 56 80 41 133 102 105 118 -5 3 -33 -11 -63 -31z"/>
<path d="M9330 1590 c-27 -27 -53 -50 -59 -50 -15 0 -25 -48 -14 -63 6 -6 11
-30 11 -51 1 -25 9 -47 21 -59 19 -20 20 -20 45 7 13 15 28 41 31 58 6 26 2
35 -24 60 -31 29 -32 31 -14 50 10 11 39 35 65 53 49 33 52 45 11 45 -16 0
-41 -17 -73 -50z m0 -174 c-13 -13 -45 17 -35 34 5 8 12 6 26 -6 13 -12 16
-21 9 -28z"/>
<path d="M6616 1595 c-20 -30 -37 -32 -61 -5 -25 28 -52 22 -82 -17 l-25 -32
43 -30 c51 -38 66 -39 81 -6 6 14 15 25 21 25 5 0 22 -11 39 -25 36 -31 42
-31 68 -3 31 33 26 69 -13 96 -42 28 -51 28 -71 -3z"/>
<path d="M9400 1560 c-27 -52 -25 -64 11 -95 l32 -26 -29 -31 c-16 -16 -46
-41 -66 -54 -21 -13 -38 -29 -38 -34 0 -15 33 -12 66 4 26 14 84 74 84 87 0 4
9 9 20 12 20 5 28 41 11 51 -5 3 -9 21 -8 40 1 44 -21 86 -44 86 -12 0 -26
-15 -39 -40z m50 -24 c0 -2 3 -11 6 -20 4 -10 1 -16 -9 -16 -17 0 -40 24 -30
33 7 8 33 10 33 3z"/>
<path d="M3960 1558 c-19 -12 -75 -42 -125 -68 -143 -75 -168 -90 -197 -118
-30 -28 -37 -62 -13 -62 8 0 15 4 15 9 0 5 8 11 18 14 9 4 40 20 67 36 28 17
96 54 153 83 75 39 106 60 115 81 6 15 16 27 20 27 5 0 5 5 2 10 -8 13 -14 12
-55 -12z"/>
<path d="M8605 1521 c-17 -10 -43 -33 -58 -51 -29 -33 -77 -131 -77 -154 0 -8
16 -28 36 -45 37 -33 40 -61 6 -61 -56 0 -142 -50 -142 -82 0 -14 37 -27 106
-38 84 -13 134 -30 134 -45 0 -13 -19 -23 -115 -60 -77 -30 -136 -28 -176 4
-18 14 -20 21 -10 39 19 37 -6 34 -29 -3 -26 -43 -68 -66 -119 -67 -53 -1 -82
20 -74 51 6 24 5 24 -34 -9 -79 -66 -309 -114 -543 -114 -139 0 -161 3 -215
24 -33 13 -77 40 -97 60 -36 36 -38 41 -38 104 0 48 -4 66 -13 66 -36 0 -51
-144 -22 -213 19 -47 69 -95 124 -121 42 -19 63 -21 226 -21 150 1 198 5 285
24 122 27 214 60 266 95 40 27 50 25 91 -13 33 -32 83 -28 118 9 16 17 35 30
43 30 8 0 37 -14 64 -30 26 -17 59 -30 71 -30 13 0 88 30 167 66 l144 67 98
-6 98 -5 20 28 c37 51 30 57 -77 63 -116 7 -287 47 -291 68 -2 10 35 30 115
63 123 51 193 104 193 146 0 27 -14 25 -63 -9 -89 -61 -162 -64 -236 -11 -32
23 -41 37 -41 59 0 23 7 32 38 47 38 18 112 22 170 9 40 -9 42 6 5 35 -29 23
-87 50 -107 50 -6 0 -25 -8 -41 -19z"/>
<path d="M2536 1477 c-33 -44 -33 -51 7 -81 42 -32 71 -33 91 -4 26 37 20 65
-21 93 -21 14 -41 25 -45 25 -4 0 -18 -15 -32 -33z"/>
<path d="M7571 1469 c-11 -12 -25 -35 -32 -52 -12 -29 -11 -32 24 -62 36 -31
36 -33 19 -52 -9 -10 -38 -34 -64 -52 -48 -32 -63 -62 -30 -60 30 1 76 34 107
76 17 23 38 43 49 46 15 5 17 11 11 34 -3 15 -9 46 -12 68 -5 38 -27 75 -44
75 -5 0 -17 -9 -28 -21z m37 -63 c3 -12 -1 -17 -10 -14 -7 3 -15 13 -16 22 -3
12 1 17 10 14 7 -3 15 -13 16 -22z"/>
<path d="M5836 1394 c-14 -15 -26 -35 -26 -46 0 -17 5 -19 30 -13 44 10 59 -5
21 -21 -17 -7 -31 -20 -31 -29 0 -16 25 -21 34 -6 4 5 24 12 46 16 33 5 44 14
69 54 17 26 31 53 31 59 0 8 -24 12 -74 12 -66 0 -76 -3 -100 -26z"/>
<path d="M6804 1395 c-3 -14 -3 -36 0 -50 7 -29 -3 -31 -53 -14 -23 8 -34 19
-38 40 -6 29 -6 29 -28 -19 -28 -61 -57 -82 -111 -82 -61 0 -71 6 -115 71 -48
71 -74 76 -135 28 -39 -31 -94 -102 -94 -123 0 -6 -5 -40 -11 -76 -6 -36 -14
-85 -17 -109 -7 -40 -10 -44 -54 -61 -201 -76 -566 -97 -773 -44 -99 26 -160
58 -184 99 -11 20 -25 33 -31 30 -5 -3 -12 -28 -16 -55 -7 -57 -19 -62 -72
-30 -27 17 -31 24 -26 46 11 42 -14 20 -36 -32 -16 -37 -25 -45 -60 -54 -57
-15 -84 -10 -88 18 -4 26 -17 28 -38 7 -9 -8 -39 -22 -69 -30 -49 -15 -57 -15
-84 -1 -67 35 -104 137 -127 351 -3 28 -10 54 -15 59 -13 14 -31 -43 -27 -88
3 -38 2 -39 -62 -78 -83 -51 -98 -65 -116 -107 -20 -48 -13 -59 43 -66 26 -3
63 -8 81 -11 29 -4 34 -1 53 31 25 42 37 44 45 8 17 -81 40 -131 74 -165 45
-45 79 -55 133 -38 23 8 77 14 119 14 71 1 79 3 107 30 l31 29 56 -19 55 -19
19 25 c11 14 20 34 22 44 5 32 22 28 43 -12 41 -77 144 -104 415 -108 280 -4
351 8 584 102 60 23 75 26 107 17 30 -8 43 -7 59 4 25 18 56 82 44 92 -5 4
-35 13 -67 20 -76 16 -101 41 -93 89 8 53 56 123 93 139 l32 13 43 -58 c55
-75 64 -81 120 -82 42 0 52 5 95 45 26 25 50 45 53 45 3 -1 16 -7 30 -15 72
-41 120 2 120 109 0 52 -3 66 -15 66 -8 0 -17 -11 -21 -25z m-2280 -247 l7
-38 -51 0 c-31 0 -50 4 -50 11 0 16 73 79 81 71 4 -4 10 -24 13 -44z"/>
<path d="M10150 1392 c0 -5 -37 -29 -83 -55 -94 -53 -143 -97 -133 -122 5 -15
9 -15 39 4 17 12 66 42 108 67 91 55 134 114 82 114 -7 0 -13 -4 -13 -8z"/>
<path d="M9576 1195 c-7 -36 -3 -48 43 -118 42 -64 71 -144 71 -198 0 -43 -4
-51 -33 -73 -100 -76 -237 -105 -317 -67 -61 28 -100 88 -100 152 0 26 5 51
10 54 13 8 13 42 1 50 -6 3 -18 -11 -28 -32 -24 -51 -23 -195 2 -244 42 -83
89 -110 191 -111 63 -1 82 3 138 31 129 63 167 123 168 266 0 99 -15 166 -57
242 -51 91 -78 106 -89 48z"/>
<path d="M2573 1185 c-10 -28 6 -76 41 -117 21 -24 32 -46 29 -55 -7 -18 -99
-63 -130 -63 -47 0 -73 18 -73 50 0 34 -15 40 -25 10 -9 -28 -39 -46 -110 -65
-92 -25 -368 -72 -590 -102 -181 -24 -231 -26 -520 -27 -281 0 -336 3 -451 22
-164 27 -272 55 -350 93 -66 31 -80 34 -88 20 -6 -10 109 -126 152 -153 71
-44 330 -77 677 -85 266 -6 423 8 795 68 292 48 415 82 449 123 19 22 37 20
75 -9 64 -49 155 -23 198 55 28 50 21 160 -13 212 -25 39 -55 49 -66 23z"/>
<path d="M3784 1105 c-33 -69 -36 -124 -8 -162 27 -36 57 -40 85 -12 32 32 35
8 6 -38 -30 -46 -86 -100 -147 -140 -151 -100 -307 -55 -322 92 -4 43 -22 33
-26 -14 -2 -30 4 -50 24 -80 15 -23 29 -41 33 -41 3 0 20 -12 36 -26 41 -36
119 -74 150 -74 34 0 136 70 206 141 72 73 99 139 99 245 0 78 -8 103 -43 142
-36 39 -62 29 -93 -33z m50 -70 c-7 -17 -30 -20 -39 -5 -4 6 -4 18 -1 26 4 11
10 12 25 4 12 -6 18 -16 15 -25z"/>
<path d="M9411 1008 c-37 -39 -37 -59 0 -90 41 -35 72 -36 93 -3 23 35 20 49
-19 84 -42 37 -48 38 -74 9z"/>
<path d="M4440 861 c-14 -11 -52 -33 -85 -51 -88 -47 -159 -132 -100 -122 9 2
26 11 36 21 11 10 32 24 47 32 64 33 130 79 145 102 26 40 0 50 -43 18z"/>
<path d="M8674 785 c-31 -41 -28 -53 21 -91 42 -32 58 -27 88 24 l19 32 -38
35 c-20 19 -43 35 -50 35 -7 0 -25 -16 -40 -35z"/>
<path d="M5151 802 c-7 -2 -49 -26 -93 -53 -44 -27 -83 -49 -88 -49 -15 0 -62
-68 -55 -80 10 -16 22 -12 68 23 24 17 69 45 100 62 36 19 63 42 74 62 18 34
17 43 -6 35z"/>
<path d="M11140 741 c-14 -11 -52 -33 -85 -51 -62 -33 -128 -95 -122 -114 5
-15 34 -9 58 12 22 19 103 67 135 81 25 11 75 72 68 83 -8 13 -27 9 -54 -11z"/>
<path d="M8324 715 c-20 -30 -40 -32 -70 -4 -29 27 -56 19 -80 -26 -20 -39
-18 -42 39 -74 48 -27 55 -26 69 4 14 32 25 31 59 -1 33 -31 51 -27 78 17 24
40 17 56 -38 87 l-40 23 -17 -26z"/>
<path d="M2645 714 c-16 -8 -32 -18 -35 -22 -3 -4 -18 -14 -35 -22 -44 -21
-118 -72 -132 -89 -17 -21 -16 -51 0 -51 8 0 22 9 32 20 10 11 21 20 25 20 20
0 158 93 169 114 20 37 11 48 -24 30z"/>
<path d="M10132 703 l-23 -26 -23 22 c-30 28 -60 27 -85 -5 -29 -36 -27 -49
12 -78 43 -33 61 -33 84 0 l19 25 29 -26 c38 -33 66 -29 87 14 20 41 16 55
-27 81 -41 25 -45 25 -73 -7z"/>
<path d="M3127 699 c-9 -6 -24 -24 -33 -42 -17 -31 -17 -31 17 -59 48 -40 82
-37 104 8 15 32 15 37 2 52 -29 32 -71 51 -90 41z"/>
<path d="M7552 637 c-31 -33 -27 -58 11 -84 40 -28 59 -29 79 -5 30 35 29 61
-6 87 -41 31 -57 31 -84 2z"/>
<path d="M1005 600 c-27 -17 -64 -37 -81 -46 -50 -24 -114 -84 -114 -105 0
-27 19 -23 60 11 19 17 38 30 43 30 5 0 28 14 52 30 24 17 48 30 53 30 6 0 20
15 31 34 35 56 29 58 -44 16z"/>
<path d="M1416 587 c-15 -19 -26 -39 -26 -45 0 -15 71 -72 90 -72 21 0 63 67
53 84 -11 19 -69 66 -81 66 -6 0 -22 -15 -36 -33z"/>
</g>
</svg>
